<?xml version="1.0" encoding="UTF-8" standalone="no"?>
<!-- Created with Inkscape (http://www.inkscape.org/) -->

<svg
   xmlns:dc="http://purl.org/dc/elements/1.1/"
   xmlns:cc="http://creativecommons.org/ns#"
   xmlns:rdf="http://www.w3.org/1999/02/22-rdf-syntax-ns#"
   xmlns:svg="http://www.w3.org/2000/svg"
   xmlns="http://www.w3.org/2000/svg"
   xmlns:xlink="http://www.w3.org/1999/xlink"
   xmlns:sodipodi="http://sodipodi.sourceforge.net/DTD/sodipodi-0.dtd"
   xmlns:inkscape="http://www.inkscape.org/namespaces/inkscape"
   width="428.54858mm"
   height="487.72421mm"
   viewBox="0 0 428.54858 487.72421"
   version="1.1"
   id="svg8"
   sodipodi:docname="background.svg"
   inkscape:version="0.92.2 5c3e80d, 2017-08-06">
  <defs
     id="defs2">
    <linearGradient
       inkscape:collect="always"
       id="linearGradient821">
      <stop
         style="stop-color:#ffffff;stop-opacity:0.23222749"
         offset="0"
         id="stop817" />
      <stop
         style="stop-color:#ffffff;stop-opacity:0.0521327"
         offset="1"
         id="stop819" />
    </linearGradient>
    <linearGradient
       inkscape:collect="always"
       xlink:href="#linearGradient821"
       id="linearGradient1218"
       gradientUnits="userSpaceOnUse"
       gradientTransform="matrix(0.18518522,0,0,0.18518522,73.91534,25.797618)"
       x1="90.932442"
       y1="21.504471"
       x2="90.932442"
       y2="42.084225" />
  </defs>
  <sodipodi:namedview
     id="base"
     pagecolor="#3c91e6"
     bordercolor="#666666"
     borderopacity="1.0"
     inkscape:pageopacity="0"
     inkscape:pageshadow="2"
     inkscape:zoom="1.979899"
     inkscape:cx="743.36486"
     inkscape:cy="1268.9091"
     inkscape:document-units="mm"
     inkscape:current-layer="layer1"
     showgrid="false"
     inkscape:window-width="1440"
     inkscape:window-height="855"
     inkscape:window-x="0"
     inkscape:window-y="1"
     inkscape:window-maximized="1"
     fit-margin-top="0"
     fit-margin-left="0"
     fit-margin-right="0"
     fit-margin-bottom="0" />
  <metadata
     id="metadata5">
    <rdf:RDF>
      <cc:Work
         rdf:about="">
        <dc:format>image/svg+xml</dc:format>
        <dc:type
           rdf:resource="http://purl.org/dc/dcmitype/StillImage" />
        <dc:title></dc:title>
      </cc:Work>
    </rdf:RDF>
  </metadata>
  <g
     inkscape:label="Layer 1"
     inkscape:groupmode="layer"
     id="layer1"
     transform="translate(100.62228,137.55326)">
    <rect
       style="opacity:1;fill:url(#linearGradient1218);fill-opacity:1;stroke:none;stroke-width:0.37037045;stroke-miterlimit:4;stroke-dasharray:none;stroke-opacity:1"
       id="rect815"
       width="3.7797627"
       height="3.7797627"
       x="88.824402"
       y="29.770832"
       ry="0.9651401" />
    <use
       id="use1002"
       inkscape:spray-origin="#rect815"
       xlink:href="#rect815"
       transform="matrix(1.4331562,0,0,1.4331562,-46.833377,70.552971)"
       x="0"
       y="0"
       width="100%"
       height="100%" />
    <use
       id="use1004"
       inkscape:spray-origin="#rect815"
       xlink:href="#rect815"
       transform="matrix(0.55869239,0,0,0.55869239,116.95206,51.267124)"
       x="0"
       y="0"
       width="100%"
       height="100%" />
    <use
       id="use1006"
       inkscape:spray-origin="#rect815"
       xlink:href="#rect815"
       transform="matrix(1.0491834,0,0,1.0491834,54.909988,-57.331776)"
       x="0"
       y="0"
       width="100%"
       height="100%" />
    <use
       id="use1008"
       inkscape:spray-origin="#rect815"
       xlink:href="#rect815"
       transform="matrix(1.029188,0,0,1.029188,85.024997,-18.566076)"
       x="0"
       y="0"
       width="100%"
       height="100%" />
    <use
       id="use1010"
       inkscape:spray-origin="#rect815"
       xlink:href="#rect815"
       transform="matrix(0.81128289,0,0,0.81128289,-127.02679,23.797226)"
       x="0"
       y="0"
       width="100%"
       height="100%" />
    <use
       id="use1012"
       inkscape:spray-origin="#rect815"
       xlink:href="#rect815"
       transform="matrix(0.75408967,0,0,0.75408967,98.946293,119.14123)"
       x="0"
       y="0"
       width="100%"
       height="100%" />
    <use
       id="use1014"
       inkscape:spray-origin="#rect815"
       xlink:href="#rect815"
       transform="matrix(1.2385615,0,0,1.2385615,-55.44024,93.100534)"
       x="0"
       y="0"
       width="100%"
       height="100%" />
    <use
       id="use1016"
       inkscape:spray-origin="#rect815"
       xlink:href="#rect815"
       transform="matrix(1.2009722,0,0,1.2009722,-43.018442,49.078785)"
       x="0"
       y="0"
       width="100%"
       height="100%" />
    <use
       id="use1018"
       inkscape:spray-origin="#rect815"
       xlink:href="#rect815"
       transform="matrix(0.93125759,0,0,0.93125759,-26.230402,160.16121)"
       x="0"
       y="0"
       width="100%"
       height="100%" />
    <use
       id="use1020"
       inkscape:spray-origin="#rect815"
       xlink:href="#rect815"
       transform="matrix(0.57045357,0,0,0.57045357,165.46262,243.53316)"
       x="0"
       y="0"
       width="100%"
       height="100%" />
    <use
       id="use1022"
       inkscape:spray-origin="#rect815"
       xlink:href="#rect815"
       transform="matrix(1.4565246,0,0,1.4565246,100.9501,233.46865)"
       x="0"
       y="0"
       width="100%"
       height="100%" />
    <use
       id="use1024"
       inkscape:spray-origin="#rect815"
       xlink:href="#rect815"
       transform="matrix(0.86555211,0,0,0.86555211,224.00615,122.07097)"
       x="0"
       y="0"
       width="100%"
       height="100%" />
    <use
       id="use1026"
       inkscape:spray-origin="#rect815"
       xlink:href="#rect815"
       transform="matrix(0.56619162,0,0,0.56619162,28.348184,61.618036)"
       x="0"
       y="0"
       width="100%"
       height="100%" />
    <use
       id="use1028"
       inkscape:spray-origin="#rect815"
       xlink:href="#rect815"
       transform="matrix(0.87408367,0,0,0.87408367,-15.987458,113.29636)"
       x="0"
       y="0"
       width="100%"
       height="100%" />
    <use
       id="use1030"
       inkscape:spray-origin="#rect815"
       xlink:href="#rect815"
       transform="matrix(0.50675426,0,0,0.50675426,-22.846908,65.999805)"
       x="0"
       y="0"
       width="100%"
       height="100%" />
    <use
       id="use1032"
       inkscape:spray-origin="#rect815"
       xlink:href="#rect815"
       transform="matrix(1.3719073,0,0,1.3719073,-95.311356,-67.316767)"
       x="0"
       y="0"
       width="100%"
       height="100%" />
    <use
       id="use1034"
       inkscape:spray-origin="#rect815"
       xlink:href="#rect815"
       transform="matrix(1.5507011,0,0,1.5507011,-49.267692,-27.266912)"
       x="0"
       y="0"
       width="100%"
       height="100%" />
    <use
       id="use1036"
       inkscape:spray-origin="#rect815"
       xlink:href="#rect815"
       transform="matrix(0.41723909,0,0,0.41723909,-70.670443,187.15381)"
       x="0"
       y="0"
       width="100%"
       height="100%" />
    <use
       id="use1038"
       inkscape:spray-origin="#rect815"
       xlink:href="#rect815"
       transform="matrix(1.1564245,0,0,1.1564245,56.377177,291.52487)"
       x="0"
       y="0"
       width="100%"
       height="100%" />
    <use
       id="use1040"
       inkscape:spray-origin="#rect815"
       xlink:href="#rect815"
       transform="matrix(1.0396348,0,0,1.0396348,-90.736198,277.71712)"
       x="0"
       y="0"
       width="100%"
       height="100%" />
    <use
       id="use1042"
       inkscape:spray-origin="#rect815"
       xlink:href="#rect815"
       transform="matrix(0.90844155,0,0,0.90844155,68.429048,184.22792)"
       x="0"
       y="0"
       width="100%"
       height="100%" />
    <use
       id="use1044"
       inkscape:spray-origin="#rect815"
       xlink:href="#rect815"
       transform="matrix(1.5032152,0,0,1.5032152,22.597315,235.16429)"
       x="0"
       y="0"
       width="100%"
       height="100%" />
    <use
       id="use1046"
       inkscape:spray-origin="#rect815"
       xlink:href="#rect815"
       transform="matrix(0.59350104,0,0,0.59350104,174.06842,222.53105)"
       x="0"
       y="0"
       width="100%"
       height="100%" />
    <use
       id="use1048"
       inkscape:spray-origin="#rect815"
       xlink:href="#rect815"
       transform="matrix(1.3144483,0,0,1.3144483,65.541812,-135.53095)"
       x="0"
       y="0"
       width="100%"
       height="100%" />
    <use
       id="use1050"
       inkscape:spray-origin="#rect815"
       xlink:href="#rect815"
       transform="matrix(0.66898778,0,0,0.66898778,-75.006492,75.990701)"
       x="0"
       y="0"
       width="100%"
       height="100%" />
    <use
       id="use1052"
       inkscape:spray-origin="#rect815"
       xlink:href="#rect815"
       transform="matrix(1.4976043,0,0,1.4976043,-3.1636828,91.904935)"
       x="0"
       y="0"
       width="100%"
       height="100%" />
    <use
       id="use1054"
       inkscape:spray-origin="#rect815"
       xlink:href="#rect815"
       transform="matrix(0.89588779,0,0,0.89588779,-134.28687,-23.384672)"
       x="0"
       y="0"
       width="100%"
       height="100%" />
    <use
       id="use1056"
       inkscape:spray-origin="#rect815"
       xlink:href="#rect815"
       transform="matrix(1.199632,0,0,1.199632,-29.365309,56.441943)"
       x="0"
       y="0"
       width="100%"
       height="100%" />
    <use
       id="use1058"
       inkscape:spray-origin="#rect815"
       xlink:href="#rect815"
       transform="matrix(0.86606179,0,0,0.86606179,16.772039,275.09716)"
       x="0"
       y="0"
       width="100%"
       height="100%" />
    <use
       id="use1060"
       inkscape:spray-origin="#rect815"
       xlink:href="#rect815"
       transform="matrix(0.71516831,0,0,0.71516831,-66.615313,122.53)"
       x="0"
       y="0"
       width="100%"
       height="100%" />
    <use
       id="use1062"
       inkscape:spray-origin="#rect815"
       xlink:href="#rect815"
       transform="matrix(0.74149521,0,0,0.74149521,200.87047,122.72028)"
       x="0"
       y="0"
       width="100%"
       height="100%" />
    <use
       id="use1064"
       inkscape:spray-origin="#rect815"
       xlink:href="#rect815"
       transform="matrix(0.49557251,0,0,0.49557251,67.389268,189.12467)"
       x="0"
       y="0"
       width="100%"
       height="100%" />
    <use
       id="use1066"
       inkscape:spray-origin="#rect815"
       xlink:href="#rect815"
       transform="matrix(0.90362652,0,0,0.90362652,1.3533206,319.85376)"
       x="0"
       y="0"
       width="100%"
       height="100%" />
    <use
       id="use1068"
       inkscape:spray-origin="#rect815"
       xlink:href="#rect815"
       transform="matrix(0.43777419,0,0,0.43777419,-58.127733,236.03834)"
       x="0"
       y="0"
       width="100%"
       height="100%" />
    <use
       id="use1070"
       inkscape:spray-origin="#rect815"
       xlink:href="#rect815"
       transform="matrix(1.246791,0,0,1.246791,40.884729,41.883036)"
       x="0"
       y="0"
       width="100%"
       height="100%" />
    <use
       id="use1072"
       inkscape:spray-origin="#rect815"
       xlink:href="#rect815"
       transform="matrix(1.2394645,0,0,1.2394645,26.257016,39.554828)"
       x="0"
       y="0"
       width="100%"
       height="100%" />
    <use
       id="use1074"
       inkscape:spray-origin="#rect815"
       xlink:href="#rect815"
       transform="matrix(1.3420587,0,0,1.3420587,-6.6667986,-146.55041)"
       x="0"
       y="0"
       width="100%"
       height="100%" />
    <use
       id="use1076"
       inkscape:spray-origin="#rect815"
       xlink:href="#rect815"
       transform="matrix(1.5046997,0,0,1.5046997,-33.139708,-109.78457)"
       x="0"
       y="0"
       width="100%"
       height="100%" />
    <use
       id="use1078"
       inkscape:spray-origin="#rect815"
       xlink:href="#rect815"
       transform="matrix(0.89355567,0,0,0.89355567,43.506979,114.83651)"
       x="0"
       y="0"
       width="100%"
       height="100%" />
    <use
       id="use1080"
       inkscape:spray-origin="#rect815"
       xlink:href="#rect815"
       transform="matrix(1.3370244,0,0,1.3370244,161.92939,135.80102)"
       x="0"
       y="0"
       width="100%"
       height="100%" />
    <use
       id="use1082"
       inkscape:spray-origin="#rect815"
       xlink:href="#rect815"
       transform="matrix(0.7677622,0,0,0.7677622,75.500519,-61.694134)"
       x="0"
       y="0"
       width="100%"
       height="100%" />
    <use
       id="use1084"
       inkscape:spray-origin="#rect815"
       xlink:href="#rect815"
       transform="matrix(1.2748619,0,0,1.2748619,-66.566853,46.416099)"
       x="0"
       y="0"
       width="100%"
       height="100%" />
    <use
       id="use1086"
       inkscape:spray-origin="#rect815"
       xlink:href="#rect815"
       transform="matrix(1.0380073,0,0,1.0380073,-133.25038,-137.0409)"
       x="0"
       y="0"
       width="100%"
       height="100%" />
    <use
       id="use1088"
       inkscape:spray-origin="#rect815"
       xlink:href="#rect815"
       transform="matrix(1.4769084,0,0,1.4769084,-167.39968,-153.07656)"
       x="0"
       y="0"
       width="100%"
       height="100%" />
    <use
       id="use1090"
       inkscape:spray-origin="#rect815"
       xlink:href="#rect815"
       transform="matrix(0.96729019,0,0,0.96729019,-40.352075,-49.86913)"
       x="0"
       y="0"
       width="100%"
       height="100%" />
    <use
       id="use1092"
       inkscape:spray-origin="#rect815"
       xlink:href="#rect815"
       transform="matrix(1.3291814,0,0,1.3291814,-107.81789,111.02866)"
       x="0"
       y="0"
       width="100%"
       height="100%" />
    <use
       id="use1094"
       inkscape:spray-origin="#rect815"
       xlink:href="#rect815"
       transform="matrix(0.48410816,0,0,0.48410816,118.9351,266.76286)"
       x="0"
       y="0"
       width="100%"
       height="100%" />
    <use
       id="use1096"
       inkscape:spray-origin="#rect815"
       xlink:href="#rect815"
       transform="matrix(0.56912479,0,0,0.56912479,204.84878,131.91339)"
       x="0"
       y="0"
       width="100%"
       height="100%" />
    <use
       id="use1098"
       inkscape:spray-origin="#rect815"
       xlink:href="#rect815"
       transform="matrix(1.5739483,0,0,1.5739483,69.64858,-49.228763)"
       x="0"
       y="0"
       width="100%"
       height="100%" />
    <use
       id="use1100"
       inkscape:spray-origin="#rect815"
       xlink:href="#rect815"
       transform="matrix(1.1863126,0,0,1.1863126,91.604854,-153.27943)"
       x="0"
       y="0"
       width="100%"
       height="100%" />
    <use
       id="use1102"
       inkscape:spray-origin="#rect815"
       xlink:href="#rect815"
       transform="matrix(1.0917738,0,0,1.0917738,167.34575,-53.562098)"
       x="0"
       y="0"
       width="100%"
       height="100%" />
    <use
       id="use1104"
       inkscape:spray-origin="#rect815"
       xlink:href="#rect815"
       transform="matrix(0.61186403,0,0,0.61186403,94.088945,-75.934374)"
       x="0"
       y="0"
       width="100%"
       height="100%" />
    <use
       id="use1106"
       inkscape:spray-origin="#rect815"
       xlink:href="#rect815"
       transform="matrix(1.5963423,0,0,1.5963423,27.736352,42.590766)"
       x="0"
       y="0"
       width="100%"
       height="100%" />
    <use
       id="use1108"
       inkscape:spray-origin="#rect815"
       xlink:href="#rect815"
       transform="matrix(1.3358819,0,0,1.3358819,76.989851,182.79707)"
       x="0"
       y="0"
       width="100%"
       height="100%" />
    <use
       id="use1110"
       inkscape:spray-origin="#rect815"
       xlink:href="#rect815"
       transform="matrix(1.1985804,0,0,1.1985804,148.07072,66.878459)"
       x="0"
       y="0"
       width="100%"
       height="100%" />
    <use
       id="use1112"
       inkscape:spray-origin="#rect815"
       xlink:href="#rect815"
       transform="matrix(1.3618166,0,0,1.3618166,179.5124,54.253348)"
       x="0"
       y="0"
       width="100%"
       height="100%" />
    <use
       id="use1114"
       inkscape:spray-origin="#rect815"
       xlink:href="#rect815"
       transform="matrix(1.437321,0,0,1.437321,22.859419,-20.887408)"
       x="0"
       y="0"
       width="100%"
       height="100%" />
    <use
       id="use1116"
       inkscape:spray-origin="#rect815"
       xlink:href="#rect815"
       transform="matrix(1.0411109,0,0,1.0411109,-61.319281,145.07439)"
       x="0"
       y="0"
       width="100%"
       height="100%" />
    <use
       id="use1118"
       inkscape:spray-origin="#rect815"
       xlink:href="#rect815"
       transform="matrix(1.5265721,0,0,1.5265721,5.2849483,54.725075)"
       x="0"
       y="0"
       width="100%"
       height="100%" />
    <use
       id="use1120"
       inkscape:spray-origin="#rect815"
       xlink:href="#rect815"
       transform="matrix(0.90901302,0,0,0.90901302,-54.342855,-101.77764)"
       x="0"
       y="0"
       width="100%"
       height="100%" />
    <use
       id="use1122"
       inkscape:spray-origin="#rect815"
       xlink:href="#rect815"
       transform="matrix(1.4988342,0,0,1.4988342,44.161433,-76.364329)"
       x="0"
       y="0"
       width="100%"
       height="100%" />
    <use
       id="use1124"
       inkscape:spray-origin="#rect815"
       xlink:href="#rect815"
       transform="matrix(0.79956035,0,0,0.79956035,-152.61672,0.83963084)"
       x="0"
       y="0"
       width="100%"
       height="100%" />
    <use
       id="use1126"
       inkscape:spray-origin="#rect815"
       xlink:href="#rect815"
       transform="matrix(1.5089213,0,0,1.5089213,-234.65131,49.949545)"
       x="0"
       y="0"
       width="100%"
       height="100%" />
    <use
       id="use1128"
       inkscape:spray-origin="#rect815"
       xlink:href="#rect815"
       transform="matrix(0.95284947,0,0,0.95284947,60.522356,29.86668)"
       x="0"
       y="0"
       width="100%"
       height="100%" />
    <use
       id="use1130"
       inkscape:spray-origin="#rect815"
       xlink:href="#rect815"
       transform="matrix(1.45574,0,0,1.45574,193.11873,18.135278)"
       x="0"
       y="0"
       width="100%"
       height="100%" />
    <use
       id="use1132"
       inkscape:spray-origin="#rect815"
       xlink:href="#rect815"
       transform="matrix(1.3550179,0,0,1.3550179,-71.170099,-164.98577)"
       x="0"
       y="0"
       width="100%"
       height="100%" />
    <use
       id="use1134"
       inkscape:spray-origin="#rect815"
       xlink:href="#rect815"
       transform="matrix(0.55417888,0,0,0.55417888,45.345784,-22.841697)"
       x="0"
       y="0"
       width="100%"
       height="100%" />
    <use
       id="use1136"
       inkscape:spray-origin="#rect815"
       xlink:href="#rect815"
       transform="matrix(0.47810266,0,0,0.47810266,-61.263985,100.30649)"
       x="0"
       y="0"
       width="100%"
       height="100%" />
    <use
       id="use1138"
       inkscape:spray-origin="#rect815"
       xlink:href="#rect815"
       transform="matrix(1.0501667,0,0,1.0501667,-138.18374,127.05022)"
       x="0"
       y="0"
       width="100%"
       height="100%" />
    <use
       id="use1140"
       inkscape:spray-origin="#rect815"
       xlink:href="#rect815"
       transform="matrix(1.0653851,0,0,1.0653851,-109.90456,194.04388)"
       x="0"
       y="0"
       width="100%"
       height="100%" />
    <use
       id="use1142"
       inkscape:spray-origin="#rect815"
       xlink:href="#rect815"
       transform="matrix(1.344304,0,0,1.344304,174.95837,193.25729)"
       x="0"
       y="0"
       width="100%"
       height="100%" />
    <use
       id="use1144"
       inkscape:spray-origin="#rect815"
       xlink:href="#rect815"
       transform="matrix(0.92452128,0,0,0.92452128,230.52241,57.2788)"
       x="0"
       y="0"
       width="100%"
       height="100%" />
    <use
       id="use1146"
       inkscape:spray-origin="#rect815"
       xlink:href="#rect815"
       transform="matrix(0.83294767,0,0,0.83294767,209.79425,-43.226871)"
       x="0"
       y="0"
       width="100%"
       height="100%" />
    <use
       id="use1148"
       inkscape:spray-origin="#rect815"
       xlink:href="#rect815"
       transform="matrix(0.70994864,0,0,0.70994864,19.230736,-117.65879)"
       x="0"
       y="0"
       width="100%"
       height="100%" />
    <use
       id="use1150"
       inkscape:spray-origin="#rect815"
       xlink:href="#rect815"
       transform="matrix(1.5200302,0,0,1.5200302,-62.134697,-182.80582)"
       x="0"
       y="0"
       width="100%"
       height="100%" />
    <use
       id="use1152"
       inkscape:spray-origin="#rect815"
       xlink:href="#rect815"
       transform="matrix(1.15016,0,0,1.15016,-128.10773,-135.67551)"
       x="0"
       y="0"
       width="100%"
       height="100%" />
    <use
       id="use1154"
       inkscape:spray-origin="#rect815"
       xlink:href="#rect815"
       transform="matrix(0.45215993,0,0,0.45215993,143.28996,53.686061)"
       x="0"
       y="0"
       width="100%"
       height="100%" />
    <use
       id="use1156"
       inkscape:spray-origin="#rect815"
       xlink:href="#rect815"
       transform="matrix(0.53939728,0,0,0.53939728,246.74127,131.86583)"
       x="0"
       y="0"
       width="100%"
       height="100%" />
    <use
       id="use1158"
       inkscape:spray-origin="#rect815"
       xlink:href="#rect815"
       transform="matrix(1.0565118,0,0,1.0565118,164.19109,-123.06975)"
       x="0"
       y="0"
       width="100%"
       height="100%" />
    <use
       id="use1160"
       inkscape:spray-origin="#rect815"
       xlink:href="#rect815"
       transform="matrix(0.73777922,0,0,0.73777922,-73.625499,-64.594479)"
       x="0"
       y="0"
       width="100%"
       height="100%" />
    <use
       id="use1162"
       inkscape:spray-origin="#rect815"
       xlink:href="#rect815"
       transform="matrix(1.3030391,0,0,1.3030391,-155.01531,-141.1576)"
       x="0"
       y="0"
       width="100%"
       height="100%" />
    <use
       id="use1164"
       inkscape:spray-origin="#rect815"
       xlink:href="#rect815"
       transform="matrix(1.2137001,0,0,1.2137001,-47.389313,70.166938)"
       x="0"
       y="0"
       width="100%"
       height="100%" />
    <use
       id="use1166"
       inkscape:spray-origin="#rect815"
       xlink:href="#rect815"
       transform="matrix(1.442291,0,0,1.442291,143.1609,36.619729)"
       x="0"
       y="0"
       width="100%"
       height="100%" />
    <use
       id="use1168"
       inkscape:spray-origin="#rect815"
       xlink:href="#rect815"
       transform="matrix(1.3447113,0,0,1.3447113,161.86399,-126.12242)"
       x="0"
       y="0"
       width="100%"
       height="100%" />
    <use
       id="use1170"
       inkscape:spray-origin="#rect815"
       xlink:href="#rect815"
       transform="matrix(0.47446624,0,0,0.47446624,141.5306,-73.422699)"
       x="0"
       y="0"
       width="100%"
       height="100%" />
    <use
       id="use1174"
       inkscape:spray-origin="#rect815"
       xlink:href="#rect815"
       transform="matrix(0.48444474,0,0,0.48444474,109.04416,-17.435498)"
       x="0"
       y="0"
       width="100%"
       height="100%" />
    <use
       id="use1176"
       inkscape:spray-origin="#rect815"
       xlink:href="#rect815"
       transform="matrix(1.5655778,0,0,1.5655778,-190.91643,-64.998086)"
       x="0"
       y="0"
       width="100%"
       height="100%" />
    <use
       id="use1180"
       inkscape:spray-origin="#rect815"
       xlink:href="#rect815"
       transform="matrix(0.75613439,0,0,0.75613439,168.86614,9.108867)"
       x="0"
       y="0"
       width="100%"
       height="100%" />
    <use
       id="use1182"
       inkscape:spray-origin="#rect815"
       xlink:href="#rect815"
       transform="matrix(1.5889787,0,0,1.5889787,-137.44931,-69.871935)"
       x="0"
       y="0"
       width="100%"
       height="100%" />
    <use
       id="use1184"
       inkscape:spray-origin="#rect815"
       xlink:href="#rect815"
       transform="matrix(1.5833494,0,0,1.5833494,-71.773604,192.76902)"
       x="0"
       y="0"
       width="100%"
       height="100%" />
    <use
       id="use1186"
       inkscape:spray-origin="#rect815"
       xlink:href="#rect815"
       transform="matrix(1.2212083,0,0,1.2212083,-26.250795,160.36335)"
       x="0"
       y="0"
       width="100%"
       height="100%" />
    <use
       id="use1188"
       inkscape:spray-origin="#rect815"
       xlink:href="#rect815"
       transform="matrix(1.3074241,0,0,1.3074241,-86.385369,92.059982)"
       x="0"
       y="0"
       width="100%"
       height="100%" />
    <use
       id="use1190"
       inkscape:spray-origin="#rect815"
       xlink:href="#rect815"
       transform="matrix(0.43063413,0,0,0.43063413,136.06892,126.13622)"
       x="0"
       y="0"
       width="100%"
       height="100%" />
    <use
       id="use1192"
       inkscape:spray-origin="#rect815"
       xlink:href="#rect815"
       transform="matrix(1.3224666,0,0,1.3224666,5.4336481,159.60769)"
       x="0"
       y="0"
       width="100%"
       height="100%" />
    <use
       id="use1194"
       inkscape:spray-origin="#rect815"
       xlink:href="#rect815"
       transform="matrix(0.52843811,0,0,0.52843811,114.5575,135.84583)"
       x="0"
       y="0"
       width="100%"
       height="100%" />
    <use
       id="use1196"
       inkscape:spray-origin="#rect815"
       xlink:href="#rect815"
       transform="matrix(0.5669532,0,0,0.5669532,-61.257285,129.6853)"
       x="0"
       y="0"
       width="100%"
       height="100%" />
    <use
       id="use1198"
       inkscape:spray-origin="#rect815"
       xlink:href="#rect815"
       transform="matrix(0.78690536,0,0,0.78690536,54.670142,98.433427)"
       x="0"
       y="0"
       width="100%"
       height="100%" />
    <use
       id="use1200"
       inkscape:spray-origin="#rect815"
       xlink:href="#rect815"
       transform="matrix(0.7955425,0,0,0.7955425,93.208892,22.544208)"
       x="0"
       y="0"
       width="100%"
       height="100%" />
    <use
       id="use1202"
       inkscape:spray-origin="#rect815"
       xlink:href="#rect815"
       transform="matrix(1.4787214,0,0,1.4787214,-90.208065,161.71407)"
       x="0"
       y="0"
       width="100%"
       height="100%" />
    <use
       id="use1204"
       inkscape:spray-origin="#rect815"
       xlink:href="#rect815"
       transform="matrix(0.86927507,0,0,0.86927507,-169.1051,37.390418)"
       x="0"
       y="0"
       width="100%"
       height="100%" />
    <use
       id="use1206"
       inkscape:spray-origin="#rect815"
       xlink:href="#rect815"
       transform="matrix(0.95894796,0,0,0.95894796,-165.31464,5.396297)"
       x="0"
       y="0"
       width="100%"
       height="100%" />
    <use
       id="use1208"
       inkscape:spray-origin="#rect815"
       xlink:href="#rect815"
       transform="matrix(0.68526474,0,0,0.68526474,1.6954057,-106.53078)"
       x="0"
       y="0"
       width="100%"
       height="100%" />
    <use
       id="use1210"
       inkscape:spray-origin="#rect815"
       xlink:href="#rect815"
       transform="matrix(0.48804545,0,0,0.48804545,4.3921827,-111.07378)"
       x="0"
       y="0"
       width="100%"
       height="100%" />
    <use
       id="use1212"
       inkscape:spray-origin="#rect815"
       xlink:href="#rect815"
       transform="matrix(1.3072738,0,0,1.3072738,-171.30193,-44.626158)"
       x="0"
       y="0"
       width="100%"
       height="100%" />
  </g>
</svg>
