<?xml version="1.0" encoding="UTF-8" standalone="no"?><!DOCTYPE svg PUBLIC "-//W3C//DTD SVG 1.1//EN" "http://www.w3.org/Graphics/SVG/1.1/DTD/svg11.dtd"><svg width="100%" height="100%" viewBox="0 0 285 99" version="1.1" xmlns="http://www.w3.org/2000/svg" xmlns:xlink="http://www.w3.org/1999/xlink" xml:space="preserve" xmlns:serif="http://www.serif.com/" style="fill-rule:evenodd;clip-rule:evenodd;stroke-linejoin:round;stroke-miterlimit:1.41421;"><g id="Background"><rect id="rect1513" x="-6.061" y="0" width="296.606" height="98.869" style="fill:#ffbf00;"/></g><g id="Darken"><path d="M170.324,55.453l-84.123,0l0,-2.689l84.123,0l0,2.689Zm-84.123,-2.689l-84.122,0l0,-2.689l84.122,0l0,2.689Zm-42.061,-5.378l-42.061,0l0,-2.688l42.061,0l0,2.688Zm126.184,-2.688l-42.061,0l0,-2.689l42.061,0l0,2.689Zm-42.061,-2.689l-84.123,0l0,-2.689l84.123,0l0,2.689Zm42.061,-5.378l-84.123,0l0,-2.689l84.123,0l0,2.689Zm-126.184,-2.689l-42.061,0l0,-2.689l42.061,0l0,2.689Zm126.184,-2.689l-42.061,0l0,-2.689l42.061,0l0,2.689Zm-84.123,0l-42.061,0l0,-2.689l42.061,0l0,2.689Zm-42.061,-2.689l-42.061,0l0,-2.689l42.061,0l0,2.689Zm84.123,0l-42.062,0l0,-2.689l42.062,0l0,2.689Zm-42.062,-2.689l-42.061,0l0,-2.688l42.061,0l0,2.688Z" style="fill:#ffae00;"/></g><g id="Darken-Slightly" serif:id="Darken Slightly"><path d="M224.552,88.427l-57.708,0l0,-1.845l57.708,0l0,1.845Zm-57.708,-1.845l-57.707,0l0,-1.844l57.707,0l0,1.844Zm-28.853,-3.689l-28.854,0l0,-1.845l28.854,0l0,1.845Zm86.561,-1.845l-28.854,0l0,-1.844l28.854,0l0,1.844Zm-28.854,-1.844l-57.707,0l0,-1.845l57.707,0l0,1.845Zm28.854,-3.689l-57.708,0l0,-1.845l57.708,0l0,1.845Zm-86.561,-1.845l-28.854,0l0,-1.844l28.854,0l0,1.844Zm86.561,-1.844l-28.854,0l0,-1.845l28.854,0l0,1.845Zm-57.708,0l-28.853,0l0,-1.845l28.853,0l0,1.845Zm-28.853,-1.845l-28.854,0l0,-1.845l28.854,0l0,1.845Zm57.707,0l-28.854,0l0,-1.845l28.854,0l0,1.845Zm-28.854,-1.845l-28.853,0l0,-1.844l28.853,0l0,1.844Z" style="fill:#ffb500;"/></g><g id="Darken-Barely" serif:id="Darken Barely"><path d="M305.878,39.32l-78.298,0l0,-3.013l78.298,0l0,3.013Zm-78.298,-3.013l-78.298,0l0,-3.014l78.298,0l0,3.014Zm-39.149,-6.027l-39.149,0l0,-3.013l39.149,0l0,3.013Zm117.447,-3.013l-39.149,0l0,-3.013l39.149,0l0,3.013Zm-39.149,-3.013l-78.298,0l0,-3.013l78.298,0l0,3.013Zm39.149,-6.026l-78.298,0l0,-3.014l78.298,0l0,3.014Zm-117.447,-3.014l-39.149,0l0,-3.013l39.149,0l0,3.013Zm117.447,-3.013l-39.149,0l0,-3.013l39.149,0l0,3.013Zm-78.298,0l-39.149,0l0,-3.013l39.149,0l0,3.013Zm-39.149,-3.013l-39.149,0l0,-3.013l39.149,0l0,3.013Zm78.298,0l-39.149,0l0,-3.013l39.149,0l0,3.013Zm-39.149,-3.013l-39.149,0l0,-3.013l39.149,0l0,3.013Z" style="fill:#ffb400;"/></g><g id="Rectangles"><path id="rect815" d="M254.991,50.775c0,-0.665 -0.54,-1.205 -1.206,-1.205l-4.515,0c-0.665,0 -1.205,0.54 -1.205,1.205l0,4.516c0,0.665 0.54,1.205 1.205,1.205l4.515,0c0.666,0 1.206,-0.54 1.206,-1.205l0,-4.516Z" style="fill:url(#_Linear1);"/><path id="use2361" d="M1.495,29.394c0,-0.666 -0.54,-1.206 -1.206,-1.206l-1.029,0c-0.666,0 -1.206,0.54 -1.206,1.206l0,1.029c0,0.666 0.54,1.206 1.206,1.206l1.029,0c0.666,0 1.206,-0.54 1.206,-1.206l0,-1.029Z" style="fill:url(#_Linear2);"/><path id="use2363" d="M6.581,55.126c0,-0.665 -0.541,-1.205 -1.206,-1.205l-6.547,0c-0.666,0 -1.206,0.54 -1.206,1.205l0,6.547c0,0.666 0.54,1.206 1.206,1.206l6.547,0c0.665,0 1.206,-0.54 1.206,-1.206l0,-6.547Z" style="fill:url(#_Linear3);"/><path id="use2365" d="M30.402,31.925c0,-0.666 -0.54,-1.206 -1.206,-1.206l-3.081,0c-0.666,0 -1.206,0.54 -1.206,1.206l0,3.081c0,0.666 0.54,1.206 1.206,1.206l3.081,0c0.666,0 1.206,-0.54 1.206,-1.206l0,-3.081Z" style="fill:url(#_Linear4);"/><path id="use2369" d="M42.363,60.918c0,-0.665 -0.54,-1.205 -1.205,-1.205l-4.044,0c-0.665,0 -1.206,0.54 -1.206,1.205l0,4.044c0,0.665 0.541,1.206 1.206,1.206l4.044,0c0.665,0 1.205,-0.541 1.205,-1.206l0,-4.044Z" style="fill:url(#_Linear5);"/><path id="use2371" d="M33.076,49.281c0,-0.665 -0.54,-1.206 -1.205,-1.206l-3.754,0c-0.665,0 -1.205,0.541 -1.205,1.206l0,3.754c0,0.665 0.54,1.205 1.205,1.205l3.754,0c0.665,0 1.205,-0.54 1.205,-1.205l0,-3.754Z" style="fill:url(#_Linear6);"/><path id="use2381" d="M146.069,67.272c0,-0.665 -0.541,-1.206 -1.206,-1.206l-6.74,0c-0.665,0 -1.205,0.541 -1.205,1.206l0,6.74c0,0.665 0.54,1.205 1.205,1.205l6.74,0c0.665,0 1.206,-0.54 1.206,-1.205l0,-6.74Z" style="fill:url(#_Linear7);"/><path id="use2385" d="M42.56,-6.595c0,-0.665 -0.541,-1.206 -1.206,-1.206l-4.707,0c-0.665,0 -1.205,0.541 -1.205,1.206l0,4.707c0,0.665 0.54,1.205 1.205,1.205l4.707,0c0.665,0 1.206,-0.54 1.206,-1.205l0,-4.707Z" style="fill:url(#_Linear8);"/><path id="use2387" d="M46.5,22.037c0,-0.666 -0.54,-1.206 -1.205,-1.206l-7.419,0c-0.666,0 -1.206,0.54 -1.206,1.206l0,7.418c0,0.666 0.54,1.206 1.206,1.206l7.419,0c0.665,0 1.205,-0.54 1.205,-1.206l0,-7.418Z" style="fill:url(#_Linear9);"/><path id="use2389" d="M55.533,55.41c0,-0.665 -0.54,-1.205 -1.206,-1.205l-2.15,0c-0.666,0 -1.206,0.54 -1.206,1.205l0,2.151c0,0.666 0.54,1.206 1.206,1.206l2.15,0c0.666,0 1.206,-0.54 1.206,-1.206l0,-2.151Z" style="fill:url(#_Linear10);"/><path id="use2391" d="M135.1,45.75c0,-0.665 -0.54,-1.206 -1.206,-1.206l-2.233,0c-0.665,0 -1.205,0.541 -1.205,1.206l0,2.233c0,0.666 0.54,1.206 1.205,1.206l2.233,0c0.666,0 1.206,-0.54 1.206,-1.206l0,-2.233Z" style="fill:url(#_Linear11);"/><path id="use2399" d="M140.895,13.208c0,-0.665 -0.54,-1.205 -1.205,-1.205l-2.702,0c-0.665,0 -1.206,0.54 -1.206,1.205l0,2.702c0,0.666 0.541,1.206 1.206,1.206l2.702,0c0.665,0 1.205,-0.54 1.205,-1.206l0,-2.702Z" style="fill:url(#_Linear12);"/><path id="use2401" d="M110.446,-2.063c0,-0.666 -0.54,-1.206 -1.206,-1.206l-2.136,0c-0.666,0 -1.206,0.54 -1.206,1.206l0,2.137c0,0.665 0.54,1.205 1.206,1.205l2.136,0c0.666,0 1.206,-0.54 1.206,-1.205l0,-2.137Z" style="fill:url(#_Linear13);"/><path id="use2403" d="M99.472,35.88c0,-0.665 -0.54,-1.205 -1.205,-1.205l-5.93,0c-0.665,0 -1.206,0.54 -1.206,1.205l0,5.93c0,0.665 0.541,1.205 1.206,1.205l5.93,0c0.665,0 1.205,-0.54 1.205,-1.205l0,-5.93Z" style="fill:url(#_Linear14);"/><path id="use2405" d="M121.152,50.904c0,-0.666 -0.54,-1.206 -1.205,-1.206l-6.814,0c-0.665,0 -1.205,0.54 -1.205,1.206l0,6.813c0,0.666 0.54,1.206 1.205,1.206l6.814,0c0.665,0 1.205,-0.54 1.205,-1.206l0,-6.813Z" style="fill:url(#_Linear15);"/><path id="use2407" d="M101.274,87.16c0,-0.665 -0.54,-1.205 -1.205,-1.205l-5.034,0c-0.665,0 -1.205,0.54 -1.205,1.205l0,5.034c0,0.665 0.54,1.206 1.205,1.206l5.034,0c0.665,0 1.205,-0.541 1.205,-1.206l0,-5.034Z" style="fill:url(#_Linear16);"/><path id="use2409" d="M138.351,68.633c0,-0.665 -0.54,-1.206 -1.205,-1.206l-5.578,0c-0.666,0 -1.206,0.541 -1.206,1.206l0,5.578c0,0.665 0.54,1.206 1.206,1.206l5.578,0c0.665,0 1.205,-0.541 1.205,-1.206l0,-5.578Z" style="fill:url(#_Linear17);"/><path id="use2415" d="M266.606,72.446c0,-0.665 -0.541,-1.205 -1.206,-1.205l-4.517,0c-0.666,0 -1.206,0.54 -1.206,1.205l0,4.517c0,0.666 0.54,1.206 1.206,1.206l4.517,0c0.665,0 1.206,-0.54 1.206,-1.206l0,-4.517Z" style="fill:url(#_Linear18);"/><path id="use2417" d="M262.723,16.145c0,-0.665 -0.54,-1.206 -1.205,-1.206l-1.84,0c-0.665,0 -1.205,0.541 -1.205,1.206l0,1.839c0,0.666 0.54,1.206 1.205,1.206l1.84,0c0.665,0 1.205,-0.54 1.205,-1.206l0,-1.839Z" style="fill:url(#_Linear19);"/><path id="use2421" d="M196.399,24.331c0,-0.666 -0.54,-1.206 -1.205,-1.206l-2.121,0c-0.666,0 -1.206,0.54 -1.206,1.206l0,2.121c0,0.665 0.54,1.205 1.206,1.205l2.121,0c0.665,0 1.205,-0.54 1.205,-1.205l0,-2.121Z" style="fill:url(#_Linear20);"/><path id="use2423" d="M244.714,38.339c0,-0.666 -0.541,-1.206 -1.206,-1.206l-5.147,0c-0.665,0 -1.206,0.54 -1.206,1.206l0,5.147c0,0.665 0.541,1.205 1.206,1.205l5.147,0c0.665,0 1.206,-0.54 1.206,-1.205l0,-5.147Z" style="fill:url(#_Linear21);"/><path id="use2425" d="M247.423,58.902c0,-0.665 -0.54,-1.206 -1.205,-1.206l-0.848,0c-0.665,0 -1.205,0.541 -1.205,1.206l0,0.848c0,0.665 0.54,1.205 1.205,1.205l0.848,0c0.665,0 1.205,-0.54 1.205,-1.205l0,-0.848Z" style="fill:url(#_Linear22);"/><path id="use2431" d="M250.298,46.571c0,-0.665 -0.54,-1.205 -1.206,-1.205l-0.921,0c-0.665,0 -1.205,0.54 -1.205,1.205l0,0.921c0,0.666 0.54,1.206 1.205,1.206l0.921,0c0.666,0 1.206,-0.54 1.206,-1.206l0,-0.921Z" style="fill:url(#_Linear23);"/><path id="use2435" d="M206.178,37.506c0,-0.665 -0.541,-1.205 -1.206,-1.205l-2.723,0c-0.665,0 -1.205,0.54 -1.205,1.205l0,2.723c0,0.665 0.54,1.205 1.205,1.205l2.723,0c0.665,0 1.206,-0.54 1.206,-1.205l0,-2.723Z" style="fill:url(#_Linear24);"/><path id="use2437" d="M129.888,97.942c0,-0.666 -0.54,-1.206 -1.205,-1.206l-0.709,0c-0.665,0 -1.206,0.54 -1.206,1.206l0,0.709c0,0.665 0.541,1.205 1.206,1.205l0.709,0c0.665,0 1.205,-0.54 1.205,-1.205l0,-0.709Z" style="fill:url(#_Linear25);"/><path id="use2439" d="M179.796,74.174c0,-0.665 -0.54,-1.206 -1.206,-1.206l-0.925,0c-0.665,0 -1.206,0.541 -1.206,1.206l0,0.925c0,0.666 0.541,1.206 1.206,1.206l0.925,0c0.666,0 1.206,-0.54 1.206,-1.206l0,-0.925Z" style="fill:url(#_Linear26);"/><path id="use2447" d="M119.347,85.721c0,-0.665 -0.54,-1.206 -1.206,-1.206l-1.687,0c-0.665,0 -1.206,0.541 -1.206,1.206l0,1.687c0,0.666 0.541,1.206 1.206,1.206l1.687,0c0.666,0 1.206,-0.54 1.206,-1.206l0,-1.687Z" style="fill:url(#_Linear27);"/><path id="use2449" d="M55.641,25.609c0,-0.665 -0.54,-1.205 -1.206,-1.205l-2.251,0c-0.665,0 -1.206,0.54 -1.206,1.205l0,2.252c0,0.665 0.541,1.206 1.206,1.206l2.251,0c0.666,0 1.206,-0.541 1.206,-1.206l0,-2.252Z" style="fill:url(#_Linear28);"/><path id="use2451" d="M34.891,2.014c0,-0.665 -0.54,-1.205 -1.206,-1.205l-6.399,0c-0.665,0 -1.205,0.54 -1.205,1.205l0,6.399c0,0.666 0.54,1.206 1.205,1.206l6.399,0c0.666,0 1.206,-0.54 1.206,-1.206l0,-6.399Z" style="fill:url(#_Linear29);"/><path id="use2455" d="M3.614,47.165c0,-0.666 -0.541,-1.206 -1.206,-1.206l-3.821,0c-0.666,0 -1.206,0.54 -1.206,1.206l0,3.821c0,0.666 0.54,1.206 1.206,1.206l3.821,0c0.665,0 1.206,-0.54 1.206,-1.206l0,-3.821Z" style="fill:url(#_Linear30);"/><path id="use2457" d="M31.283,26.652c0,-0.665 -0.54,-1.205 -1.205,-1.205l-2.8,0c-0.665,0 -1.205,0.54 -1.205,1.205l0,2.8c0,0.665 0.54,1.205 1.205,1.205l2.8,0c0.665,0 1.205,-0.54 1.205,-1.205l0,-2.8Z" style="fill:url(#_Linear31);"/><path id="use2459" d="M35.171,27.096c0,-0.665 -0.54,-1.205 -1.206,-1.205l-5.061,0c-0.666,0 -1.206,0.54 -1.206,1.205l0,5.062c0,0.665 0.54,1.206 1.206,1.206l5.061,0c0.666,0 1.206,-0.541 1.206,-1.206l0,-5.062Z" style="fill:url(#_Linear32);"/><path id="use2465" d="M281.282,24.411c0,-0.665 -0.54,-1.205 -1.206,-1.205l-6.585,0c-0.665,0 -1.206,0.54 -1.206,1.205l0,6.585c0,0.666 0.541,1.206 1.206,1.206l6.585,0c0.666,0 1.206,-0.54 1.206,-1.206l0,-6.585Z" style="fill:url(#_Linear33);"/><path id="use2469" d="M243.145,63.995c0,-0.665 -0.54,-1.205 -1.205,-1.205l-6.414,0c-0.665,0 -1.205,0.54 -1.205,1.205l0,6.414c0,0.665 0.54,1.205 1.205,1.205l6.414,0c0.665,0 1.205,-0.54 1.205,-1.205l0,-6.414Z" style="fill:url(#_Linear34);"/><path id="use2471" d="M101.047,56.274c0,-0.666 -0.54,-1.206 -1.205,-1.206l-4.335,0c-0.665,0 -1.205,0.54 -1.205,1.206l0,4.334c0,0.665 0.54,1.205 1.205,1.205l4.335,0c0.665,0 1.205,-0.54 1.205,-1.205l0,-4.334Z" style="fill:url(#_Linear35);"/><path id="use2473" d="M49.364,47.073c0,-0.666 -0.54,-1.206 -1.205,-1.206l-3.358,0c-0.666,0 -1.206,0.54 -1.206,1.206l0,3.358c0,0.665 0.54,1.205 1.206,1.205l3.358,0c0.665,0 1.205,-0.54 1.205,-1.205l0,-3.358Z" style="fill:url(#_Linear36);"/><path id="use2475" d="M90.061,15.435c0,-0.666 -0.541,-1.206 -1.206,-1.206l-2.805,0c-0.666,0 -1.206,0.54 -1.206,1.206l0,2.805c0,0.666 0.54,1.206 1.206,1.206l2.805,0c0.665,0 1.206,-0.54 1.206,-1.206l0,-2.805Z" style="fill:url(#_Linear37);"/><path id="use2477" d="M112.449,30.447c0,-0.665 -0.54,-1.205 -1.206,-1.205l-1.107,0c-0.666,0 -1.206,0.54 -1.206,1.205l0,1.108c0,0.665 0.54,1.205 1.206,1.205l1.107,0c0.666,0 1.206,-0.54 1.206,-1.205l0,-1.108Z" style="fill:url(#_Linear38);"/><path id="use2479" d="M171.906,29.706c0,-0.666 -0.54,-1.206 -1.206,-1.206l-8.259,0c-0.665,0 -1.205,0.54 -1.205,1.206l0,8.259c0,0.665 0.54,1.205 1.205,1.205l8.259,0c0.666,0 1.206,-0.54 1.206,-1.205l0,-8.259Z" style="fill:url(#_Linear39);"/><path id="use2481" d="M183.337,54.98c0,-0.665 -0.54,-1.206 -1.205,-1.206l-2.106,0c-0.665,0 -1.205,0.541 -1.205,1.206l0,2.106c0,0.665 0.54,1.205 1.205,1.205l2.106,0c0.665,0 1.205,-0.54 1.205,-1.205l0,-2.106Z" style="fill:url(#_Linear40);"/><path id="use2483" d="M218.539,74.621c0,-0.666 -0.54,-1.206 -1.206,-1.206l-4.683,0c-0.666,0 -1.206,0.54 -1.206,1.206l0,4.683c0,0.666 0.54,1.206 1.206,1.206l4.683,0c0.666,0 1.206,-0.54 1.206,-1.206l0,-4.683Z" style="fill:url(#_Linear41);"/><path id="use2485" d="M247.999,94.995c0,-0.666 -0.54,-1.206 -1.206,-1.206l-7.907,0c-0.666,0 -1.206,0.54 -1.206,1.206l0,7.907c0,0.665 0.54,1.206 1.206,1.206l7.907,0c0.666,0 1.206,-0.541 1.206,-1.206l0,-7.907Z" style="fill:url(#_Linear42);"/><path id="use2487" d="M283.966,63.822c0,-0.665 -0.54,-1.206 -1.205,-1.206l-4.822,0c-0.665,0 -1.206,0.541 -1.206,1.206l0,4.822c0,0.665 0.541,1.205 1.206,1.205l4.822,0c0.665,0 1.205,-0.54 1.205,-1.205l0,-4.822Z" style="fill:url(#_Linear43);"/><path id="use2489" d="M271.756,81.236c0,-0.666 -0.54,-1.206 -1.205,-1.206l-1.686,0c-0.665,0 -1.205,0.54 -1.205,1.206l0,1.685c0,0.666 0.54,1.206 1.205,1.206l1.686,0c0.665,0 1.205,-0.54 1.205,-1.206l0,-1.685Z" style="fill:url(#_Linear44);"/><path id="use2491" d="M216.846,33.626c0,-0.666 -0.54,-1.206 -1.206,-1.206l-3.401,0c-0.665,0 -1.205,0.54 -1.205,1.206l0,3.401c0,0.665 0.54,1.205 1.205,1.205l3.401,0c0.666,0 1.206,-0.54 1.206,-1.205l0,-3.401Z" style="fill:url(#_Linear45);"/><path id="use2493" d="M227.598,4.046c0,-0.665 -0.54,-1.205 -1.205,-1.205l-5.509,0c-0.665,0 -1.205,0.54 -1.205,1.205l0,5.509c0,0.665 0.54,1.206 1.205,1.206l5.509,0c0.665,0 1.205,-0.541 1.205,-1.206l0,-5.509Z" style="fill:url(#_Linear46);"/><path id="use2501" d="M13.997,38.43c0,-0.666 -0.54,-1.206 -1.206,-1.206l-5.077,0c-0.666,0 -1.206,0.54 -1.206,1.206l0,5.077c0,0.666 0.54,1.206 1.206,1.206l5.077,0c0.666,0 1.206,-0.54 1.206,-1.206l0,-5.077Z" style="fill:url(#_Linear47);"/><path id="use2503" d="M54.408,74.256c0,-0.665 -0.54,-1.206 -1.205,-1.206l-7.234,0c-0.665,0 -1.205,0.541 -1.205,1.206l0,7.233c0,0.666 0.54,1.206 1.205,1.206l7.234,0c0.665,0 1.205,-0.54 1.205,-1.206l0,-7.233Z" style="fill:url(#_Linear48);"/></g><g id="Lighten--main-" serif:id="Lighten (main)"><path d="M249.424,89.893l-107.182,0l0,-6.743l107.182,0l0,6.743Zm-107.182,-6.743l-107.181,0l0,-6.743l107.181,0l0,6.743Zm-53.591,-13.487l-53.59,0l0,-6.743l53.59,0l0,6.743Zm160.773,-6.743l-53.591,0l0,-6.743l53.591,0l0,6.743Zm-53.591,-6.743l-107.182,0l0,-6.743l107.182,0l0,6.743Zm53.591,-13.486l-107.182,0l0,-6.743l107.182,0l0,6.743Zm-160.773,-6.743l-53.59,0l0,-6.743l53.59,0l0,6.743Zm160.773,-6.743l-53.591,0l0,-6.743l53.591,0l0,6.743Zm-107.182,0l-53.591,0l0,-6.743l53.591,0l0,6.743Zm-53.591,-6.743l-53.59,0l0,-6.743l53.59,0l0,6.743Zm107.182,0l-53.591,0l0,-6.743l53.591,0l0,6.743Zm-53.591,-6.743l-53.591,0l0,-6.743l53.591,0l0,6.743Z" style="fill:#ffe100;"/></g><defs><linearGradient id="_Linear1" x1="0" y1="0" x2="1" y2="0" gradientUnits="userSpaceOnUse" gradientTransform="matrix(4.27621e-16,6.98358,-6.98358,4.27621e-16,251.602,49.5866)"><stop offset="0" style="stop-color:#fff;stop-opacity:0.231373"/><stop offset="1" style="stop-color:#fff;stop-opacity:0.0509804"/></linearGradient><linearGradient id="_Linear2" x1="0" y1="0" x2="1" y2="0" gradientUnits="userSpaceOnUse" gradientTransform="matrix(2.12429e-16,3.46923,-3.46923,2.12429e-16,-0.188826,28.1963)"><stop offset="0" style="stop-color:#fff;stop-opacity:0.231373"/><stop offset="1" style="stop-color:#fff;stop-opacity:0.0509804"/></linearGradient><linearGradient id="_Linear3" x1="0" y1="0" x2="1" y2="0" gradientUnits="userSpaceOnUse" gradientTransform="matrix(5.53092e-16,9.03268,-9.03268,5.53092e-16,2.19712,53.9421)"><stop offset="0" style="stop-color:#fff;stop-opacity:0.231373"/><stop offset="1" style="stop-color:#fff;stop-opacity:0.0509804"/></linearGradient><linearGradient id="_Linear4" x1="0" y1="0" x2="1" y2="0" gradientUnits="userSpaceOnUse" gradientTransform="matrix(3.39132e-16,5.53844,-5.53844,3.39132e-16,27.7142,30.7323)"><stop offset="0" style="stop-color:#fff;stop-opacity:0.231373"/><stop offset="1" style="stop-color:#fff;stop-opacity:0.0509804"/></linearGradient><linearGradient id="_Linear5" x1="0" y1="0" x2="1" y2="0" gradientUnits="userSpaceOnUse" gradientTransform="matrix(3.98513e-16,6.50821,-6.50821,3.98513e-16,39.2048,59.7283)"><stop offset="0" style="stop-color:#fff;stop-opacity:0.231373"/><stop offset="1" style="stop-color:#fff;stop-opacity:0.0509804"/></linearGradient><linearGradient id="_Linear6" x1="0" y1="0" x2="1" y2="0" gradientUnits="userSpaceOnUse" gradientTransform="matrix(3.80611e-16,6.21585,-6.21585,3.80611e-16,30.0599,48.0902)"><stop offset="0" style="stop-color:#fff;stop-opacity:0.231373"/><stop offset="1" style="stop-color:#fff;stop-opacity:0.0509804"/></linearGradient><linearGradient id="_Linear7" x1="0" y1="0" x2="1" y2="0" gradientUnits="userSpaceOnUse" gradientTransform="matrix(5.64959e-16,9.22649,-9.22649,5.64959e-16,141.591,66.0884)"><stop offset="0" style="stop-color:#fff;stop-opacity:0.231373"/><stop offset="1" style="stop-color:#fff;stop-opacity:0.0509804"/></linearGradient><linearGradient id="_Linear8" x1="0" y1="0" x2="1" y2="0" gradientUnits="userSpaceOnUse" gradientTransform="matrix(4.39453e-16,7.17682,-7.17682,4.39453e-16,39.0767,-7.78348)"><stop offset="0" style="stop-color:#fff;stop-opacity:0.231373"/><stop offset="1" style="stop-color:#fff;stop-opacity:0.0509804"/></linearGradient><linearGradient id="_Linear9" x1="0" y1="0" x2="1" y2="0" gradientUnits="userSpaceOnUse" gradientTransform="matrix(6.0689e-16,9.91127,-9.91127,6.0689e-16,41.6903,20.8549)"><stop offset="0" style="stop-color:#fff;stop-opacity:0.231373"/><stop offset="1" style="stop-color:#fff;stop-opacity:0.0509804"/></linearGradient><linearGradient id="_Linear10" x1="0" y1="0" x2="1" y2="0" gradientUnits="userSpaceOnUse" gradientTransform="matrix(2.81659e-16,4.59984,-4.59984,2.81659e-16,53.3007,54.2158)"><stop offset="0" style="stop-color:#fff;stop-opacity:0.231373"/><stop offset="1" style="stop-color:#fff;stop-opacity:0.0509804"/></linearGradient><linearGradient id="_Linear11" x1="0" y1="0" x2="1" y2="0" gradientUnits="userSpaceOnUse" gradientTransform="matrix(2.86739e-16,4.6828,-4.6828,2.86739e-16,132.827,44.5556)"><stop offset="0" style="stop-color:#fff;stop-opacity:0.231373"/><stop offset="1" style="stop-color:#fff;stop-opacity:0.0509804"/></linearGradient><linearGradient id="_Linear12" x1="0" y1="0" x2="1" y2="0" gradientUnits="userSpaceOnUse" gradientTransform="matrix(3.15675e-16,5.15536,-5.15536,3.15675e-16,138.394,12.015)"><stop offset="0" style="stop-color:#fff;stop-opacity:0.231373"/><stop offset="1" style="stop-color:#fff;stop-opacity:0.0509804"/></linearGradient><linearGradient id="_Linear13" x1="0" y1="0" x2="1" y2="0" gradientUnits="userSpaceOnUse" gradientTransform="matrix(2.80784e-16,4.58555,-4.58555,2.80784e-16,108.221,-3.25783)"><stop offset="0" style="stop-color:#fff;stop-opacity:0.231373"/><stop offset="1" style="stop-color:#fff;stop-opacity:0.0509804"/></linearGradient><linearGradient id="_Linear14" x1="0" y1="0" x2="1" y2="0" gradientUnits="userSpaceOnUse" gradientTransform="matrix(5.14956e-16,8.40988,-8.40988,5.14956e-16,95.3911,34.6947)"><stop offset="0" style="stop-color:#fff;stop-opacity:0.231373"/><stop offset="1" style="stop-color:#fff;stop-opacity:0.0509804"/></linearGradient><linearGradient id="_Linear15" x1="0" y1="0" x2="1" y2="0" gradientUnits="userSpaceOnUse" gradientTransform="matrix(5.69525e-16,9.30104,-9.30104,5.69525e-16,116.639,49.7203)"><stop offset="0" style="stop-color:#fff;stop-opacity:0.231373"/><stop offset="1" style="stop-color:#fff;stop-opacity:0.0509804"/></linearGradient><linearGradient id="_Linear16" x1="0" y1="0" x2="1" y2="0" gradientUnits="userSpaceOnUse" gradientTransform="matrix(4.59635e-16,7.50641,-7.50641,4.59635e-16,97.6316,85.9727)"><stop offset="0" style="stop-color:#fff;stop-opacity:0.231373"/><stop offset="1" style="stop-color:#fff;stop-opacity:0.0509804"/></linearGradient><linearGradient id="_Linear17" x1="0" y1="0" x2="1" y2="0" gradientUnits="userSpaceOnUse" gradientTransform="matrix(4.9325e-16,8.05539,-8.05539,4.9325e-16,134.442,67.4466)"><stop offset="0" style="stop-color:#fff;stop-opacity:0.231373"/><stop offset="1" style="stop-color:#fff;stop-opacity:0.0509804"/></linearGradient><linearGradient id="_Linear18" x1="0" y1="0" x2="1" y2="0" gradientUnits="userSpaceOnUse" gradientTransform="matrix(4.27761e-16,6.98586,-6.98586,4.27761e-16,263.215,71.2572)"><stop offset="0" style="stop-color:#fff;stop-opacity:0.231373"/><stop offset="1" style="stop-color:#fff;stop-opacity:0.0509804"/></linearGradient><linearGradient id="_Linear19" x1="0" y1="0" x2="1" y2="0" gradientUnits="userSpaceOnUse" gradientTransform="matrix(2.62428e-16,4.28577,-4.28577,2.62428e-16,260.643,14.9496)"><stop offset="0" style="stop-color:#fff;stop-opacity:0.231373"/><stop offset="1" style="stop-color:#fff;stop-opacity:0.0509804"/></linearGradient><linearGradient id="_Linear20" x1="0" y1="0" x2="1" y2="0" gradientUnits="userSpaceOnUse" gradientTransform="matrix(2.79822e-16,4.56985,-4.56985,2.79822e-16,194.182,23.1361)"><stop offset="0" style="stop-color:#fff;stop-opacity:0.231373"/><stop offset="1" style="stop-color:#fff;stop-opacity:0.0509804"/></linearGradient><linearGradient id="_Linear21" x1="0" y1="0" x2="1" y2="0" gradientUnits="userSpaceOnUse" gradientTransform="matrix(4.66631e-16,7.62066,-7.62066,4.66631e-16,241.015,37.1514)"><stop offset="0" style="stop-color:#fff;stop-opacity:0.231373"/><stop offset="1" style="stop-color:#fff;stop-opacity:0.0509804"/></linearGradient><linearGradient id="_Linear22" x1="0" y1="0" x2="1" y2="0" gradientUnits="userSpaceOnUse" gradientTransform="matrix(2.01197e-16,3.28579,-3.28579,2.01197e-16,245.829,57.7042)"><stop offset="0" style="stop-color:#fff;stop-opacity:0.231373"/><stop offset="1" style="stop-color:#fff;stop-opacity:0.0509804"/></linearGradient><linearGradient id="_Linear23" x1="0" y1="0" x2="1" y2="0" gradientUnits="userSpaceOnUse" gradientTransform="matrix(2.05718e-16,3.35963,-3.35963,2.05718e-16,248.667,45.3737)"><stop offset="0" style="stop-color:#fff;stop-opacity:0.231373"/><stop offset="1" style="stop-color:#fff;stop-opacity:0.0509804"/></linearGradient><linearGradient id="_Linear24" x1="0" y1="0" x2="1" y2="0" gradientUnits="userSpaceOnUse" gradientTransform="matrix(3.16963e-16,5.17639,-5.17639,3.16963e-16,203.666,36.3129)"><stop offset="0" style="stop-color:#fff;stop-opacity:0.231373"/><stop offset="1" style="stop-color:#fff;stop-opacity:0.0509804"/></linearGradient><linearGradient id="_Linear25" x1="0" y1="0" x2="1" y2="0" gradientUnits="userSpaceOnUse" gradientTransform="matrix(1.92625e-16,3.14581,-3.14581,1.92625e-16,128.362,96.7437)"><stop offset="0" style="stop-color:#fff;stop-opacity:0.231373"/><stop offset="1" style="stop-color:#fff;stop-opacity:0.0509804"/></linearGradient><linearGradient id="_Linear26" x1="0" y1="0" x2="1" y2="0" gradientUnits="userSpaceOnUse" gradientTransform="matrix(2.05995e-16,3.36415,-3.36415,2.05995e-16,178.163,72.9765)"><stop offset="0" style="stop-color:#fff;stop-opacity:0.231373"/><stop offset="1" style="stop-color:#fff;stop-opacity:0.0509804"/></linearGradient><linearGradient id="_Linear27" x1="0" y1="0" x2="1" y2="0" gradientUnits="userSpaceOnUse" gradientTransform="matrix(2.53028e-16,4.13226,-4.13226,2.53028e-16,117.341,84.5253)"><stop offset="0" style="stop-color:#fff;stop-opacity:0.231373"/><stop offset="1" style="stop-color:#fff;stop-opacity:0.0509804"/></linearGradient><linearGradient id="_Linear28" x1="0" y1="0" x2="1" y2="0" gradientUnits="userSpaceOnUse" gradientTransform="matrix(2.87876e-16,4.70137,-4.70137,2.87876e-16,53.3596,24.415)"><stop offset="0" style="stop-color:#fff;stop-opacity:0.231373"/><stop offset="1" style="stop-color:#fff;stop-opacity:0.0509804"/></linearGradient><linearGradient id="_Linear29" x1="0" y1="0" x2="1" y2="0" gradientUnits="userSpaceOnUse" gradientTransform="matrix(5.43933e-16,8.8831,-8.8831,5.43933e-16,30.5799,0.829783)"><stop offset="0" style="stop-color:#fff;stop-opacity:0.231373"/><stop offset="1" style="stop-color:#fff;stop-opacity:0.0509804"/></linearGradient><linearGradient id="_Linear30" x1="0" y1="0" x2="1" y2="0" gradientUnits="userSpaceOnUse" gradientTransform="matrix(3.84803e-16,6.28431,-6.28431,3.84803e-16,0.563921,45.9742)"><stop offset="0" style="stop-color:#fff;stop-opacity:0.231373"/><stop offset="1" style="stop-color:#fff;stop-opacity:0.0509804"/></linearGradient><linearGradient id="_Linear31" x1="0" y1="0" x2="1" y2="0" gradientUnits="userSpaceOnUse" gradientTransform="matrix(3.2168e-16,5.25343,-5.25343,3.2168e-16,28.7337,25.4594)"><stop offset="0" style="stop-color:#fff;stop-opacity:0.231373"/><stop offset="1" style="stop-color:#fff;stop-opacity:0.0509804"/></linearGradient><linearGradient id="_Linear32" x1="0" y1="0" x2="1" y2="0" gradientUnits="userSpaceOnUse" gradientTransform="matrix(4.61363e-16,7.53462,-7.53462,4.61363e-16,31.5145,25.9088)"><stop offset="0" style="stop-color:#fff;stop-opacity:0.231373"/><stop offset="1" style="stop-color:#fff;stop-opacity:0.0509804"/></linearGradient><linearGradient id="_Linear33" x1="0" y1="0" x2="1" y2="0" gradientUnits="userSpaceOnUse" gradientTransform="matrix(5.55423e-16,9.07074,-9.07074,5.55423e-16,276.88,23.2273)"><stop offset="0" style="stop-color:#fff;stop-opacity:0.231373"/><stop offset="1" style="stop-color:#fff;stop-opacity:0.0509804"/></linearGradient><linearGradient id="_Linear34" x1="0" y1="0" x2="1" y2="0" gradientUnits="userSpaceOnUse" gradientTransform="matrix(5.44819e-16,8.89758,-8.89758,5.44819e-16,238.827,62.8111)"><stop offset="0" style="stop-color:#fff;stop-opacity:0.231373"/><stop offset="1" style="stop-color:#fff;stop-opacity:0.0509804"/></linearGradient><linearGradient id="_Linear35" x1="0" y1="0" x2="1" y2="0" gradientUnits="userSpaceOnUse" gradientTransform="matrix(4.16467e-16,6.80142,-6.80142,4.16467e-16,97.7466,55.0842)"><stop offset="0" style="stop-color:#fff;stop-opacity:0.231373"/><stop offset="1" style="stop-color:#fff;stop-opacity:0.0509804"/></linearGradient><linearGradient id="_Linear36" x1="0" y1="0" x2="1" y2="0" gradientUnits="userSpaceOnUse" gradientTransform="matrix(3.56181e-16,5.81687,-5.81687,3.56181e-16,46.5415,45.8811)"><stop offset="0" style="stop-color:#fff;stop-opacity:0.231373"/><stop offset="1" style="stop-color:#fff;stop-opacity:0.0509804"/></linearGradient><linearGradient id="_Linear37" x1="0" y1="0" x2="1" y2="0" gradientUnits="userSpaceOnUse" gradientTransform="matrix(3.22071e-16,5.25982,-5.25982,3.22071e-16,87.508,14.2418)"><stop offset="0" style="stop-color:#fff;stop-opacity:0.231373"/><stop offset="1" style="stop-color:#fff;stop-opacity:0.0509804"/></linearGradient><linearGradient id="_Linear38" x1="0" y1="0" x2="1" y2="0" gradientUnits="userSpaceOnUse" gradientTransform="matrix(2.1724e-16,3.5478,-3.5478,2.1724e-16,110.727,29.25)"><stop offset="0" style="stop-color:#fff;stop-opacity:0.231373"/><stop offset="1" style="stop-color:#fff;stop-opacity:0.0509804"/></linearGradient><linearGradient id="_Linear39" x1="0" y1="0" x2="1" y2="0" gradientUnits="userSpaceOnUse" gradientTransform="matrix(6.58785e-16,10.7588,-10.7588,6.58785e-16,166.685,28.5257)"><stop offset="0" style="stop-color:#fff;stop-opacity:0.231373"/><stop offset="1" style="stop-color:#fff;stop-opacity:0.0509804"/></linearGradient><linearGradient id="_Linear40" x1="0" y1="0" x2="1" y2="0" gradientUnits="userSpaceOnUse" gradientTransform="matrix(2.78863e-16,4.55418,-4.55418,2.78863e-16,181.127,53.7853)"><stop offset="0" style="stop-color:#fff;stop-opacity:0.231373"/><stop offset="1" style="stop-color:#fff;stop-opacity:0.0509804"/></linearGradient><linearGradient id="_Linear41" x1="0" y1="0" x2="1" y2="0" gradientUnits="userSpaceOnUse" gradientTransform="matrix(4.38026e-16,7.15351,-7.15351,4.38026e-16,215.067,73.4321)"><stop offset="0" style="stop-color:#fff;stop-opacity:0.231373"/><stop offset="1" style="stop-color:#fff;stop-opacity:0.0509804"/></linearGradient><linearGradient id="_Linear42" x1="0" y1="0" x2="1" y2="0" gradientUnits="userSpaceOnUse" gradientTransform="matrix(6.37071e-16,10.4042,-10.4042,6.37071e-16,242.95,93.8137)"><stop offset="0" style="stop-color:#fff;stop-opacity:0.231373"/><stop offset="1" style="stop-color:#fff;stop-opacity:0.0509804"/></linearGradient><linearGradient id="_Linear43" x1="0" y1="0" x2="1" y2="0" gradientUnits="userSpaceOnUse" gradientTransform="matrix(4.46567e-16,7.29299,-7.29299,4.46567e-16,280.427,62.6338)"><stop offset="0" style="stop-color:#fff;stop-opacity:0.231373"/><stop offset="1" style="stop-color:#fff;stop-opacity:0.0509804"/></linearGradient><linearGradient id="_Linear44" x1="0" y1="0" x2="1" y2="0" gradientUnits="userSpaceOnUse" gradientTransform="matrix(2.52942e-16,4.13085,-4.13085,2.52942e-16,269.752,80.0399)"><stop offset="0" style="stop-color:#fff;stop-opacity:0.231373"/><stop offset="1" style="stop-color:#fff;stop-opacity:0.0509804"/></linearGradient><linearGradient id="_Linear45" x1="0" y1="0" x2="1" y2="0" gradientUnits="userSpaceOnUse" gradientTransform="matrix(3.58838e-16,5.86026,-5.86026,3.58838e-16,214.002,32.4342)"><stop offset="0" style="stop-color:#fff;stop-opacity:0.231373"/><stop offset="1" style="stop-color:#fff;stop-opacity:0.0509804"/></linearGradient><linearGradient id="_Linear46" x1="0" y1="0" x2="1" y2="0" gradientUnits="userSpaceOnUse" gradientTransform="matrix(4.88959e-16,7.98531,-7.98531,4.88959e-16,223.723,2.85996)"><stop offset="0" style="stop-color:#fff;stop-opacity:0.231373"/><stop offset="1" style="stop-color:#fff;stop-opacity:0.0509804"/></linearGradient><linearGradient id="_Linear47" x1="0" y1="0" x2="1" y2="0" gradientUnits="userSpaceOnUse" gradientTransform="matrix(4.62353e-16,7.55079,-7.55079,4.62353e-16,10.3325,37.2422)"><stop offset="0" style="stop-color:#fff;stop-opacity:0.231373"/><stop offset="1" style="stop-color:#fff;stop-opacity:0.0509804"/></linearGradient><linearGradient id="_Linear48" x1="0" y1="0" x2="1" y2="0" gradientUnits="userSpaceOnUse" gradientTransform="matrix(5.9546e-16,9.72459,-9.72459,5.9546e-16,49.689,73.0735)"><stop offset="0" style="stop-color:#fff;stop-opacity:0.231373"/><stop offset="1" style="stop-color:#fff;stop-opacity:0.0509804"/></linearGradient></defs></svg>