<?xml version="1.0" encoding="UTF-8" standalone="no"?>
<svg
   xmlns:dc="http://purl.org/dc/elements/1.1/"
   xmlns:cc="http://creativecommons.org/ns#"
   xmlns:rdf="http://www.w3.org/1999/02/22-rdf-syntax-ns#"
   xmlns:svg="http://www.w3.org/2000/svg"
   xmlns="http://www.w3.org/2000/svg"
   xmlns:sodipodi="http://sodipodi.sourceforge.net/DTD/sodipodi-0.dtd"
   xmlns:inkscape="http://www.inkscape.org/namespaces/inkscape"
   version="1.0"
   width="16.245064pt"
   height="12.967799pt"
   viewBox="0 0 16.245063 12.9678"
   preserveAspectRatio="xMidYMid meet"
   id="svg8"
   sodipodi:docname="checkmark.svg"
   inkscape:version="0.92.2 5c3e80d, 2017-08-06">
  <metadata
     id="metadata14">
    <rdf:RDF>
      <cc:Work
         rdf:about="">
        <dc:format>image/svg+xml</dc:format>
        <dc:type
           rdf:resource="http://purl.org/dc/dcmitype/StillImage" />
        <dc:title></dc:title>
      </cc:Work>
    </rdf:RDF>
  </metadata>
  <defs
     id="defs12" />
  <sodipodi:namedview
     pagecolor="#ffffff"
     bordercolor="#666666"
     borderopacity="1"
     objecttolerance="10"
     gridtolerance="10"
     guidetolerance="10"
     inkscape:pageopacity="0"
     inkscape:pageshadow="2"
     inkscape:window-width="1444"
     inkscape:window-height="858"
     id="namedview10"
     showgrid="false"
     inkscape:zoom="7.1968604"
     inkscape:cx="-1.405206"
     inkscape:cy="-16.112589"
     inkscape:window-x="0"
     inkscape:window-y="0"
     inkscape:window-maximized="0"
     inkscape:current-layer="svg8"
     fit-margin-top="0"
     fit-margin-left="0"
     fit-margin-right="0"
     fit-margin-bottom="0" />
  <g
     transform="matrix(0.00149082,0,0,-0.00149082,-0.00190622,15.740725)"
     id="g6"
     style="fill:#000000;stroke:none">
    <path
       d="m 1970,10553 c -312,-22 -590,-95 -848,-223 C 895,10217 716,10087 554,9918 277,9628 109,9298 28,8885 L 6,8775 2,6300 C 0,4547 2,3793 10,3715 33,3481 90,3279 190,3071 504,2422 1149,1988 1900,1920 c 88,-8 623,-10 1821,-8 l 1697,3 -367,457 -366,457 -980,2 c -539,0 -1167,4 -1395,9 -394,7 -420,9 -520,33 -412,99 -705,348 -820,697 -52,161 -51,67 -47,2707 3,2320 4,2452 21,2523 57,236 145,393 306,543 159,147 362,241 630,288 88,16 4680,25 4850,10 151,-14 253,-41 376,-101 308,-149 524,-424 611,-778 14,-59 17,-186 22,-1070 l 6,-1003 457,448 457,448 1,525 c 0,289 -5,575 -10,635 -66,696 -485,1302 -1112,1608 -213,104 -469,175 -713,197 -99,9 -4731,12 -4855,3 z"
       id="path2"
       inkscape:connector-curvature="0" />
    <path
       d="M 10255,8577 C 9586,7929 8802,7174 8471,6860 8364,6758 7767,6173 7146,5560 6524,4946 5979,4410 5934,4367 l -81,-77 -214,116 c -1680,909 -2322,1255 -2325,1252 -4,-4 316,-453 1786,-2501 887,-1236 895,-1247 912,-1224 14,17 18,19 18,6 0,-26 67,-79 99,-79 16,0 41,10 56,22 16,12 85,108 153,213 69,104 214,325 322,490 108,165 317,485 465,710 363,555 493,749 730,1090 247,356 793,1149 977,1420 75,110 212,311 304,447 93,136 255,374 359,528 105,154 237,349 294,433 226,331 671,1000 755,1132 95,150 186,316 186,340 0,27 -34,15 -97,-34 -75,-57 -197,-172 -236,-221 -45,-57 109,180 313,482 105,154 189,282 188,283 -2,1 -291,-277 -643,-618 z"
       id="path4"
       inkscape:connector-curvature="0" />
  </g>
</svg>
