<?xml version="1.0" encoding="UTF-8" standalone="no"?>
<!-- Created with Inkscape (http://www.inkscape.org/) -->

<svg
   xmlns:dc="http://purl.org/dc/elements/1.1/"
   xmlns:cc="http://creativecommons.org/ns#"
   xmlns:rdf="http://www.w3.org/1999/02/22-rdf-syntax-ns#"
   xmlns:svg="http://www.w3.org/2000/svg"
   xmlns="http://www.w3.org/2000/svg"
   xmlns:sodipodi="http://sodipodi.sourceforge.net/DTD/sodipodi-0.dtd"
   xmlns:inkscape="http://www.inkscape.org/namespaces/inkscape"
   width="104.07689mm"
   height="61.30225mm"
   viewBox="0 0 368.77638 217.2127"
   id="svg2"
   version="1.1"
   inkscape:version="0.92.2 5c3e80d, 2017-08-06"
   sodipodi:docname="penOnPaper.svg">
  <sodipodi:namedview
     inkscape:snap-midpoints="true"
     inkscape:snap-global="false"
     inkscape:snap-nodes="true"
     id="base"
     pagecolor="#ffffff"
     bordercolor="#666666"
     borderopacity="1.0"
     inkscape:pageopacity="0"
     inkscape:pageshadow="2"
     inkscape:zoom="2.8284272"
     inkscape:cx="280.32588"
     inkscape:cy="133.57164"
     inkscape:document-units="px"
     inkscape:current-layer="g5751"
     showgrid="false"
     inkscape:window-width="1440"
     inkscape:window-height="855"
     inkscape:window-x="0"
     inkscape:window-y="1"
     inkscape:window-maximized="1"
     inkscape:snap-smooth-nodes="true"
     inkscape:object-paths="true"
     inkscape:snap-intersection-paths="true"
     inkscape:object-nodes="false"
     fit-margin-top="0"
     fit-margin-left="0"
     fit-margin-right="0"
     fit-margin-bottom="0" />
  <defs
     id="defs4" />
  <metadata
     id="metadata7">
    <rdf:RDF>
      <cc:Work
         rdf:about="">
        <dc:format>image/svg+xml</dc:format>
        <dc:type
           rdf:resource="http://purl.org/dc/dcmitype/StillImage" />
        <dc:title></dc:title>
      </cc:Work>
    </rdf:RDF>
  </metadata>
  <g
     inkscape:label="Layer 1"
     inkscape:groupmode="layer"
     id="layer1"
     transform="translate(-279.80305,-331.4076)">
    <path
       inkscape:connector-curvature="0"
       style="opacity:1;fill:#ffffff;fill-opacity:1;stroke:#000000;stroke-opacity:1"
       d="m 646.76137,493.74849 c 0,0 -126.87959,54.06171 -126.87959,54.06171 0,0 -239.39117,-102.53501 -239.39117,-102.53501 0,0 168.09983,-14.27308 168.09983,-14.27308 0,0 198.17093,62.74638 198.17093,62.74638"
       id="rect4158" />
    <path
       sodipodi:nodetypes="cssssscccssssscccssssscccssssscc"
       inkscape:connector-curvature="0"
       style="opacity:1;fill:#000000;fill-opacity:1;stroke:#000000;stroke-width:0.69218272;stroke-opacity:1"
       d="m 526.73382,462.53092 c 1.00718,-0.19433 0.59238,-0.74489 -0.92029,-1.23424 -1.5073,-0.48763 -3.53052,-0.72845 -4.54673,-0.54039 L 404.26696,482.4077 c -1.79906,0.33292 -1.86626,1.17145 -0.13219,1.88096 1.74237,0.71291 4.60109,1.00909 6.3918,0.66359 l 116.20725,-22.42133 0,0 m -25.37795,-8.23784 c 1.04742,-0.16576 0.73551,-0.67064 -0.68887,-1.13143 -1.41948,-0.45921 -3.40354,-0.6996 -4.45859,-0.53947 l -120.29795,18.25854 c -1.83179,0.27802 -2.03206,1.02825 -0.43166,1.68307 1.60775,0.65782 4.3864,0.95567 6.2122,0.66673 l 119.66487,-18.93744 0,0 m -23.90747,-7.76051 c 1.08137,-0.14012 0.86212,-0.60336 -0.48149,-1.03802 -1.33912,-0.43322 -3.28511,-0.67282 -4.37292,-0.53775 l -122.91331,15.26146 c -1.85461,0.23027 -2.16806,0.90289 -0.68646,1.5091 1.48815,0.60889 4.18958,0.90695 6.04012,0.66717 l 122.41406,-15.86196 0,0 m -22.56195,-7.32375 c 1.10991,-0.11706 0.97357,-0.54246 -0.29595,-0.95316 -1.26538,-0.40935 -3.1737,-0.64765 -4.289,-0.53514 l -124.95525,12.60573 c -1.8694,0.18859 -2.28014,0.79237 -0.90459,1.35519 1.38141,0.56522 4.00927,0.86267 5.87616,0.66577 l 124.56863,-13.13839 0,0"
       id="rect4160" />
    <g
       id="g5751"
       transform="matrix(1.1164732,0.93104835,-0.93104835,1.1164732,138.07192,-610.29998)">
      <path
         sodipodi:nodetypes="ccccccccccsccscc"
         inkscape:connector-curvature="0"
         id="path5753"
         d="m 669.08789,287.21289 0,6.63477 0,33.51367 7.3125,0 0,-33.51367 0,-6.63477 -2.00781,0 -3.18164,0 z m 0,45.57031 0,46.38672 c 0,4.25984 2.6582,16.5 2.6582,16.5 l 1.9961,0 c 0,0 2.6582,-12.24016 2.6582,-16.5 l 0,-46.38672 z"
         style="opacity:1;fill:#d11b2a;fill-opacity:1;stroke:none;stroke-width:0.67725784;stroke-opacity:1" />
      <path
         sodipodi:nodetypes="cccc"
         inkscape:connector-curvature="0"
         id="path5755"
         d="m 672.74414,400.36332 -0.9982,-4.694 1.9964,0 z"
         inkscape:transform-center-y="0.4693141"
         style="opacity:1;fill:#dddddd;fill-opacity:1;stroke:none;stroke-opacity:1" />
      <path
         id="path5757"
         d="m 672.74414,283.55664 a 3.6562552,3.6562552 0 0 0 -3.65625,3.65625 l 7.3125,0 a 3.6562552,3.6562552 0 0 0 -3.65625,-3.65625 z"
         style="opacity:1;fill:#dddddd;fill-opacity:1;stroke:none;stroke-opacity:1"
         inkscape:connector-curvature="0" />
      <path
         inkscape:connector-curvature="0"
         id="path5759"
         d="m 676.40044,287.21289 0,2.13465 a 1.2682495,2.0205862 0 0 1 1.26563,1.92305 l 0.002,0 0,31.86417 1.33984,0 0,-31.86417 -0.004,0 a 2.6074562,4.154222 0 0 0 -2.60352,-4.0577 z"
         style="opacity:1;fill:#dddddd;fill-opacity:1;stroke:none;stroke-opacity:1" />
      <path
         inkscape:connector-curvature="0"
         id="path5761"
         d="m 669.08789,327.36133 0,5.42157 7.3125,0 0,-5.42157 -7.3125,0 z"
         style="opacity:1;fill:#dddddd;fill-opacity:1;stroke:none;stroke-opacity:1" />
    </g>
  </g>
</svg>
