<?xml version="1.0" encoding="UTF-8" standalone="no"?>
<svg
   xmlns:dc="http://purl.org/dc/elements/1.1/"
   xmlns:cc="http://creativecommons.org/ns#"
   xmlns:rdf="http://www.w3.org/1999/02/22-rdf-syntax-ns#"
   xmlns:svg="http://www.w3.org/2000/svg"
   xmlns="http://www.w3.org/2000/svg"
   xmlns:sodipodi="http://sodipodi.sourceforge.net/DTD/sodipodi-0.dtd"
   xmlns:inkscape="http://www.inkscape.org/namespaces/inkscape"
   enable-background="new 0 0 126 95.359"
   version="1.1"
   viewBox="0 0 62.413414 62.413985"
   xml:space="preserve"
   id="svg4"
   sodipodi:docname="website.svg"
   inkscape:version="0.92.2 5c3e80d, 2017-08-06"
   width="62.413414"
   height="62.413986"><metadata
     id="metadata10"><rdf:RDF><cc:Work
         rdf:about=""><dc:format>image/svg+xml</dc:format><dc:type
           rdf:resource="http://purl.org/dc/dcmitype/StillImage" /><dc:title></dc:title></cc:Work></rdf:RDF></metadata><defs
     id="defs8" /><sodipodi:namedview
     pagecolor="#ffffff"
     bordercolor="#666666"
     borderopacity="1"
     objecttolerance="10"
     gridtolerance="10"
     guidetolerance="10"
     inkscape:pageopacity="0"
     inkscape:pageshadow="2"
     inkscape:window-width="740"
     inkscape:window-height="480"
     id="namedview6"
     showgrid="false"
     inkscape:zoom="2.4748581"
     inkscape:cx="-41.524736"
     inkscape:cy="31.222187"
     inkscape:window-x="0"
     inkscape:window-y="0"
     inkscape:window-maximized="0"
     inkscape:current-layer="svg4"
     fit-margin-top="0"
     fit-margin-left="0"
     fit-margin-right="0"
     fit-margin-bottom="0" /><path
     d="m 33.672707,1.7743 c 17.887,17.636 17.887,41.313 0,58.947 M 8.2197065,49.9643 c 13.7540005,-9.813 32.2190005,-9.813 45.9740005,0 m -24.94,-48.473 c -18.011,17.757 -18.011,41.599 0,59.356 m 1.8,-59.325 c -16.394,0.084 -29.6160005,13.442 -29.5310005,29.836 0.083,16.396 13.4420005,29.616 29.8370005,29.533 16.393,-0.085 29.616,-13.442 29.531,-29.837 -0.083,-16.275 -13.256,-29.448 -29.531,-29.532 z m 0.153,0 v 59.369 m 29.685,-29.685 H 1.5217065 m 6.698,-17.86 c 13.7540005,9.812 32.2190005,9.812 45.9740005,0"
     id="path2"
     style="fill:none;stroke:#3c91e6;stroke-width:3.04460001;stroke-opacity:1"
     inkscape:connector-curvature="0" /></svg>