<?xml version="1.0" encoding="UTF-8" standalone="no"?>
<!-- Created with Inkscape (http://www.inkscape.org/) -->

<svg
   xmlns:dc="http://purl.org/dc/elements/1.1/"
   xmlns:cc="http://creativecommons.org/ns#"
   xmlns:rdf="http://www.w3.org/1999/02/22-rdf-syntax-ns#"
   xmlns:svg="http://www.w3.org/2000/svg"
   xmlns="http://www.w3.org/2000/svg"
   xmlns:sodipodi="http://sodipodi.sourceforge.net/DTD/sodipodi-0.dtd"
   xmlns:inkscape="http://www.inkscape.org/namespaces/inkscape"
   width="23.605749mm"
   height="11.787336mm"
   viewBox="0 0 23.605749 11.787336"
   version="1.1"
   id="svg8"
   inkscape:version="0.92.2 5c3e80d, 2017-08-06"
   sodipodi:docname="logo-white.svg">
  <defs
     id="defs2" />
  <sodipodi:namedview
     id="base"
     pagecolor="#ffffff"
     bordercolor="#666666"
     borderopacity="1.0"
     inkscape:pageopacity="0.0"
     inkscape:pageshadow="2"
     inkscape:zoom="5.6"
     inkscape:cx="38.998508"
     inkscape:cy="16.552522"
     inkscape:document-units="mm"
     inkscape:current-layer="layer1"
     showgrid="false"
     inkscape:window-width="1440"
     inkscape:window-height="855"
     inkscape:window-x="0"
     inkscape:window-y="1"
     inkscape:window-maximized="1"
     fit-margin-top="0"
     fit-margin-left="0"
     fit-margin-right="0"
     fit-margin-bottom="0" />
  <metadata
     id="metadata5">
    <rdf:RDF>
      <cc:Work
         rdf:about="">
        <dc:format>image/svg+xml</dc:format>
        <dc:type
           rdf:resource="http://purl.org/dc/dcmitype/StillImage" />
        <dc:title></dc:title>
      </cc:Work>
    </rdf:RDF>
  </metadata>
  <g
     inkscape:label="Layer 1"
     inkscape:groupmode="layer"
     id="layer1"
     transform="translate(-56.532459,-113.92439)">
    <g
       aria-label="BBM"
       style="font-style:normal;font-weight:normal;font-size:10.58333302px;line-height:125%;font-family:sans-serif;letter-spacing:0px;word-spacing:0px;fill:#ffffff;fill-opacity:1;stroke:none;stroke-width:0.26458332px;stroke-linecap:butt;stroke-linejoin:miter;stroke-opacity:1"
       id="text817"
       transform="translate(-0.7349912,-0.26726953)">
      <path
         d="m 60.347315,120.25846 v 2.8267 h 1.674317 q 0.842326,0 1.245402,-0.34623 0.408244,-0.3514 0.408244,-1.0697 0,-0.72347 -0.408244,-1.06453 -0.403076,-0.34624 -1.245402,-0.34624 z m 0,-3.17293 v 2.32544 h 1.545126 q 0.764811,0 1.136881,-0.28422 0.377238,-0.28939 0.377238,-0.8785 0,-0.58394 -0.377238,-0.87333 -0.37207,-0.28939 -1.136881,-0.28939 z m -1.043863,-0.85783 h 2.666503 q 1.193726,0 1.839681,0.4961 0.645956,0.49609 0.645956,1.41076 0,0.70797 -0.33073,1.12655 -0.330729,0.41858 -0.971516,0.52193 0.769978,0.16537 1.193725,0.69246 0.428915,0.52194 0.428915,1.30742 0,1.03353 -0.7028,1.5968 -0.702799,0.56327 -1.999878,0.56327 h -2.769856 z"
         style="font-style:normal;font-variant:normal;font-weight:normal;font-stretch:normal;font-family:'Source Sans Pro';-inkscape-font-specification:'Source Sans Pro';fill:#ffffff;fill-opacity:1;stroke-width:0.26458332px"
         id="path838"
         inkscape:connector-curvature="0" />
      <path
         d="m 67.602687,120.25846 v 2.8267 h 1.674316 q 0.842326,0 1.245402,-0.34623 0.408244,-0.3514 0.408244,-1.0697 0,-0.72347 -0.408244,-1.06453 -0.403076,-0.34624 -1.245402,-0.34624 z m 0,-3.17293 v 2.32544 h 1.545125 q 0.764811,0 1.136881,-0.28422 0.377238,-0.28939 0.377238,-0.8785 0,-0.58394 -0.377238,-0.87333 -0.37207,-0.28939 -1.136881,-0.28939 z m -1.043864,-0.85783 h 2.666503 q 1.193726,0 1.839681,0.4961 0.645956,0.49609 0.645956,1.41076 0,0.70797 -0.330729,1.12655 -0.33073,0.41858 -0.971517,0.52193 0.769979,0.16537 1.193725,0.69246 0.428915,0.52194 0.428915,1.30742 0,1.03353 -0.7028,1.5968 -0.702799,0.56327 -1.999878,0.56327 h -2.769856 z"
         style="font-style:normal;font-variant:normal;font-weight:normal;font-stretch:normal;font-family:'Source Sans Pro';-inkscape-font-specification:'Source Sans Pro';fill:#ffffff;fill-opacity:1;stroke-width:0.26458332px"
         id="path840"
         inkscape:connector-curvature="0" />
      <path
         d="m 73.814194,116.2277 h 1.55546 l 1.968872,5.25033 1.979208,-5.25033 h 1.55546 v 7.71529 h -1.018026 v -6.77478 l -1.989542,5.29167 h -1.049032 l -1.989542,-5.29167 v 6.77478 h -1.012858 z"
         style="font-style:normal;font-variant:normal;font-weight:normal;font-stretch:normal;font-family:'Source Sans Pro';-inkscape-font-specification:'Source Sans Pro';fill:#ffffff;fill-opacity:1;stroke-width:0.26458332px"
         id="path842"
         inkscape:connector-curvature="0" />
    </g>
    <path
       style="opacity:1;fill:#ffffff;fill-opacity:1;stroke:none;stroke-width:5.1608882;stroke-miterlimit:4;stroke-dasharray:none;stroke-opacity:1"
       d="M 0 0 L 0 3.8476562 L 0 44.550781 L 3.8476562 44.550781 L 85.371094 44.550781 L 89.21875 44.550781 L 89.21875 40.703125 L 89.21875 36.855469 L 85.371094 36.855469 L 85.371094 40.703125 L 3.8476562 40.703125 L 3.8476562 3.8476562 L 89.21875 3.8476562 L 89.21875 0 L 0 0 z "
       transform="matrix(0.26458333,0,0,0.26458333,56.532459,113.92439)"
       id="rect847" />
  </g>
</svg>
