<?xml version="1.0" encoding="UTF-8" standalone="no"?><!DOCTYPE svg PUBLIC "-//W3C//DTD SVG 1.1//EN" "http://www.w3.org/Graphics/SVG/1.1/DTD/svg11.dtd"><svg width="100%" height="100%" viewBox="0 0 1280 800" version="1.1" xmlns="http://www.w3.org/2000/svg" xmlns:xlink="http://www.w3.org/1999/xlink" xml:space="preserve" xmlns:serif="http://www.serif.com/" style="fill-rule:evenodd;clip-rule:evenodd;stroke-linecap:round;stroke-linejoin:round;stroke-miterlimit:1.5;"><g id="background" opacity="0.5"><g id="Layer-1" serif:id="Layer 1"><path id="rect815" d="M538.021,33.745c0,-2.527 -2.051,-4.579 -4.578,-4.579l-9.157,0c-2.527,0 -4.578,2.052 -4.578,4.579l0,9.156c0,2.527 2.051,4.579 4.578,4.579l9.157,0c2.527,0 4.578,-2.052 4.578,-4.579l0,-9.156Z" style="fill:url(#_Linear1);"/><path id="use1002" d="M505.456,440.043c0,-3.621 -2.94,-6.562 -6.562,-6.562l-13.122,0c-3.622,0 -6.562,2.941 -6.562,6.562l0,13.123c0,3.621 2.94,6.561 6.562,6.561l13.122,0c3.622,0 6.562,-2.94 6.562,-6.561l0,-13.123Z" style="fill:url(#_Linear2);"/><path id="use1004" d="M906.661,216.463c0,-1.412 -1.146,-2.558 -2.558,-2.558l-5.116,0c-1.412,0 -2.558,1.146 -2.558,2.558l0,5.116c0,1.411 1.146,2.557 2.558,2.557l5.116,0c1.412,0 2.558,-1.146 2.558,-2.557l0,-5.116Z" style="fill:url(#_Linear3);"/><path id="use1012" d="M907.091,574.398c0,-1.905 -1.547,-3.452 -3.452,-3.452l-6.905,0c-1.906,0 -3.453,1.547 -3.453,3.452l0,6.905c0,1.906 1.547,3.453 3.453,3.453l6.905,0c1.905,0 3.452,-1.547 3.452,-3.453l0,-6.905Z" style="fill:url(#_Linear4);"/><path id="use1014" d="M376.445,520.328c0,-3.13 -2.541,-5.67 -5.671,-5.67l-11.341,0c-3.129,0 -5.67,2.54 -5.67,5.67l0,11.341c0,3.13 2.541,5.671 5.67,5.671l11.341,0c3.13,0 5.671,-2.541 5.671,-5.671l0,-11.341Z" style="fill:url(#_Linear5);"/><path id="use1016" d="M419.764,301.445c0,-3.035 -2.463,-5.499 -5.498,-5.499l-10.997,0c-3.035,0 -5.498,2.464 -5.498,5.499l0,10.997c0,3.034 2.463,5.498 5.498,5.498l10.997,0c3.035,0 5.498,-2.464 5.498,-5.498l0,-10.997Z" style="fill:url(#_Linear6);"/><path id="use1018" d="M380.09,799.51c0,-2.353 -1.911,-4.264 -4.264,-4.264l-8.527,0c-2.353,0 -4.264,1.911 -4.264,4.264l0,8.527c0,2.353 1.911,4.264 4.264,4.264l8.527,0c2.353,0 4.264,-1.911 4.264,-4.264l0,-8.527Z" style="fill:url(#_Linear7);"/><path id="use1026" d="M480.732,267.73c0,-1.431 -1.162,-2.592 -2.593,-2.592l-5.184,0c-1.431,0 -2.592,1.161 -2.592,2.592l0,5.184c0,1.431 1.161,2.593 2.592,2.593l5.184,0c1.431,0 2.593,-1.162 2.593,-2.593l0,-5.184Z" style="fill:url(#_Linear8);"/><path id="use1028" d="M404.065,563.937c0,-2.209 -1.793,-4.002 -4.002,-4.002l-8.004,0c-2.208,0 -4.001,1.793 -4.001,4.002l0,8.004c0,2.208 1.793,4.001 4.001,4.001l8.004,0c2.209,0 4.002,-1.793 4.002,-4.001l0,-8.004Z" style="fill:url(#_Linear9);"/><path id="use1030" d="M206.019,280.115c0,-1.281 -1.04,-2.321 -2.321,-2.321l-4.64,0c-1.28,0 -2.32,1.04 -2.32,2.321l0,4.64c0,1.28 1.04,2.32 2.32,2.32l4.64,0c1.281,0 2.321,-1.04 2.321,-2.32l0,-4.64Z" style="fill:url(#_Linear10);"/><path id="use1034" d="M546.401,-16.41c0,-3.919 -3.181,-7.1 -7.1,-7.1l-14.199,0c-3.918,0 -7.099,3.181 -7.099,7.1l0,14.199c0,3.918 3.181,7.1 7.099,7.1l14.199,0c3.919,0 7.1,-3.182 7.1,-7.1l0,-14.199Z" style="fill:url(#_Linear11);"/><path id="use1050" d="M26.091,352.665c0,-1.69 -1.373,-3.063 -3.063,-3.063l-6.126,0c-1.69,0 -3.063,1.373 -3.063,3.063l0,6.126c0,1.69 1.373,3.063 3.063,3.063l6.126,0c1.69,0 3.063,-1.373 3.063,-3.063l0,-6.126Z" style="fill:url(#_Linear12);"/><path id="use1052" d="M745.956,553.086c0,-3.784 -3.072,-6.856 -6.857,-6.856l-13.713,0c-3.784,0 -6.856,3.072 -6.856,6.856l0,13.713c0,3.785 3.072,6.857 6.856,6.857l13.713,0c3.785,0 6.857,-3.072 6.857,-6.857l0,-13.713Z" style="fill:url(#_Linear13);"/><path id="use1056" d="M485.314,336.92c0,-3.031 -2.461,-5.492 -5.493,-5.492l-10.984,0c-3.032,0 -5.493,2.461 -5.493,5.492l0,10.985c0,3.031 2.461,5.492 5.493,5.492l10.984,0c3.032,0 5.493,-2.461 5.493,-5.492l0,-10.985Z" style="fill:url(#_Linear14);"/><path id="use1060" d="M87.467,585.025c0,-1.807 -1.467,-3.274 -3.274,-3.274l-6.549,0c-1.807,0 -3.274,1.467 -3.274,3.274l0,6.548c0,1.808 1.467,3.275 3.274,3.275l6.549,0c1.807,0 3.274,-1.467 3.274,-3.275l0,-6.548Z" style="fill:url(#_Linear15);"/><path id="use1070" d="M846.841,273.399c0,-3.15 -2.558,-5.708 -5.709,-5.708l-11.416,0c-3.15,0 -5.708,2.558 -5.708,5.708l0,11.417c0,3.15 2.558,5.708 5.708,5.708l11.416,0c3.151,0 5.709,-2.558 5.709,-5.708l0,-11.417Z" style="fill:url(#_Linear16);"/><path id="use1072" d="M772.681,261.029c0,-3.132 -2.543,-5.675 -5.675,-5.675l-11.349,0c-3.132,0 -5.675,2.543 -5.675,5.675l0,11.349c0,3.132 2.543,5.675 5.675,5.675l11.349,0c3.132,0 5.675,-2.543 5.675,-5.675l0,-11.349Z" style="fill:url(#_Linear17);"/><path id="use1078" d="M701.058,574.297c0,-2.258 -1.834,-4.091 -4.091,-4.091l-8.182,0c-2.258,0 -4.091,1.833 -4.091,4.091l0,8.182c0,2.258 1.833,4.091 4.091,4.091l8.182,0c2.257,0 4.091,-1.833 4.091,-4.091l0,-8.182Z" style="fill:url(#_Linear18);"/><path id="use1084" d="M338.823,299.54c0,-3.221 -2.616,-5.837 -5.837,-5.837l-11.674,0c-3.221,0 -5.836,2.616 -5.836,5.837l0,11.674c0,3.221 2.615,5.836 5.836,5.836l11.674,0c3.221,0 5.837,-2.615 5.837,-5.836l0,-11.674Z" style="fill:url(#_Linear19);"/><path id="use1092" d="M163.329,620.678c0,-3.359 -2.726,-6.086 -6.085,-6.086l-12.171,0c-3.358,0 -6.085,2.727 -6.085,6.086l0,12.171c0,3.358 2.727,6.085 6.085,6.085l12.171,0c3.359,0 6.085,-2.727 6.085,-6.085l0,-12.171Z" style="fill:url(#_Linear20);"/><path id="use1106" d="M939.971,328.849c0,-4.034 -3.275,-7.309 -7.309,-7.309l-14.617,0c-4.034,0 -7.309,3.275 -7.309,7.309l0,14.617c0,4.034 3.275,7.309 7.309,7.309l14.617,0c4.034,0 7.309,-3.275 7.309,-7.309l0,-14.617Z" style="fill:url(#_Linear21);"/><path id="use1114" d="M844.993,-2.374c0,-3.632 -2.949,-6.581 -6.581,-6.581l-13.161,0c-3.632,0 -6.581,2.949 -6.581,6.581l0,13.161c0,3.632 2.949,6.58 6.581,6.58l13.161,0c3.632,0 6.581,-2.948 6.581,-6.58l0,-13.161Z" style="fill:url(#_Linear22);"/><path id="use1116" d="M259.369,742.761c0,-2.63 -2.136,-4.766 -4.766,-4.766l-9.533,0c-2.631,0 -4.767,2.136 -4.767,4.766l0,9.534c0,2.63 2.136,4.766 4.767,4.766l9.533,0c2.63,0 4.766,-2.136 4.766,-4.766l0,-9.534Z" style="fill:url(#_Linear23);"/><path id="use1118" d="M799.887,377.257c0,-3.857 -3.131,-6.989 -6.989,-6.989l-13.978,0c-3.857,0 -6.989,3.132 -6.989,6.989l0,13.979c0,3.857 3.132,6.989 6.989,6.989l13.978,0c3.858,0 6.989,-3.132 6.989,-6.989l0,-13.979Z" style="fill:url(#_Linear24);"/><path id="use1128" d="M810.102,171.434c0,-2.407 -1.954,-4.362 -4.362,-4.362l-8.725,0c-2.408,0 -4.362,1.955 -4.362,4.362l0,8.725c0,2.408 1.954,4.363 4.362,4.363l8.725,0c2.408,0 4.362,-1.955 4.362,-4.363l0,-8.725Z" style="fill:url(#_Linear25);"/><path id="use1136" d="M7.029,442.07c0,-1.208 -0.981,-2.189 -2.189,-2.189l-4.378,0c-1.208,0 -2.189,0.981 -2.189,2.189l0,4.377c0,1.209 0.981,2.189 2.189,2.189l4.378,0c1.208,0 2.189,-0.98 2.189,-2.189l0,-4.377Z" style="fill:url(#_Linear26);"/><path id="use1154" d="M986.472,212.329c0,-1.143 -0.928,-2.071 -2.07,-2.071l-4.141,0c-1.142,0 -2.07,0.928 -2.07,2.071l0,4.14c0,1.142 0.928,2.07 2.07,2.07l4.141,0c1.142,0 2.07,-0.928 2.07,-2.07l0,-4.14Z" style="fill:url(#_Linear27);"/><path id="use1164" d="M404.298,405.513c0,-3.067 -2.49,-5.557 -5.557,-5.557l-11.113,0c-3.067,0 -5.557,2.49 -5.557,5.557l0,11.113c0,3.067 2.49,5.557 5.557,5.557l11.113,0c3.067,0 5.557,-2.49 5.557,-5.557l0,-11.113Z" style="fill:url(#_Linear28);"/><path id="use1180" d="M1246.78,41.586c0,-1.911 -1.552,-3.462 -3.462,-3.462l-6.924,0c-1.911,0 -3.462,1.551 -3.462,3.462l0,6.923c0,1.911 1.551,3.462 3.462,3.462l6.924,0c1.91,0 3.462,-1.551 3.462,-3.462l0,-6.923Z" style="fill:url(#_Linear29);"/><path id="use1188" d="M257.41,525.535c0,-3.304 -2.682,-5.986 -5.986,-5.986l-11.971,0c-3.304,0 -5.986,2.682 -5.986,5.986l0,11.971c0,3.304 2.682,5.986 5.986,5.986l11.971,0c3.304,0 5.986,-2.682 5.986,-5.986l0,-11.971Z" style="fill:url(#_Linear30);"/><path id="use1190" d="M941.827,560.153c0,-1.088 -0.883,-1.972 -1.972,-1.972l-3.943,0c-1.088,0 -1.971,0.884 -1.971,1.972l0,3.943c0,1.088 0.883,1.971 1.971,1.971l3.943,0c1.089,0 1.972,-0.883 1.972,-1.971l0,-3.943Z" style="fill:url(#_Linear31);"/><path id="use1194" d="M881.484,621.752c0,-1.335 -1.084,-2.419 -2.419,-2.419l-4.839,0c-1.335,0 -2.419,1.084 -2.419,2.419l0,4.839c0,1.335 1.084,2.419 2.419,2.419l4.839,0c1.335,0 2.419,-1.084 2.419,-2.419l0,-4.839Z" style="fill:url(#_Linear32);"/><path id="use1196" d="M46.927,597.635c0,-1.432 -1.164,-2.595 -2.596,-2.595l-5.192,0c-1.432,0 -2.595,1.163 -2.595,2.595l0,5.192c0,1.432 1.163,2.596 2.595,2.596l5.192,0c1.432,0 2.596,-1.164 2.596,-2.596l0,-5.192Z" style="fill:url(#_Linear33);"/><path id="use1198" d="M707.293,478.951c0,-1.989 -1.615,-3.603 -3.603,-3.603l-7.205,0c-1.989,0 -3.603,1.614 -3.603,3.603l0,7.205c0,1.989 1.614,3.603 3.603,3.603l7.205,0c1.988,0 3.603,-1.614 3.603,-3.603l0,-7.205Z" style="fill:url(#_Linear34);"/><path id="use1200" d="M897.892,112.546c0,-2.01 -1.632,-3.642 -3.642,-3.642l-7.285,0c-2.01,0 -3.642,1.632 -3.642,3.642l0,7.284c0,2.011 1.632,3.643 3.642,3.643l7.285,0c2.01,0 3.642,-1.632 3.642,-3.643l0,-7.284Z" style="fill:url(#_Linear35);"/></g></g><g id="Layer1"><g opacity="0.03"><clipPath id="_clip36"><rect id="logo-white" x="855.222" y="297.95" width="408.74" height="204.101"/></clipPath><g clip-path="url(#_clip36)"><g id="Layer-11" serif:id="Layer 1"><g id="text817"><path id="path838" d="M908.551,402.998l0,48.945l28.991,0c9.724,0 16.912,-1.998 21.565,-5.995c4.712,-4.057 7.068,-10.231 7.068,-18.522c0,-8.352 -2.356,-14.496 -7.068,-18.433c-4.653,-3.997 -11.841,-5.995 -21.565,-5.995l-28.991,0Zm0,-54.94l0,40.265l26.754,0c8.829,0 15.391,-1.64 19.686,-4.921c4.354,-3.341 6.532,-8.411 6.532,-15.211c0,-6.741 -2.178,-11.782 -6.532,-15.122c-4.295,-3.341 -10.857,-5.011 -19.686,-5.011l-26.754,0Zm-18.075,-14.854l46.171,0c13.78,0 24.398,2.864 31.855,8.59c7.456,5.727 11.185,13.869 11.185,24.428c0,8.172 -1.909,14.675 -5.727,19.506c-3.818,4.832 -9.425,7.845 -16.822,9.038c8.888,1.909 15.778,5.905 20.67,11.99c4.951,6.025 7.426,13.571 7.426,22.638c0,11.931 -4.056,21.147 -12.169,27.649c-8.112,6.502 -19.655,9.753 -34.628,9.753l-47.961,0l0,-133.592Z" style="fill-rule:nonzero;"/><path id="path840" d="M1034.18,402.998l0,48.945l28.991,0c9.723,0 16.911,-1.998 21.564,-5.995c4.713,-4.057 7.069,-10.231 7.069,-18.522c0,-8.352 -2.356,-14.496 -7.069,-18.433c-4.653,-3.997 -11.841,-5.995 -21.564,-5.995l-28.991,0Zm0,-54.94l0,40.265l26.754,0c8.828,0 15.39,-1.64 19.685,-4.921c4.355,-3.341 6.532,-8.411 6.532,-15.211c0,-6.741 -2.177,-11.782 -6.532,-15.122c-4.295,-3.341 -10.857,-5.011 -19.685,-5.011l-26.754,0Zm-18.075,-14.854l46.171,0c13.78,0 24.398,2.864 31.854,8.59c7.457,5.727 11.185,13.869 11.185,24.428c0,8.172 -1.909,14.675 -5.726,19.506c-3.818,4.832 -9.425,7.845 -16.822,9.038c8.888,1.909 15.778,5.905 20.669,11.99c4.951,6.025 7.427,13.571 7.427,22.638c0,11.931 -4.056,21.147 -12.169,27.649c-8.113,6.502 -19.656,9.753 -34.628,9.753l-47.961,0l0,-133.592Z" style="fill-rule:nonzero;"/><path id="path842" d="M1141.73,333.204l26.934,0l34.091,90.911l34.271,-90.911l26.933,0l0,133.592l-17.628,0l0,-117.307l-34.449,91.627l-18.164,0l-34.45,-91.627l0,117.307l-17.538,0l0,-133.592Z" style="fill-rule:nonzero;"/></g><path id="rect847" d="M855.222,297.95l0,204.101l408.741,0l0,-17.627l0,-17.627l-17.628,0l0,17.627l-373.485,0l0,-168.847l391.113,0l0,-17.627l-408.741,0Z" style="fill-rule:nonzero;"/></g></g><path d="M1345.02,326.135c0,-40.767 -33.098,-73.865 -73.865,-73.865l-423.124,0c-40.767,0 -73.865,33.098 -73.865,73.865l0,147.73c0,40.767 33.098,73.865 73.865,73.865l423.124,0c40.767,0 73.865,-33.098 73.865,-73.865l0,-147.73Z" style="fill:none;stroke:#000;stroke-width:10px;"/><path d="M1380.78,309.157c0,-50.138 -40.705,-90.843 -90.843,-90.843l-460.686,0c-50.137,0 -90.843,40.705 -90.843,90.843l0,181.686c0,50.138 40.706,90.843 90.843,90.843l460.686,0c50.138,0 90.843,-40.705 90.843,-90.843l0,-181.686Z" style="fill:none;stroke:#000;stroke-opacity:0.901961;stroke-width:9px;"/><path d="M1421.48,286.32c0,-62.742 -50.938,-113.68 -113.68,-113.68l-496.406,0c-62.742,0 -113.68,50.938 -113.68,113.68l0,227.36c0,62.742 50.938,113.68 113.68,113.68l496.406,0c62.742,0 113.68,-50.938 113.68,-113.68l0,-227.36Z" style="fill:none;stroke:#000;stroke-opacity:0.8;stroke-width:8px;"/><path d="M1467.31,262.451c0,-75.915 -61.634,-137.548 -137.549,-137.548l-540.33,0c-75.915,0 -137.548,61.633 -137.548,137.548l0,275.098c0,75.915 61.633,137.548 137.548,137.548l540.33,0c75.915,0 137.549,-61.633 137.549,-137.548l0,-275.098Z" style="fill:none;stroke:#000;stroke-opacity:0.701961;stroke-width:7px;"/><path d="M1515.83,242.893c0,-86.71 -70.397,-157.108 -157.107,-157.108l-598.252,0c-86.71,0 -157.107,70.398 -157.107,157.108l0,314.214c0,86.71 70.397,157.108 157.107,157.108l598.252,0c86.71,0 157.107,-70.398 157.107,-157.108l0,-314.214Z" style="fill:none;stroke:#000;stroke-opacity:0.6;stroke-width:6px;"/><path d="M1566.91,217.859c0,-100.526 -81.614,-182.14 -182.141,-182.14l-650.348,0c-100.526,0 -182.141,81.614 -182.141,182.14l0,364.282c0,100.526 81.615,182.14 182.141,182.14l650.348,0c100.527,0 182.141,-81.614 182.141,-182.14l0,-364.282Z" style="fill:none;stroke:#000;stroke-opacity:0.501961;stroke-width:5px;"/><path d="M1621.7,201.728c0,-109.429 -88.842,-198.271 -198.271,-198.271l-727.665,0c-109.43,0 -198.272,88.842 -198.272,198.271l0,396.544c0,109.429 88.842,198.271 198.272,198.271l727.665,0c109.429,0 198.271,-88.842 198.271,-198.271l0,-396.544Z" style="fill:none;stroke:#000;stroke-opacity:0.4;stroke-width:4px;"/></g></g><path d="M-867.974,957.682l-9.39,0l591.268,-979.581l9.391,0l-591.269,979.581Zm64.92,-0.024l-9.391,0l591.269,-979.581l9.391,0l-591.269,979.581Zm64.92,-0.023l-9.391,0l591.269,-979.581l9.391,0l-591.269,979.581Zm64.92,-0.024l-9.391,0l591.269,-979.581l9.39,0l-591.268,979.581Zm64.92,-0.023l-9.391,0l591.269,-979.581l9.39,0l-591.268,979.581Zm64.92,-0.024l-9.391,0l591.269,-979.58l9.39,0l-591.268,979.58Zm64.92,-0.023l-9.391,0l591.269,-979.581l9.39,0l-591.268,979.581Zm64.92,-0.023l-9.391,0l591.269,-979.581l9.39,0l-591.268,979.581Zm64.92,-0.024l-9.391,0l591.268,-979.581l9.391,0l-591.268,979.581Zm64.919,-0.023l-9.39,0l591.268,-979.581l9.391,0l-591.269,979.581Zm64.92,-0.024l-9.39,0l591.268,-979.581l9.391,0l-591.269,979.581Zm64.92,-0.023l-9.39,0l591.268,-979.581l9.391,0l-591.269,979.581Zm64.92,-0.024l-9.39,0l591.268,-979.581l9.391,0l-591.269,979.581Zm64.92,-0.023l-9.39,0l591.268,-979.581l9.391,0l-591.269,979.581Zm64.92,-0.023l-9.391,0l591.269,-979.581l9.391,0l-591.269,979.581Zm64.92,-0.024l-9.391,0l591.269,-979.581l9.391,0l-591.269,979.581Zm64.92,-0.023l-9.391,0l591.269,-979.581l9.39,0l-591.268,979.581Zm64.92,-0.024l-9.391,0l591.269,-979.581l9.39,0l-591.268,979.581Zm64.92,-0.023l-9.391,0l591.269,-979.581l9.39,0l-591.268,979.581Zm64.92,-0.024l-9.391,0l591.269,-979.581l9.39,0l-591.268,979.581Zm64.92,-0.023l-9.391,0l591.269,-979.581l9.39,0l-591.268,979.581Zm424.797,-611.807l0,15.558l-359.877,596.225l-9.391,0l369.268,-611.783Zm0,107.532l0,15.558l-294.958,488.67l-9.39,0l304.348,-504.228Zm35.262,49.112l9.391,0l-274.691,455.093l-9.39,0l274.69,-455.093Zm64.906,0l9.391,0l-274.677,455.069l-9.39,0l274.676,-455.069Zm64.906,0l9.391,0l-274.663,455.046l-9.39,0l274.662,-455.046Zm64.906,0l9.39,0l-274.648,455.022l-9.391,0l274.649,-455.022Zm64.905,0l9.391,0l-274.634,454.999l-9.391,0l274.634,-454.999Zm64.906,0l9.391,0l-274.62,454.975l-9.391,0l274.62,-454.975Zm-200.309,454.952l-9.391,0l274.606,-454.952l6.721,0l0,-11.134l309.942,-513.495l9.39,0l-591.268,979.581Zm64.92,-0.023l-9.391,0l591.269,-979.581l9.39,0l-591.268,979.581Zm64.92,-0.024l-9.391,0l591.269,-979.581l9.39,0l-591.268,979.581Zm64.92,-0.023l-9.391,0l591.269,-979.581l9.39,0l-591.268,979.581Zm77.176,-557.991l0,-15.558l245.022,-405.939l9.391,0l-254.413,421.497Zm-393.383,-100.991l-9.39,0l193.355,-320.341l9.391,0l-193.356,320.341Zm64.906,0l-9.391,0l193.37,-320.365l9.391,0l-193.37,320.365Zm64.906,0l-9.391,0l193.384,-320.388l9.391,0l-193.384,320.388Zm64.906,0l-9.391,0l193.398,-320.412l9.391,0l-193.398,320.412Zm64.905,0l-9.39,0l193.412,-320.435l9.391,0l-193.413,320.435Zm64.906,0l-9.39,0l193.426,-320.459l9.391,0l-193.427,320.459Zm258.347,-320.482l-9.391,0l9.391,0Z" style="fill-opacity:0.01;"/><defs><linearGradient id="_Linear1" x1="0" y1="0" x2="1" y2="0" gradientUnits="userSpaceOnUse" gradientTransform="matrix(1.13065e-15,18.465,-18.465,1.13065e-15,529.06,29.2104)"><stop offset="0" style="stop-color:#fff;stop-opacity:0.231373"/><stop offset="1" style="stop-color:#fff;stop-opacity:0.0509804"/></linearGradient><linearGradient id="_Linear2" x1="0" y1="0" x2="1" y2="0" gradientUnits="userSpaceOnUse" gradientTransform="matrix(1.6204e-15,26.4632,-26.4632,1.6204e-15,492.614,433.545)"><stop offset="0" style="stop-color:#fff;stop-opacity:0.231373"/><stop offset="1" style="stop-color:#fff;stop-opacity:0.0509804"/></linearGradient><linearGradient id="_Linear3" x1="0" y1="0" x2="1" y2="0" gradientUnits="userSpaceOnUse" gradientTransform="matrix(6.31687e-16,10.3162,-10.3162,6.31687e-16,901.654,213.93)"><stop offset="0" style="stop-color:#fff;stop-opacity:0.231373"/><stop offset="1" style="stop-color:#fff;stop-opacity:0.0509804"/></linearGradient><linearGradient id="_Linear4" x1="0" y1="0" x2="1" y2="0" gradientUnits="userSpaceOnUse" gradientTransform="matrix(8.52614e-16,13.9242,-13.9242,8.52614e-16,900.334,570.979)"><stop offset="0" style="stop-color:#fff;stop-opacity:0.231373"/><stop offset="1" style="stop-color:#fff;stop-opacity:0.0509804"/></linearGradient><linearGradient id="_Linear5" x1="0" y1="0" x2="1" y2="0" gradientUnits="userSpaceOnUse" gradientTransform="matrix(1.40038e-15,22.87,-22.87,1.40038e-15,365.346,514.712)"><stop offset="0" style="stop-color:#fff;stop-opacity:0.231373"/><stop offset="1" style="stop-color:#fff;stop-opacity:0.0509804"/></linearGradient><linearGradient id="_Linear6" x1="0" y1="0" x2="1" y2="0" gradientUnits="userSpaceOnUse" gradientTransform="matrix(1.35788e-15,22.1759,-22.1759,1.35788e-15,409.003,295.999)"><stop offset="0" style="stop-color:#fff;stop-opacity:0.231373"/><stop offset="1" style="stop-color:#fff;stop-opacity:0.0509804"/></linearGradient><linearGradient id="_Linear7" x1="0" y1="0" x2="1" y2="0" gradientUnits="userSpaceOnUse" gradientTransform="matrix(1.05293e-15,17.1956,-17.1956,1.05293e-15,371.745,795.288)"><stop offset="0" style="stop-color:#fff;stop-opacity:0.231373"/><stop offset="1" style="stop-color:#fff;stop-opacity:0.0509804"/></linearGradient><linearGradient id="_Linear8" x1="0" y1="0" x2="1" y2="0" gradientUnits="userSpaceOnUse" gradientTransform="matrix(6.40166e-16,10.4547,-10.4547,6.40166e-16,475.658,265.163)"><stop offset="0" style="stop-color:#fff;stop-opacity:0.231373"/><stop offset="1" style="stop-color:#fff;stop-opacity:0.0509804"/></linearGradient><linearGradient id="_Linear9" x1="0" y1="0" x2="1" y2="0" gradientUnits="userSpaceOnUse" gradientTransform="matrix(9.88285e-16,16.1399,-16.1399,9.88285e-16,396.232,559.974)"><stop offset="0" style="stop-color:#fff;stop-opacity:0.231373"/><stop offset="1" style="stop-color:#fff;stop-opacity:0.0509804"/></linearGradient><linearGradient id="_Linear10" x1="0" y1="0" x2="1" y2="0" gradientUnits="userSpaceOnUse" gradientTransform="matrix(5.72963e-16,9.3572,-9.3572,5.72963e-16,201.478,277.817)"><stop offset="0" style="stop-color:#fff;stop-opacity:0.231373"/><stop offset="1" style="stop-color:#fff;stop-opacity:0.0509804"/></linearGradient><linearGradient id="_Linear11" x1="0" y1="0" x2="1" y2="0" gradientUnits="userSpaceOnUse" gradientTransform="matrix(1.7533e-15,28.6336,-28.6336,1.7533e-15,532.505,-23.4416)"><stop offset="0" style="stop-color:#fff;stop-opacity:0.231373"/><stop offset="1" style="stop-color:#fff;stop-opacity:0.0509804"/></linearGradient><linearGradient id="_Linear12" x1="0" y1="0" x2="1" y2="0" gradientUnits="userSpaceOnUse" gradientTransform="matrix(7.56393e-16,12.3528,-12.3528,7.56393e-16,20.0961,349.632)"><stop offset="0" style="stop-color:#fff;stop-opacity:0.231373"/><stop offset="1" style="stop-color:#fff;stop-opacity:0.0509804"/></linearGradient><linearGradient id="_Linear13" x1="0" y1="0" x2="1" y2="0" gradientUnits="userSpaceOnUse" gradientTransform="matrix(1.69327e-15,27.6532,-27.6532,1.69327e-15,732.536,546.296)"><stop offset="0" style="stop-color:#fff;stop-opacity:0.231373"/><stop offset="1" style="stop-color:#fff;stop-opacity:0.0509804"/></linearGradient><linearGradient id="_Linear14" x1="0" y1="0" x2="1" y2="0" gradientUnits="userSpaceOnUse" gradientTransform="matrix(1.35637e-15,22.1512,-22.1512,1.35637e-15,474.564,331.481)"><stop offset="0" style="stop-color:#fff;stop-opacity:0.231373"/><stop offset="1" style="stop-color:#fff;stop-opacity:0.0509804"/></linearGradient><linearGradient id="_Linear15" x1="0" y1="0" x2="1" y2="0" gradientUnits="userSpaceOnUse" gradientTransform="matrix(8.08607e-16,13.2056,-13.2056,8.08607e-16,81.0584,581.782)"><stop offset="0" style="stop-color:#fff;stop-opacity:0.231373"/><stop offset="1" style="stop-color:#fff;stop-opacity:0.0509804"/></linearGradient><linearGradient id="_Linear16" x1="0" y1="0" x2="1" y2="0" gradientUnits="userSpaceOnUse" gradientTransform="matrix(1.40969e-15,23.022,-23.022,1.40969e-15,835.668,267.746)"><stop offset="0" style="stop-color:#fff;stop-opacity:0.231373"/><stop offset="1" style="stop-color:#fff;stop-opacity:0.0509804"/></linearGradient><linearGradient id="_Linear17" x1="0" y1="0" x2="1" y2="0" gradientUnits="userSpaceOnUse" gradientTransform="matrix(1.4014e-15,22.8867,-22.8867,1.4014e-15,761.574,255.409)"><stop offset="0" style="stop-color:#fff;stop-opacity:0.231373"/><stop offset="1" style="stop-color:#fff;stop-opacity:0.0509804"/></linearGradient><linearGradient id="_Linear18" x1="0" y1="0" x2="1" y2="0" gradientUnits="userSpaceOnUse" gradientTransform="matrix(1.0103e-15,16.4995,-16.4995,1.0103e-15,693.051,570.245)"><stop offset="0" style="stop-color:#fff;stop-opacity:0.231373"/><stop offset="1" style="stop-color:#fff;stop-opacity:0.0509804"/></linearGradient><linearGradient id="_Linear19" x1="0" y1="0" x2="1" y2="0" gradientUnits="userSpaceOnUse" gradientTransform="matrix(1.44143e-15,23.5403,-23.5403,1.44143e-15,327.399,293.76)"><stop offset="0" style="stop-color:#fff;stop-opacity:0.231373"/><stop offset="1" style="stop-color:#fff;stop-opacity:0.0509804"/></linearGradient><linearGradient id="_Linear20" x1="0" y1="0" x2="1" y2="0" gradientUnits="userSpaceOnUse" gradientTransform="matrix(1.50284e-15,24.5433,-24.5433,1.50284e-15,151.419,614.651)"><stop offset="0" style="stop-color:#fff;stop-opacity:0.231373"/><stop offset="1" style="stop-color:#fff;stop-opacity:0.0509804"/></linearGradient><linearGradient id="_Linear21" x1="0" y1="0" x2="1" y2="0" gradientUnits="userSpaceOnUse" gradientTransform="matrix(1.80491e-15,29.4764,-29.4764,1.80491e-15,925.666,321.611)"><stop offset="0" style="stop-color:#fff;stop-opacity:0.231373"/><stop offset="1" style="stop-color:#fff;stop-opacity:0.0509804"/></linearGradient><linearGradient id="_Linear22" x1="0" y1="0" x2="1" y2="0" gradientUnits="userSpaceOnUse" gradientTransform="matrix(1.62511e-15,26.5401,-26.5401,1.62511e-15,832.113,-8.89149)"><stop offset="0" style="stop-color:#fff;stop-opacity:0.231373"/><stop offset="1" style="stop-color:#fff;stop-opacity:0.0509804"/></linearGradient><linearGradient id="_Linear23" x1="0" y1="0" x2="1" y2="0" gradientUnits="userSpaceOnUse" gradientTransform="matrix(1.17714e-15,19.2241,-19.2241,1.17714e-15,250.04,738.041)"><stop offset="0" style="stop-color:#fff;stop-opacity:0.231373"/><stop offset="1" style="stop-color:#fff;stop-opacity:0.0509804"/></linearGradient><linearGradient id="_Linear24" x1="0" y1="0" x2="1" y2="0" gradientUnits="userSpaceOnUse" gradientTransform="matrix(1.72602e-15,28.1881,-28.1881,1.72602e-15,786.208,370.336)"><stop offset="0" style="stop-color:#fff;stop-opacity:0.231373"/><stop offset="1" style="stop-color:#fff;stop-opacity:0.0509804"/></linearGradient><linearGradient id="_Linear25" x1="0" y1="0" x2="1" y2="0" gradientUnits="userSpaceOnUse" gradientTransform="matrix(1.07734e-15,17.5943,-17.5943,1.07734e-15,801.564,167.114)"><stop offset="0" style="stop-color:#fff;stop-opacity:0.231373"/><stop offset="1" style="stop-color:#fff;stop-opacity:0.0509804"/></linearGradient><linearGradient id="_Linear26" x1="0" y1="0" x2="1" y2="0" gradientUnits="userSpaceOnUse" gradientTransform="matrix(5.40568e-16,8.82815,-8.82815,5.40568e-16,2.74481,439.902)"><stop offset="0" style="stop-color:#fff;stop-opacity:0.231373"/><stop offset="1" style="stop-color:#fff;stop-opacity:0.0509804"/></linearGradient><linearGradient id="_Linear27" x1="0" y1="0" x2="1" y2="0" gradientUnits="userSpaceOnUse" gradientTransform="matrix(5.11236e-16,8.34912,-8.34912,5.11236e-16,982.42,210.278)"><stop offset="0" style="stop-color:#fff;stop-opacity:0.231373"/><stop offset="1" style="stop-color:#fff;stop-opacity:0.0509804"/></linearGradient><linearGradient id="_Linear28" x1="0" y1="0" x2="1" y2="0" gradientUnits="userSpaceOnUse" gradientTransform="matrix(1.37227e-15,22.4109,-22.4109,1.37227e-15,393.422,400.01)"><stop offset="0" style="stop-color:#fff;stop-opacity:0.231373"/><stop offset="1" style="stop-color:#fff;stop-opacity:0.0509804"/></linearGradient><linearGradient id="_Linear29" x1="0" y1="0" x2="1" y2="0" gradientUnits="userSpaceOnUse" gradientTransform="matrix(8.54926e-16,13.962,-13.962,8.54926e-16,1240,38.1572)"><stop offset="0" style="stop-color:#fff;stop-opacity:0.231373"/><stop offset="1" style="stop-color:#fff;stop-opacity:0.0509804"/></linearGradient><linearGradient id="_Linear30" x1="0" y1="0" x2="1" y2="0" gradientUnits="userSpaceOnUse" gradientTransform="matrix(1.47824e-15,24.1415,-24.1415,1.47824e-15,245.694,519.607)"><stop offset="0" style="stop-color:#fff;stop-opacity:0.231373"/><stop offset="1" style="stop-color:#fff;stop-opacity:0.0509804"/></linearGradient><linearGradient id="_Linear31" x1="0" y1="0" x2="1" y2="0" gradientUnits="userSpaceOnUse" gradientTransform="matrix(4.86898e-16,7.95164,-7.95164,4.86898e-16,937.968,558.2)"><stop offset="0" style="stop-color:#fff;stop-opacity:0.231373"/><stop offset="1" style="stop-color:#fff;stop-opacity:0.0509804"/></linearGradient><linearGradient id="_Linear32" x1="0" y1="0" x2="1" y2="0" gradientUnits="userSpaceOnUse" gradientTransform="matrix(5.9748e-16,9.75759,-9.75759,5.9748e-16,876.749,619.356)"><stop offset="0" style="stop-color:#fff;stop-opacity:0.231373"/><stop offset="1" style="stop-color:#fff;stop-opacity:0.0509804"/></linearGradient><linearGradient id="_Linear33" x1="0" y1="0" x2="1" y2="0" gradientUnits="userSpaceOnUse" gradientTransform="matrix(6.41027e-16,10.4688,-10.4688,6.41027e-16,41.8462,595.065)"><stop offset="0" style="stop-color:#fff;stop-opacity:0.231373"/><stop offset="1" style="stop-color:#fff;stop-opacity:0.0509804"/></linearGradient><linearGradient id="_Linear34" x1="0" y1="0" x2="1" y2="0" gradientUnits="userSpaceOnUse" gradientTransform="matrix(8.89717e-16,14.5302,-14.5302,8.89717e-16,700.241,475.383)"><stop offset="0" style="stop-color:#fff;stop-opacity:0.231373"/><stop offset="1" style="stop-color:#fff;stop-opacity:0.0509804"/></linearGradient><linearGradient id="_Linear35" x1="0" y1="0" x2="1" y2="0" gradientUnits="userSpaceOnUse" gradientTransform="matrix(8.99482e-16,14.6897,-14.6897,8.99482e-16,890.763,108.939)"><stop offset="0" style="stop-color:#fff;stop-opacity:0.231373"/><stop offset="1" style="stop-color:#fff;stop-opacity:0.0509804"/></linearGradient></defs></svg>