<?xml version="1.0" encoding="UTF-8" standalone="no"?><!DOCTYPE svg PUBLIC "-//W3C//DTD SVG 1.1//EN" "http://www.w3.org/Graphics/SVG/1.1/DTD/svg11.dtd"><svg width="100%" height="100%" viewBox="0 0 285 99" version="1.1" xmlns="http://www.w3.org/2000/svg" xmlns:xlink="http://www.w3.org/1999/xlink" xml:space="preserve" xmlns:serif="http://www.serif.com/" style="fill-rule:evenodd;clip-rule:evenodd;stroke-linejoin:round;stroke-miterlimit:1.41421;"><g id="Layer-1" serif:id="Layer 1"><rect id="rect1513" x="-6.061" y="0" width="296.606" height="98.869" style="fill:#3c91e6;"/><path id="path2568" d="M57.228,49.487l0,2.595l21.461,0l0,-2.595l-21.461,0Zm128.77,0l0,2.595l21.462,0l0,-2.595l-21.462,0Zm0,2.595l-21.462,0l0,2.595l21.462,0l0,-2.595Zm-21.462,2.595l-42.923,0l0,2.595l42.923,0l0,-2.595Zm-42.923,2.595l-42.924,0l0,2.595l42.924,0l0,-2.595Zm85.847,2.595l0,2.595l42.925,0l0,-2.595l-42.925,0Z" style="fill:#318ce5;fill-rule:nonzero;"/><path id="path2534" d="M329.694,19.038l0,4.524l-37.414,0l0,-4.524l37.414,0Zm-224.484,0l0,4.524l-37.414,0l0,-4.524l37.414,0Zm0,4.524l37.414,0l0,4.524l-37.414,0l0,-4.524Zm37.414,4.524l74.828,0l0,4.524l-74.828,0l0,-4.524Zm74.828,4.524l74.828,0l0,4.523l-74.828,0l0,-4.523Zm-149.656,4.523l0,4.524l-74.83,0l0,-4.524l74.83,0Z" style="fill:#2d89e4;fill-rule:nonzero;"/><path id="path2532" d="M22.242,71.781l0,4.524l30.331,0l0,-4.524l-30.331,0Zm181.985,0l0,4.524l30.331,0l0,-4.524l-30.331,0Zm0,4.524l-30.331,0l0,4.524l30.331,0l0,-4.524Zm-30.331,4.524l-60.661,0l0,4.524l60.661,0l0,-4.524Zm-60.661,4.524l-60.662,0l0,4.523l60.662,0l0,-4.523Zm121.323,4.523l0,4.524l60.663,0l0,-4.524l-60.663,0Z" style="fill:#2785e3;fill-rule:nonzero;"/><path id="rect2505" d="M15.522,15.355l0,4.525l11.819,0l0,-4.525l-11.819,0Zm70.914,0l0,4.525l11.819,0l0,-4.525l-11.819,0Zm0,4.525l-11.819,0l0,4.524l11.819,0l0,-4.524Zm-11.819,4.524l-23.638,0l0,4.524l23.638,0l0,-4.524Zm-23.638,4.524l-23.638,0l0,4.523l23.638,0l0,-4.523Zm47.276,4.523l0,4.524l23.638,0l0,-4.524l-23.638,0Z" style="fill:#1b78d4;fill-rule:nonzero;"/><path id="rect815" d="M254.991,51.302c0,-0.956 -0.776,-1.732 -1.732,-1.732l-3.463,0c-0.955,0 -1.731,0.776 -1.731,1.732l0,3.463c0,0.955 0.776,1.731 1.731,1.731l3.463,0c0.956,0 1.732,-0.776 1.732,-1.731l0,-3.463Z" style="fill:url(#_Linear1);stroke:#000;stroke-opacity:0;stroke-width:1px;"/><path id="use2361" d="M1.495,29.048c0,-0.475 -0.386,-0.86 -0.86,-0.86l-1.721,0c-0.474,0 -0.86,0.385 -0.86,0.86l0,1.721c0,0.474 0.386,0.86 0.86,0.86l1.721,0c0.474,0 0.86,-0.386 0.86,-0.86l0,-1.721Z" style="fill:url(#_Linear2);stroke:#000;stroke-opacity:0;stroke-width:1px;"/><path id="use2363" d="M6.581,56.161c0,-1.236 -1.003,-2.24 -2.239,-2.24l-4.48,0c-1.236,0 -2.239,1.004 -2.239,2.24l0,4.479c0,1.236 1.003,2.239 2.239,2.239l4.48,0c1.236,0 2.239,-1.003 2.239,-2.239l0,-4.479Z" style="fill:url(#_Linear3);stroke:#000;stroke-opacity:0;stroke-width:1px;"/><path id="use2365" d="M30.402,32.093c0,-0.758 -0.615,-1.374 -1.373,-1.374l-2.747,0c-0.758,0 -1.373,0.616 -1.373,1.374l0,2.746c0,0.758 0.615,1.373 1.373,1.373l2.747,0c0.758,0 1.373,-0.615 1.373,-1.373l0,-2.746Z" style="fill:url(#_Linear4);stroke:#000;stroke-opacity:0;stroke-width:1px;"/><path id="use2369" d="M42.364,61.327c0,-0.891 -0.724,-1.614 -1.614,-1.614l-3.227,0c-0.891,0 -1.614,0.723 -1.614,1.614l0,3.227c0,0.891 0.723,1.614 1.614,1.614l3.227,0c0.89,0 1.614,-0.723 1.614,-1.614l0,-3.227Z" style="fill:url(#_Linear5);stroke:#000;stroke-opacity:0;stroke-width:1px;"/><path id="use2371" d="M33.076,49.617c0,-0.851 -0.691,-1.541 -1.541,-1.541l-3.082,0c-0.851,0 -1.542,0.69 -1.542,1.541l0,3.082c0,0.851 0.691,1.541 1.542,1.541l3.082,0c0.85,0 1.541,-0.69 1.541,-1.541l0,-3.082Z" style="fill:url(#_Linear6);stroke:#000;stroke-opacity:0;stroke-width:1px;"/><path id="use2381" d="M146.069,68.355c0,-1.263 -1.025,-2.288 -2.287,-2.288l-4.576,0c-1.262,0 -2.287,1.025 -2.287,2.288l0,4.575c0,1.262 1.025,2.287 2.287,2.287l4.576,0c1.262,0 2.287,-1.025 2.287,-2.287l0,-4.575Z" style="fill:url(#_Linear7);stroke:#000;stroke-opacity:0;stroke-width:1px;"/><path id="use2385" d="M42.56,-6.021c0,-0.982 -0.798,-1.779 -1.78,-1.779l-3.559,0c-0.982,0 -1.779,0.797 -1.779,1.779l0,3.559c0,0.982 0.797,1.779 1.779,1.779l3.559,0c0.982,0 1.78,-0.797 1.78,-1.779l0,-3.559Z" style="fill:url(#_Linear8);stroke:#000;stroke-opacity:0;stroke-width:1px;"/><path id="use2387" d="M46.497,23.288c0,-1.356 -1.101,-2.457 -2.457,-2.457l-4.915,0c-1.356,0 -2.457,1.101 -2.457,2.457l0,4.915c0,1.356 1.101,2.457 2.457,2.457l4.915,0c1.356,0 2.457,-1.101 2.457,-2.457l0,-4.915Z" style="fill:url(#_Linear9);stroke:#000;stroke-opacity:0;stroke-width:1px;"/><path id="use2389" d="M55.533,55.345c0,-0.629 -0.511,-1.14 -1.141,-1.14l-2.28,0c-0.63,0 -1.141,0.511 -1.141,1.14l0,2.281c0,0.63 0.511,1.141 1.141,1.141l2.28,0c0.63,0 1.141,-0.511 1.141,-1.141l0,-2.281Z" style="fill:url(#_Linear10);stroke:#000;stroke-opacity:0;stroke-width:1px;"/><path id="use2391" d="M135.1,45.706c0,-0.641 -0.52,-1.161 -1.161,-1.161l-2.322,0c-0.641,0 -1.161,0.52 -1.161,1.161l0,2.322c0,0.641 0.52,1.161 1.161,1.161l2.322,0c0.641,0 1.161,-0.52 1.161,-1.161l0,-2.322Z" style="fill:url(#_Linear11);stroke:#000;stroke-opacity:0;stroke-width:1px;"/><path id="use2399" d="M140.896,13.281c0,-0.705 -0.573,-1.278 -1.279,-1.278l-2.556,0c-0.705,0 -1.278,0.573 -1.278,1.278l0,2.557c0,0.705 0.573,1.278 1.278,1.278l2.556,0c0.706,0 1.279,-0.573 1.279,-1.278l0,-2.557Z" style="fill:url(#_Linear12);stroke:#000;stroke-opacity:0;stroke-width:1px;"/><path id="use2401" d="M110.446,-2.132c0,-0.627 -0.509,-1.137 -1.137,-1.137l-2.274,0c-0.627,0 -1.137,0.51 -1.137,1.137l0,2.274c0,0.628 0.51,1.137 1.137,1.137l2.274,0c0.628,0 1.137,-0.509 1.137,-1.137l0,-2.274Z" style="fill:url(#_Linear13);stroke:#000;stroke-opacity:0;stroke-width:1px;"/><path id="use2403" d="M99.474,36.761c0,-1.151 -0.934,-2.085 -2.085,-2.085l-4.171,0c-1.15,0 -2.085,0.934 -2.085,2.085l0,4.17c0,1.151 0.935,2.085 2.085,2.085l4.171,0c1.151,0 2.085,-0.934 2.085,-2.085l0,-4.17Z" style="fill:url(#_Linear14);stroke:#000;stroke-opacity:0;stroke-width:1px;"/><path id="use2405" d="M121.15,52.004c0,-1.273 -1.033,-2.306 -2.306,-2.306l-4.612,0c-1.273,0 -2.306,1.033 -2.306,2.306l0,4.612c0,1.273 1.033,2.306 2.306,2.306l4.612,0c1.273,0 2.306,-1.033 2.306,-2.306l0,-4.612Z" style="fill:url(#_Linear15);stroke:#000;stroke-opacity:0;stroke-width:1px;"/><path id="use2407" d="M101.277,87.817c0,-1.027 -0.834,-1.861 -1.861,-1.861l-3.722,0c-1.028,0 -1.862,0.834 -1.862,1.861l0,3.722c0,1.027 0.834,1.861 1.862,1.861l3.722,0c1.027,0 1.861,-0.834 1.861,-1.861l0,-3.722Z" style="fill:url(#_Linear16);stroke:#000;stroke-opacity:0;stroke-width:1px;"/><path id="use2409" d="M138.354,69.426c0,-1.103 -0.895,-1.998 -1.998,-1.998l-3.994,0c-1.102,0 -1.997,0.895 -1.997,1.998l0,3.994c0,1.102 0.895,1.997 1.997,1.997l3.994,0c1.103,0 1.998,-0.895 1.998,-1.997l0,-3.994Z" style="fill:url(#_Linear17);stroke:#000;stroke-opacity:0;stroke-width:1px;"/><path id="use2415" d="M266.607,72.973c0,-0.956 -0.776,-1.732 -1.732,-1.732l-3.464,0c-0.956,0 -1.732,0.776 -1.732,1.732l0,3.464c0,0.956 0.776,1.733 1.732,1.733l3.464,0c0.956,0 1.732,-0.777 1.732,-1.733l0,-3.464Z" style="fill:url(#_Linear18);stroke:#000;stroke-opacity:0;stroke-width:1px;"/><path id="use2417" d="M262.723,16.002c0,-0.586 -0.476,-1.063 -1.062,-1.063l-2.126,0c-0.586,0 -1.062,0.477 -1.062,1.063l0,2.125c0,0.587 0.476,1.063 1.062,1.063l2.126,0c0.586,0 1.062,-0.476 1.062,-1.063l0,-2.125Z" style="fill:url(#_Linear19);stroke:#000;stroke-opacity:0;stroke-width:1px;"/><path id="use2421" d="M196.399,24.258c0,-0.625 -0.507,-1.133 -1.133,-1.133l-2.266,0c-0.625,0 -1.133,0.508 -1.133,1.133l0,2.266c0,0.626 0.508,1.133 1.133,1.133l2.266,0c0.626,0 1.133,-0.507 1.133,-1.133l0,-2.266Z" style="fill:url(#_Linear20);stroke:#000;stroke-opacity:0;stroke-width:1px;"/><path id="use2423" d="M244.716,39.024c0,-1.043 -0.847,-1.89 -1.89,-1.89l-3.779,0c-1.042,0 -1.889,0.847 -1.889,1.89l0,3.779c0,1.042 0.847,1.889 1.889,1.889l3.779,0c1.043,0 1.89,-0.847 1.89,-1.889l0,-3.779Z" style="fill:url(#_Linear21);stroke:#000;stroke-opacity:0;stroke-width:1px;"/><path id="use2425" d="M247.424,58.511c0,-0.449 -0.365,-0.814 -0.815,-0.814l-1.629,0c-0.45,0 -0.815,0.365 -0.815,0.814l0,1.63c0,0.449 0.365,0.814 0.815,0.814l1.629,0c0.45,0 0.815,-0.365 0.815,-0.814l0,-1.63Z" style="fill:url(#_Linear22);stroke:#000;stroke-opacity:0;stroke-width:1px;"/><path id="use2431" d="M250.297,46.199c0,-0.46 -0.373,-0.833 -0.833,-0.833l-1.665,0c-0.46,0 -0.833,0.373 -0.833,0.833l0,1.666c0,0.46 0.373,0.833 0.833,0.833l1.665,0c0.46,0 0.833,-0.373 0.833,-0.833l0,-1.666Z" style="fill:url(#_Linear23);stroke:#000;stroke-opacity:0;stroke-width:1px;"/><path id="use2435" d="M206.178,37.584c0,-0.708 -0.575,-1.283 -1.284,-1.283l-2.567,0c-0.708,0 -1.283,0.575 -1.283,1.283l0,2.567c0,0.708 0.575,1.283 1.283,1.283l2.567,0c0.709,0 1.284,-0.575 1.284,-1.283l0,-2.567Z" style="fill:url(#_Linear24);stroke:#000;stroke-opacity:0;stroke-width:1px;"/><path id="use2437" d="M129.889,97.516c0,-0.431 -0.35,-0.78 -0.78,-0.78l-1.56,0c-0.431,0 -0.78,0.349 -0.78,0.78l0,1.56c0,0.43 0.349,0.78 0.78,0.78l1.56,0c0.43,0 0.78,-0.35 0.78,-0.78l0,-1.56Z" style="fill:url(#_Linear25);stroke:#000;stroke-opacity:0;stroke-width:1px;"/><path id="use2439" d="M179.796,73.803c0,-0.461 -0.374,-0.834 -0.834,-0.834l-1.668,0c-0.461,0 -0.834,0.373 -0.834,0.834l0,1.668c0,0.46 0.373,0.834 0.834,0.834l1.668,0c0.46,0 0.834,-0.374 0.834,-0.834l0,-1.668Z" style="fill:url(#_Linear26);stroke:#000;stroke-opacity:0;stroke-width:1px;"/><path id="use2447" d="M119.347,85.54c0,-0.565 -0.459,-1.024 -1.025,-1.024l-2.049,0c-0.565,0 -1.025,0.459 -1.025,1.024l0,2.049c0,0.566 0.46,1.025 1.025,1.025l2.049,0c0.566,0 1.025,-0.459 1.025,-1.025l0,-2.049Z" style="fill:url(#_Linear27);stroke:#000;stroke-opacity:0;stroke-width:1px;"/><path id="use2449" d="M55.641,25.57c0,-0.644 -0.522,-1.166 -1.165,-1.166l-2.332,0c-0.643,0 -1.165,0.522 -1.165,1.166l0,2.331c0,0.643 0.522,1.166 1.165,1.166l2.332,0c0.643,0 1.165,-0.523 1.165,-1.166l0,-2.331Z" style="fill:url(#_Linear28);stroke:#000;stroke-opacity:0;stroke-width:1px;"/><path id="use2451" d="M34.892,3.012c0,-1.216 -0.987,-2.203 -2.203,-2.203l-4.405,0c-1.215,0 -2.202,0.987 -2.202,2.203l0,4.405c0,1.215 0.987,2.202 2.202,2.202l4.405,0c1.216,0 2.203,-0.987 2.203,-2.202l0,-4.405Z" style="fill:url(#_Linear29);stroke:#000;stroke-opacity:0;stroke-width:1px;"/><path id="use2455" d="M3.613,47.518c0,-0.86 -0.698,-1.559 -1.558,-1.559l-3.116,0c-0.86,0 -1.558,0.699 -1.558,1.559l0,3.116c0,0.86 0.698,1.558 1.558,1.558l3.116,0c0.86,0 1.558,-0.698 1.558,-1.558l0,-3.116Z" style="fill:url(#_Linear30);stroke:#000;stroke-opacity:0;stroke-width:1px;"/><path id="use2457" d="M31.284,26.75c0,-0.719 -0.584,-1.303 -1.303,-1.303l-2.605,0c-0.719,0 -1.302,0.584 -1.302,1.303l0,2.605c0,0.719 0.583,1.302 1.302,1.302l2.605,0c0.719,0 1.303,-0.583 1.303,-1.302l0,-2.605Z" style="fill:url(#_Linear31);stroke:#000;stroke-opacity:0;stroke-width:1px;"/><path id="use2459" d="M35.173,27.76c0,-1.031 -0.837,-1.868 -1.868,-1.868l-3.736,0c-1.031,0 -1.868,0.837 -1.868,1.868l0,3.736c0,1.031 0.837,1.868 1.868,1.868l3.736,0c1.031,0 1.868,-0.837 1.868,-1.868l0,-3.736Z" style="fill:url(#_Linear32);stroke:#000;stroke-opacity:0;stroke-width:1px;"/><path id="use2465" d="M281.283,25.455c0,-1.241 -1.008,-2.249 -2.249,-2.249l-4.498,0c-1.242,0 -2.249,1.008 -2.249,2.249l0,4.498c0,1.242 1.007,2.249 2.249,2.249l4.498,0c1.241,0 2.249,-1.007 2.249,-2.249l0,-4.498Z" style="fill:url(#_Linear33);stroke:#000;stroke-opacity:0;stroke-width:1px;"/><path id="use2469" d="M243.144,64.996c0,-1.217 -0.988,-2.206 -2.206,-2.206l-4.412,0c-1.218,0 -2.206,0.989 -2.206,2.206l0,4.412c0,1.218 0.988,2.206 2.206,2.206l4.412,0c1.218,0 2.206,-0.988 2.206,-2.206l0,-4.412Z" style="fill:url(#_Linear34);stroke:#000;stroke-opacity:0;stroke-width:1px;"/><path id="use2471" d="M101.048,56.755c0,-0.931 -0.756,-1.687 -1.687,-1.687l-3.372,0c-0.931,0 -1.687,0.756 -1.687,1.687l0,3.372c0,0.931 0.756,1.687 1.687,1.687l3.372,0c0.931,0 1.687,-0.756 1.687,-1.687l0,-3.372Z" style="fill:url(#_Linear35);stroke:#000;stroke-opacity:0;stroke-width:1px;"/><path id="use2473" d="M49.364,47.31c0,-0.796 -0.646,-1.442 -1.442,-1.442l-2.884,0c-0.796,0 -1.443,0.646 -1.443,1.442l0,2.884c0,0.796 0.647,1.442 1.443,1.442l2.884,0c0.796,0 1.442,-0.646 1.442,-1.442l0,-2.884Z" style="fill:url(#_Linear36);stroke:#000;stroke-opacity:0;stroke-width:1px;"/><path id="use2475" d="M90.061,15.534c0,-0.72 -0.585,-1.305 -1.305,-1.305l-2.608,0c-0.72,0 -1.304,0.585 -1.304,1.305l0,2.608c0,0.72 0.584,1.304 1.304,1.304l2.608,0c0.72,0 1.305,-0.584 1.305,-1.304l0,-2.608Z" style="fill:url(#_Linear37);stroke:#000;stroke-opacity:0;stroke-width:1px;"/><path id="use2477" d="M112.449,30.121c0,-0.485 -0.394,-0.879 -0.88,-0.879l-1.759,0c-0.486,0 -0.88,0.394 -0.88,0.879l0,1.76c0,0.485 0.394,0.879 0.88,0.879l1.759,0c0.486,0 0.88,-0.394 0.88,-0.879l0,-1.76Z" style="fill:url(#_Linear38);stroke:#000;stroke-opacity:0;stroke-width:1px;"/><path id="use2479" d="M171.905,31.168c0,-1.472 -1.195,-2.668 -2.667,-2.668l-5.335,0c-1.473,0 -2.668,1.196 -2.668,2.668l0,5.335c0,1.472 1.195,2.667 2.668,2.667l5.335,0c1.472,0 2.667,-1.195 2.667,-2.667l0,-5.335Z" style="fill:url(#_Linear39);stroke:#000;stroke-opacity:0;stroke-width:1px;"/><path id="use2481" d="M183.338,54.904c0,-0.623 -0.506,-1.129 -1.13,-1.129l-2.258,0c-0.623,0 -1.129,0.506 -1.129,1.129l0,2.258c0,0.623 0.506,1.129 1.129,1.129l2.258,0c0.624,0 1.13,-0.506 1.13,-1.129l0,-2.258Z" style="fill:url(#_Linear40);stroke:#000;stroke-opacity:0;stroke-width:1px;"/><path id="use2483" d="M218.537,75.188c0,-0.978 -0.795,-1.773 -1.773,-1.773l-3.548,0c-0.979,0 -1.773,0.795 -1.773,1.773l0,3.548c0,0.979 0.794,1.773 1.773,1.773l3.548,0c0.978,0 1.773,-0.794 1.773,-1.773l0,-3.548Z" style="fill:url(#_Linear41);stroke:#000;stroke-opacity:0;stroke-width:1px;"/><path id="use2485" d="M247.996,96.368c0,-1.423 -1.156,-2.579 -2.579,-2.579l-5.159,0c-1.424,0 -2.58,1.156 -2.58,2.579l0,5.16c0,1.423 1.156,2.579 2.58,2.579l5.159,0c1.423,0 2.579,-1.156 2.579,-2.579l0,-5.16Z" style="fill:url(#_Linear42);stroke:#000;stroke-opacity:0;stroke-width:1px;"/><path id="use2487" d="M283.969,64.426c0,-0.998 -0.811,-1.809 -1.809,-1.809l-3.616,0c-0.998,0 -1.808,0.811 -1.808,1.809l0,3.616c0,0.998 0.81,1.808 1.808,1.808l3.616,0c0.998,0 1.809,-0.81 1.809,-1.808l0,-3.616Z" style="fill:url(#_Linear43);stroke:#000;stroke-opacity:0;stroke-width:1px;"/><path id="use2489" d="M271.757,81.054c0,-0.565 -0.459,-1.024 -1.024,-1.024l-2.049,0c-0.565,0 -1.024,0.459 -1.024,1.024l0,2.049c0,0.565 0.459,1.024 1.024,1.024l2.049,0c0.565,0 1.024,-0.459 1.024,-1.024l0,-2.049Z" style="fill:url(#_Linear44);stroke:#000;stroke-opacity:0;stroke-width:1px;"/><path id="use2491" d="M216.846,33.873c0,-0.801 -0.651,-1.453 -1.453,-1.453l-2.906,0c-0.802,0 -1.453,0.652 -1.453,1.453l0,2.906c0,0.802 0.651,1.453 1.453,1.453l2.906,0c0.802,0 1.453,-0.651 1.453,-1.453l0,-2.906Z" style="fill:url(#_Linear45);stroke:#000;stroke-opacity:0;stroke-width:1px;"/><path id="use2493" d="M227.598,4.821c0,-1.093 -0.887,-1.98 -1.98,-1.98l-3.959,0c-1.093,0 -1.98,0.887 -1.98,1.98l0,3.96c0,1.093 0.887,1.98 1.98,1.98l3.959,0c1.093,0 1.98,-0.887 1.98,-1.98l0,-3.96Z" style="fill:url(#_Linear46);stroke:#000;stroke-opacity:0;stroke-width:1px;"/><path id="use2501" d="M13.996,39.097c0,-1.034 -0.838,-1.873 -1.872,-1.873l-3.744,0c-1.033,0 -1.872,0.839 -1.872,1.873l0,3.744c0,1.033 0.839,1.872 1.872,1.872l3.744,0c1.034,0 1.872,-0.839 1.872,-1.872l0,-3.744Z" style="fill:url(#_Linear47);stroke:#000;stroke-opacity:0;stroke-width:1px;"/><path id="use2503" d="M54.406,75.461c0,-1.331 -1.08,-2.411 -2.411,-2.411l-4.822,0c-1.331,0 -2.411,1.08 -2.411,2.411l0,4.822c0,1.331 1.08,2.411 2.411,2.411l4.822,0c1.331,0 2.411,-1.08 2.411,-2.411l0,-4.822Z" style="fill:url(#_Linear48);stroke:#000;stroke-opacity:0;stroke-width:1px;"/><path id="rect1572" d="M199.148,27.653l0,8.713l45.525,0l0,-8.713l-45.525,0Zm-136.574,8.713l0,8.712l45.524,0l0,-8.712l-45.524,0Zm45.524,8.712l0,8.713l45.526,0l0,-8.713l-45.526,0Zm45.526,8.713l0,8.712l22.762,0l0,-8.712l-22.762,0Zm22.762,8.712l0,8.713l22.762,0l0,-8.713l-22.762,0Zm-136.574,0l0,8.713l22.762,0l0,-8.713l-22.762,0Z" style="fill:#96c4f2;fill-rule:nonzero;"/></g><defs><linearGradient id="_Linear1" x1="0" y1="0" x2="1" y2="0" gradientUnits="userSpaceOnUse" gradientTransform="matrix(4.27621e-16,6.98358,-6.98358,4.27621e-16,251.602,49.5862)"><stop offset="0" style="stop-color:#fff;stop-opacity:0.231373"/><stop offset="1" style="stop-color:#fff;stop-opacity:0.0509804"/></linearGradient><linearGradient id="_Linear2" x1="0" y1="0" x2="1" y2="0" gradientUnits="userSpaceOnUse" gradientTransform="matrix(2.12429e-16,3.46923,-3.46923,2.12429e-16,-0.188781,28.196)"><stop offset="0" style="stop-color:#fff;stop-opacity:0.231373"/><stop offset="1" style="stop-color:#fff;stop-opacity:0.0509804"/></linearGradient><linearGradient id="_Linear3" x1="0" y1="0" x2="1" y2="0" gradientUnits="userSpaceOnUse" gradientTransform="matrix(5.53093e-16,9.0327,-9.0327,5.53093e-16,2.19773,53.9419)"><stop offset="0" style="stop-color:#fff;stop-opacity:0.231373"/><stop offset="1" style="stop-color:#fff;stop-opacity:0.0509804"/></linearGradient><linearGradient id="_Linear4" x1="0" y1="0" x2="1" y2="0" gradientUnits="userSpaceOnUse" gradientTransform="matrix(3.39132e-16,5.53844,-5.53844,3.39132e-16,27.7142,30.732)"><stop offset="0" style="stop-color:#fff;stop-opacity:0.231373"/><stop offset="1" style="stop-color:#fff;stop-opacity:0.0509804"/></linearGradient><linearGradient id="_Linear5" x1="0" y1="0" x2="1" y2="0" gradientUnits="userSpaceOnUse" gradientTransform="matrix(3.98513e-16,6.50821,-6.50821,3.98513e-16,39.2052,59.728)"><stop offset="0" style="stop-color:#fff;stop-opacity:0.231373"/><stop offset="1" style="stop-color:#fff;stop-opacity:0.0509804"/></linearGradient><linearGradient id="_Linear6" x1="0" y1="0" x2="1" y2="0" gradientUnits="userSpaceOnUse" gradientTransform="matrix(3.80611e-16,6.21585,-6.21585,3.80611e-16,30.0596,48.0899)"><stop offset="0" style="stop-color:#fff;stop-opacity:0.231373"/><stop offset="1" style="stop-color:#fff;stop-opacity:0.0509804"/></linearGradient><linearGradient id="_Linear7" x1="0" y1="0" x2="1" y2="0" gradientUnits="userSpaceOnUse" gradientTransform="matrix(5.6496e-16,9.2265,-9.2265,5.6496e-16,141.592,66.0881)"><stop offset="0" style="stop-color:#fff;stop-opacity:0.231373"/><stop offset="1" style="stop-color:#fff;stop-opacity:0.0509804"/></linearGradient><linearGradient id="_Linear8" x1="0" y1="0" x2="1" y2="0" gradientUnits="userSpaceOnUse" gradientTransform="matrix(4.39453e-16,7.17682,-7.17682,4.39453e-16,39.0768,-7.78391)"><stop offset="0" style="stop-color:#fff;stop-opacity:0.231373"/><stop offset="1" style="stop-color:#fff;stop-opacity:0.0509804"/></linearGradient><linearGradient id="_Linear9" x1="0" y1="0" x2="1" y2="0" gradientUnits="userSpaceOnUse" gradientTransform="matrix(6.06888e-16,9.91124,-9.91124,6.06888e-16,41.6876,20.8537)"><stop offset="0" style="stop-color:#fff;stop-opacity:0.231373"/><stop offset="1" style="stop-color:#fff;stop-opacity:0.0509804"/></linearGradient><linearGradient id="_Linear10" x1="0" y1="0" x2="1" y2="0" gradientUnits="userSpaceOnUse" gradientTransform="matrix(2.81659e-16,4.59984,-4.59984,2.81659e-16,53.3007,54.2155)"><stop offset="0" style="stop-color:#fff;stop-opacity:0.231373"/><stop offset="1" style="stop-color:#fff;stop-opacity:0.0509804"/></linearGradient><linearGradient id="_Linear11" x1="0" y1="0" x2="1" y2="0" gradientUnits="userSpaceOnUse" gradientTransform="matrix(2.86739e-16,4.6828,-4.6828,2.86739e-16,132.828,44.5553)"><stop offset="0" style="stop-color:#fff;stop-opacity:0.231373"/><stop offset="1" style="stop-color:#fff;stop-opacity:0.0509804"/></linearGradient><linearGradient id="_Linear12" x1="0" y1="0" x2="1" y2="0" gradientUnits="userSpaceOnUse" gradientTransform="matrix(3.15675e-16,5.15536,-5.15536,3.15675e-16,138.394,12.0148)"><stop offset="0" style="stop-color:#fff;stop-opacity:0.231373"/><stop offset="1" style="stop-color:#fff;stop-opacity:0.0509804"/></linearGradient><linearGradient id="_Linear13" x1="0" y1="0" x2="1" y2="0" gradientUnits="userSpaceOnUse" gradientTransform="matrix(2.80784e-16,4.58555,-4.58555,2.80784e-16,108.221,-3.25803)"><stop offset="0" style="stop-color:#fff;stop-opacity:0.231373"/><stop offset="1" style="stop-color:#fff;stop-opacity:0.0509804"/></linearGradient><linearGradient id="_Linear14" x1="0" y1="0" x2="1" y2="0" gradientUnits="userSpaceOnUse" gradientTransform="matrix(5.14958e-16,8.40991,-8.40991,5.14958e-16,95.3927,34.6948)"><stop offset="0" style="stop-color:#fff;stop-opacity:0.231373"/><stop offset="1" style="stop-color:#fff;stop-opacity:0.0509804"/></linearGradient><linearGradient id="_Linear15" x1="0" y1="0" x2="1" y2="0" gradientUnits="userSpaceOnUse" gradientTransform="matrix(5.69523e-16,9.30101,-9.30101,5.69523e-16,116.637,49.7191)"><stop offset="0" style="stop-color:#fff;stop-opacity:0.231373"/><stop offset="1" style="stop-color:#fff;stop-opacity:0.0509804"/></linearGradient><linearGradient id="_Linear16" x1="0" y1="0" x2="1" y2="0" gradientUnits="userSpaceOnUse" gradientTransform="matrix(4.59637e-16,7.50644,-7.50644,4.59637e-16,97.6342,85.9729)"><stop offset="0" style="stop-color:#fff;stop-opacity:0.231373"/><stop offset="1" style="stop-color:#fff;stop-opacity:0.0509804"/></linearGradient><linearGradient id="_Linear17" x1="0" y1="0" x2="1" y2="0" gradientUnits="userSpaceOnUse" gradientTransform="matrix(4.93252e-16,8.05542,-8.05542,4.93252e-16,134.444,67.4468)"><stop offset="0" style="stop-color:#fff;stop-opacity:0.231373"/><stop offset="1" style="stop-color:#fff;stop-opacity:0.0509804"/></linearGradient><linearGradient id="_Linear18" x1="0" y1="0" x2="1" y2="0" gradientUnits="userSpaceOnUse" gradientTransform="matrix(4.27762e-16,6.98588,-6.98588,4.27762e-16,263.217,71.2572)"><stop offset="0" style="stop-color:#fff;stop-opacity:0.231373"/><stop offset="1" style="stop-color:#fff;stop-opacity:0.0509804"/></linearGradient><linearGradient id="_Linear19" x1="0" y1="0" x2="1" y2="0" gradientUnits="userSpaceOnUse" gradientTransform="matrix(2.62428e-16,4.28577,-4.28577,2.62428e-16,260.644,14.9493)"><stop offset="0" style="stop-color:#fff;stop-opacity:0.231373"/><stop offset="1" style="stop-color:#fff;stop-opacity:0.0509804"/></linearGradient><linearGradient id="_Linear20" x1="0" y1="0" x2="1" y2="0" gradientUnits="userSpaceOnUse" gradientTransform="matrix(2.79822e-16,4.56985,-4.56985,2.79822e-16,194.182,23.1357)"><stop offset="0" style="stop-color:#fff;stop-opacity:0.231373"/><stop offset="1" style="stop-color:#fff;stop-opacity:0.0509804"/></linearGradient><linearGradient id="_Linear21" x1="0" y1="0" x2="1" y2="0" gradientUnits="userSpaceOnUse" gradientTransform="matrix(4.66633e-16,7.62069,-7.62069,4.66633e-16,241.018,37.1516)"><stop offset="0" style="stop-color:#fff;stop-opacity:0.231373"/><stop offset="1" style="stop-color:#fff;stop-opacity:0.0509804"/></linearGradient><linearGradient id="_Linear22" x1="0" y1="0" x2="1" y2="0" gradientUnits="userSpaceOnUse" gradientTransform="matrix(2.01197e-16,3.2858,-3.2858,2.01197e-16,245.829,57.7041)"><stop offset="0" style="stop-color:#fff;stop-opacity:0.231373"/><stop offset="1" style="stop-color:#fff;stop-opacity:0.0509804"/></linearGradient><linearGradient id="_Linear23" x1="0" y1="0" x2="1" y2="0" gradientUnits="userSpaceOnUse" gradientTransform="matrix(2.05718e-16,3.35963,-3.35963,2.05718e-16,248.667,45.3736)"><stop offset="0" style="stop-color:#fff;stop-opacity:0.231373"/><stop offset="1" style="stop-color:#fff;stop-opacity:0.0509804"/></linearGradient><linearGradient id="_Linear24" x1="0" y1="0" x2="1" y2="0" gradientUnits="userSpaceOnUse" gradientTransform="matrix(3.16962e-16,5.17639,-5.17639,3.16962e-16,203.666,36.3126)"><stop offset="0" style="stop-color:#fff;stop-opacity:0.231373"/><stop offset="1" style="stop-color:#fff;stop-opacity:0.0509804"/></linearGradient><linearGradient id="_Linear25" x1="0" y1="0" x2="1" y2="0" gradientUnits="userSpaceOnUse" gradientTransform="matrix(1.92625e-16,3.14581,-3.14581,1.92625e-16,128.362,96.7431)"><stop offset="0" style="stop-color:#fff;stop-opacity:0.231373"/><stop offset="1" style="stop-color:#fff;stop-opacity:0.0509804"/></linearGradient><linearGradient id="_Linear26" x1="0" y1="0" x2="1" y2="0" gradientUnits="userSpaceOnUse" gradientTransform="matrix(2.05995e-16,3.36415,-3.36415,2.05995e-16,178.163,72.9763)"><stop offset="0" style="stop-color:#fff;stop-opacity:0.231373"/><stop offset="1" style="stop-color:#fff;stop-opacity:0.0509804"/></linearGradient><linearGradient id="_Linear27" x1="0" y1="0" x2="1" y2="0" gradientUnits="userSpaceOnUse" gradientTransform="matrix(2.53028e-16,4.13225,-4.13225,2.53028e-16,117.341,84.5251)"><stop offset="0" style="stop-color:#fff;stop-opacity:0.231373"/><stop offset="1" style="stop-color:#fff;stop-opacity:0.0509804"/></linearGradient><linearGradient id="_Linear28" x1="0" y1="0" x2="1" y2="0" gradientUnits="userSpaceOnUse" gradientTransform="matrix(2.87876e-16,4.70137,-4.70137,2.87876e-16,53.3597,24.4148)"><stop offset="0" style="stop-color:#fff;stop-opacity:0.231373"/><stop offset="1" style="stop-color:#fff;stop-opacity:0.0509804"/></linearGradient><linearGradient id="_Linear29" x1="0" y1="0" x2="1" y2="0" gradientUnits="userSpaceOnUse" gradientTransform="matrix(5.43934e-16,8.88311,-8.88311,5.43934e-16,30.581,0.829656)"><stop offset="0" style="stop-color:#fff;stop-opacity:0.231373"/><stop offset="1" style="stop-color:#fff;stop-opacity:0.0509804"/></linearGradient><linearGradient id="_Linear30" x1="0" y1="0" x2="1" y2="0" gradientUnits="userSpaceOnUse" gradientTransform="matrix(3.84803e-16,6.28431,-6.28431,3.84803e-16,0.563666,45.9739)"><stop offset="0" style="stop-color:#fff;stop-opacity:0.231373"/><stop offset="1" style="stop-color:#fff;stop-opacity:0.0509804"/></linearGradient><linearGradient id="_Linear31" x1="0" y1="0" x2="1" y2="0" gradientUnits="userSpaceOnUse" gradientTransform="matrix(3.2168e-16,5.25343,-5.25343,3.2168e-16,28.7344,25.4592)"><stop offset="0" style="stop-color:#fff;stop-opacity:0.231373"/><stop offset="1" style="stop-color:#fff;stop-opacity:0.0509804"/></linearGradient><linearGradient id="_Linear32" x1="0" y1="0" x2="1" y2="0" gradientUnits="userSpaceOnUse" gradientTransform="matrix(4.61365e-16,7.53465,-7.53465,4.61365e-16,31.5169,25.909)"><stop offset="0" style="stop-color:#fff;stop-opacity:0.231373"/><stop offset="1" style="stop-color:#fff;stop-opacity:0.0509804"/></linearGradient><linearGradient id="_Linear33" x1="0" y1="0" x2="1" y2="0" gradientUnits="userSpaceOnUse" gradientTransform="matrix(5.55424e-16,9.07076,-9.07076,5.55424e-16,276.881,23.2273)"><stop offset="0" style="stop-color:#fff;stop-opacity:0.231373"/><stop offset="1" style="stop-color:#fff;stop-opacity:0.0509804"/></linearGradient><linearGradient id="_Linear34" x1="0" y1="0" x2="1" y2="0" gradientUnits="userSpaceOnUse" gradientTransform="matrix(5.44819e-16,8.89757,-8.89757,5.44819e-16,238.826,62.8104)"><stop offset="0" style="stop-color:#fff;stop-opacity:0.231373"/><stop offset="1" style="stop-color:#fff;stop-opacity:0.0509804"/></linearGradient><linearGradient id="_Linear35" x1="0" y1="0" x2="1" y2="0" gradientUnits="userSpaceOnUse" gradientTransform="matrix(4.16467e-16,6.80143,-6.80143,4.16467e-16,97.7472,55.0838)"><stop offset="0" style="stop-color:#fff;stop-opacity:0.231373"/><stop offset="1" style="stop-color:#fff;stop-opacity:0.0509804"/></linearGradient><linearGradient id="_Linear36" x1="0" y1="0" x2="1" y2="0" gradientUnits="userSpaceOnUse" gradientTransform="matrix(3.56181e-16,5.81688,-5.81688,3.56181e-16,46.5414,45.8809)"><stop offset="0" style="stop-color:#fff;stop-opacity:0.231373"/><stop offset="1" style="stop-color:#fff;stop-opacity:0.0509804"/></linearGradient><linearGradient id="_Linear37" x1="0" y1="0" x2="1" y2="0" gradientUnits="userSpaceOnUse" gradientTransform="matrix(3.22071e-16,5.25982,-5.25982,3.22071e-16,87.5081,14.2415)"><stop offset="0" style="stop-color:#fff;stop-opacity:0.231373"/><stop offset="1" style="stop-color:#fff;stop-opacity:0.0509804"/></linearGradient><linearGradient id="_Linear38" x1="0" y1="0" x2="1" y2="0" gradientUnits="userSpaceOnUse" gradientTransform="matrix(2.1724e-16,3.5478,-3.5478,2.1724e-16,110.727,29.2498)"><stop offset="0" style="stop-color:#fff;stop-opacity:0.231373"/><stop offset="1" style="stop-color:#fff;stop-opacity:0.0509804"/></linearGradient><linearGradient id="_Linear39" x1="0" y1="0" x2="1" y2="0" gradientUnits="userSpaceOnUse" gradientTransform="matrix(6.58784e-16,10.7588,-10.7588,6.58784e-16,166.684,28.5249)"><stop offset="0" style="stop-color:#fff;stop-opacity:0.231373"/><stop offset="1" style="stop-color:#fff;stop-opacity:0.0509804"/></linearGradient><linearGradient id="_Linear40" x1="0" y1="0" x2="1" y2="0" gradientUnits="userSpaceOnUse" gradientTransform="matrix(2.78863e-16,4.55418,-4.55418,2.78863e-16,181.128,53.785)"><stop offset="0" style="stop-color:#fff;stop-opacity:0.231373"/><stop offset="1" style="stop-color:#fff;stop-opacity:0.0509804"/></linearGradient><linearGradient id="_Linear41" x1="0" y1="0" x2="1" y2="0" gradientUnits="userSpaceOnUse" gradientTransform="matrix(4.38025e-16,7.15349,-7.15349,4.38025e-16,215.066,73.4312)"><stop offset="0" style="stop-color:#fff;stop-opacity:0.231373"/><stop offset="1" style="stop-color:#fff;stop-opacity:0.0509804"/></linearGradient><linearGradient id="_Linear42" x1="0" y1="0" x2="1" y2="0" gradientUnits="userSpaceOnUse" gradientTransform="matrix(6.3707e-16,10.4041,-10.4041,6.3707e-16,242.947,93.8127)"><stop offset="0" style="stop-color:#fff;stop-opacity:0.231373"/><stop offset="1" style="stop-color:#fff;stop-opacity:0.0509804"/></linearGradient><linearGradient id="_Linear43" x1="0" y1="0" x2="1" y2="0" gradientUnits="userSpaceOnUse" gradientTransform="matrix(4.46569e-16,7.29302,-7.29302,4.46569e-16,280.43,62.634)"><stop offset="0" style="stop-color:#fff;stop-opacity:0.231373"/><stop offset="1" style="stop-color:#fff;stop-opacity:0.0509804"/></linearGradient><linearGradient id="_Linear44" x1="0" y1="0" x2="1" y2="0" gradientUnits="userSpaceOnUse" gradientTransform="matrix(2.52942e-16,4.13085,-4.13085,2.52942e-16,269.752,80.0397)"><stop offset="0" style="stop-color:#fff;stop-opacity:0.231373"/><stop offset="1" style="stop-color:#fff;stop-opacity:0.0509804"/></linearGradient><linearGradient id="_Linear45" x1="0" y1="0" x2="1" y2="0" gradientUnits="userSpaceOnUse" gradientTransform="matrix(3.58838e-16,5.86026,-5.86026,3.58838e-16,214.002,32.4339)"><stop offset="0" style="stop-color:#fff;stop-opacity:0.231373"/><stop offset="1" style="stop-color:#fff;stop-opacity:0.0509804"/></linearGradient><linearGradient id="_Linear46" x1="0" y1="0" x2="1" y2="0" gradientUnits="userSpaceOnUse" gradientTransform="matrix(4.88959e-16,7.9853,-7.9853,4.88959e-16,223.723,2.85951)"><stop offset="0" style="stop-color:#fff;stop-opacity:0.231373"/><stop offset="1" style="stop-color:#fff;stop-opacity:0.0509804"/></linearGradient><linearGradient id="_Linear47" x1="0" y1="0" x2="1" y2="0" gradientUnits="userSpaceOnUse" gradientTransform="matrix(4.62352e-16,7.55079,-7.55079,4.62352e-16,10.3321,37.2417)"><stop offset="0" style="stop-color:#fff;stop-opacity:0.231373"/><stop offset="1" style="stop-color:#fff;stop-opacity:0.0509804"/></linearGradient><linearGradient id="_Linear48" x1="0" y1="0" x2="1" y2="0" gradientUnits="userSpaceOnUse" gradientTransform="matrix(5.95458e-16,9.72457,-9.72457,5.95458e-16,49.687,73.0724)"><stop offset="0" style="stop-color:#fff;stop-opacity:0.231373"/><stop offset="1" style="stop-color:#fff;stop-opacity:0.0509804"/></linearGradient></defs></svg>