<?xml version="1.0" encoding="UTF-8" standalone="no"?>
<!-- Created with Inkscape (http://www.inkscape.org/) -->

<svg
   xmlns:dc="http://purl.org/dc/elements/1.1/"
   xmlns:cc="http://creativecommons.org/ns#"
   xmlns:rdf="http://www.w3.org/1999/02/22-rdf-syntax-ns#"
   xmlns:svg="http://www.w3.org/2000/svg"
   xmlns="http://www.w3.org/2000/svg"
   xmlns:sodipodi="http://sodipodi.sourceforge.net/DTD/sodipodi-0.dtd"
   xmlns:inkscape="http://www.inkscape.org/namespaces/inkscape"
   width="210mm"
   height="297mm"
   viewBox="0 0 210 297"
   version="1.1"
   id="svg8"
   inkscape:version="0.92.2 5c3e80d, 2017-08-06"
   sodipodi:docname="header.svg">
  <defs
     id="defs2">
    <inkscape:path-effect
       fuse_tolerance="0"
       vertical_pattern="false"
       prop_units="false"
       tang_offset="0"
       normal_offset="0"
       spacing="0"
       scale_y_rel="false"
       prop_scale="1"
       copytype="single_stretched"
       pattern="m 117.67117,4.9693188 h 1"
       is_visible="true"
       id="path-effect5422"
       effect="skeletal" />
    <inkscape:path-effect
       fuse_tolerance="0.2"
       vertical_pattern="false"
       prop_units="false"
       tang_offset="0"
       normal_offset="0"
       spacing="0"
       scale_y_rel="false"
       prop_scale="1000000"
       copytype="single_stretched"
       pattern="M 0,0 H 1"
       is_visible="true"
       id="path-effect4525"
       effect="skeletal" />
    <inkscape:path-effect
       fuse_tolerance="0"
       vertical_pattern="false"
       prop_units="false"
       tang_offset="0"
       normal_offset="0"
       spacing="0"
       scale_y_rel="false"
       prop_scale="1"
       copytype="single_stretched"
       pattern="M 0,0 H 1"
       is_visible="true"
       id="path-effect825"
       effect="skeletal" />
  </defs>
  <sodipodi:namedview
     id="base"
     pagecolor="#3c91e6"
     bordercolor="#666666"
     borderopacity="1.0"
     inkscape:pageopacity="1"
     inkscape:pageshadow="2"
     inkscape:zoom="1.4"
     inkscape:cx="532.21191"
     inkscape:cy="600.4061"
     inkscape:document-units="mm"
     inkscape:current-layer="layer1"
     showgrid="false"
     inkscape:window-width="1440"
     inkscape:window-height="855"
     inkscape:window-x="0"
     inkscape:window-y="1"
     inkscape:window-maximized="1" />
  <metadata
     id="metadata5">
    <rdf:RDF>
      <cc:Work
         rdf:about="">
        <dc:format>image/svg+xml</dc:format>
        <dc:type
           rdf:resource="http://purl.org/dc/dcmitype/StillImage" />
        <dc:title></dc:title>
      </cc:Work>
    </rdf:RDF>
  </metadata>
  <g
     inkscape:label="Layer 1"
     inkscape:groupmode="layer"
     id="layer1">
    <g
       id="g988"
       transform="translate(84.458678,83.664249)">
      <g
         transform="matrix(0.63075205,0,0,0.63075205,-0.28383843,-0.28383843)"
         id="g5960">
        <path
           inkscape:connector-curvature="0"
           style="opacity:1;fill:#93db2e;fill-opacity:1;stroke:#93db2e;stroke-width:0.37795275;stroke-miterlimit:4;stroke-dasharray:none;stroke-opacity:1"
           d="m 339.39062,271.89062 a 67.500007,67.500007 0 0 0 -67.46289,66.47852 l 1.11329,0.0176 a 10.894686,10.894686 0 0 0 -0.42774,2.98633 10.894686,10.894686 0 0 0 10.89453,10.89453 10.894686,10.894686 0 0 0 10.89453,-10.89453 10.894686,10.894686 0 0 0 -0.34179,-2.66993 l 0.36328,0.006 a 45.000003,45.000003 0 0 1 44.96679,-44.31836 45.000003,45.000003 0 0 1 45,45 45.000003,45.000003 0 0 1 -17.41015,35.52344 l 0.15039,0.19336 a 11.085583,11.085583 0 0 0 -5.42383,9.51563 11.085583,11.085583 0 0 0 11.08594,11.08593 11.085583,11.085583 0 0 0 7.82226,-3.24023 l 0.13086,0.16797 a 67.500007,67.500007 0 0 0 26.14453,-53.2461 67.500007,67.500007 0 0 0 -67.5,-67.5 z"
           transform="scale(0.26458333)"
           id="use5645" />
        <path
           inkscape:connector-curvature="0"
           style="opacity:1;fill:#edcc15;fill-opacity:1;stroke:#edcc15;stroke-width:0.37795275;stroke-miterlimit:4;stroke-dasharray:none;stroke-opacity:1"
           d="m 339.39062,249.39062 a 90.000007,90.000007 0 0 0 -90,90 90.000007,90.000007 0 0 0 90,90 90.000007,90.000007 0 0 0 45.08399,-12.20312 l -0.20117,-0.34766 a 11.085583,11.085583 0 0 0 7.40039,-10.44336 11.085583,11.085583 0 0 0 -11.08594,-11.08593 11.085583,11.085583 0 0 0 -7.22851,2.69726 l -0.16602,-0.28711 a 67.500007,67.500007 0 0 1 -33.80274,9.16992 67.500007,67.500007 0 0 1 -67.5,-67.5 67.500007,67.500007 0 0 1 67.5,-67.5 67.500007,67.500007 0 0 1 57.28711,31.88282 l 0.36719,-0.22852 a 11.009224,11.009224 0 0 0 10.1543,6.78516 11.009224,11.009224 0 0 0 11.00976,-11.00977 11.009224,11.009224 0 0 0 -2.73046,-7.23633 l 0.25,-0.15625 a 90.000007,90.000007 0 0 0 -76.3379,-42.53711 z"
           transform="scale(0.26458333)"
           id="use5647" />
        <path
           inkscape:connector-curvature="0"
           style="opacity:1;fill:#edcc15;fill-opacity:1;stroke:#edcc15;stroke-width:0.37795275;stroke-miterlimit:4;stroke-dasharray:none;stroke-opacity:1"
           d="m 377.38086,234.58789 a 11.110661,11.110661 0 0 0 -11.11133,11.10938 11.110661,11.110661 0 0 0 8.95703,10.89843 l -0.10156,0.23242 a 90.000007,90.000007 0 0 1 54.26562,82.5625 90.000007,90.000007 0 0 1 -90,90 90.000007,90.000007 0 0 1 -90,-90 90.000007,90.000007 0 0 1 37.8125,-73.1875 l -0.13867,-0.19531 a 11.110661,11.110661 0 0 0 5.4375,-9.53906 11.110661,11.110661 0 0 0 -11.10937,-11.10937 11.110661,11.110661 0 0 0 -7.17188,2.63671 l -0.0937,-0.13086 a 112.50001,112.50001 0 0 0 -47.23633,91.52539 112.50001,112.50001 0 0 0 112.5,112.5 112.50001,112.50001 0 0 0 112.5,-112.5 112.50001,112.50001 0 0 0 -67.86523,-103.12304 l -0.17578,0.4082 a 11.110661,11.110661 0 0 0 -6.46875,-2.08789 z"
           transform="scale(0.26458333)"
           id="use5649" />
        <path
           inkscape:connector-curvature="0"
           style="opacity:1;fill:#93db2e;fill-opacity:1;stroke:#93db2e;stroke-width:0.37795275;stroke-miterlimit:4;stroke-dasharray:none;stroke-opacity:1"
           d="M 339.39062,204.39062 A 135.00002,135.00002 0 0 0 208.46875,307.02734 l 0.22266,0.0547 a 11.329456,10.906132 0 0 0 -1.1211,4.69922 11.329456,10.906132 0 0 0 11.33008,10.90625 11.329456,10.906132 0 0 0 11.29688,-10.29102 l 0.11523,0.0293 a 112.50001,112.50001 0 0 1 109.07812,-85.53516 112.50001,112.50001 0 0 1 112.5,112.5 112.50001,112.50001 0 0 1 -18.26562,61.26368 l 0.2832,0.18359 a 11.104672,11.104672 0 0 0 -2.75781,7.3125 11.104672,11.104672 0 0 0 11.10547,11.10352 11.104672,11.104672 0 0 0 10.06641,-6.44532 l 0.22265,0.14453 a 135.00002,135.00002 0 0 0 21.8457,-73.5625 135.00002,135.00002 0 0 0 -135,-135 z"
           transform="scale(0.26458333)"
           id="use5651" />
        <path
           inkscape:connector-curvature="0"
           style="opacity:1;fill:#93db2e;fill-opacity:1;stroke:#93db2e;stroke-width:0.37795275;stroke-miterlimit:4;stroke-dasharray:none;stroke-opacity:1"
           d="M 339.39062,181.89062 A 157.50002,157.50002 0 0 0 184.28906,312.14258 l 0.20313,0.0332 a 11.21761,10.869134 0 0 0 -0.64453,3.59766 11.21761,10.869134 0 0 0 11.21679,10.86914 11.21761,10.869134 0 0 0 11.21875,-10.86914 11.21761,10.869134 0 0 0 -0.002,-0.0527 l 0.31641,0.0508 A 135.00002,135.00002 0 0 1 339.39057,204.39068 135.00002,135.00002 0 0 1 462.1269,283.57037 l 0.15039,-0.0664 a 11.161941,11.161941 0 0 0 10.70118,8.00976 11.161941,11.161941 0 0 0 11.1621,-11.16211 11.161941,11.161941 0 0 0 -1.59765,-5.73242 l 0.20898,-0.0918 A 157.50002,157.50002 0 0 0 339.39062,181.89062 Z m 120.16797,229.57032 a 11.066493,11.066493 0 0 0 -9.6582,5.67578 l -0.1582,-0.11524 A 135.00002,135.00002 0 0 1 339.39062,474.39062 135.00002,135.00002 0 0 1 254.33008,444.0957 l -0.11524,0.14453 a 11.137657,11.137657 0 0 0 -7.89257,-3.28711 11.137657,11.137657 0 0 0 -11.13672,11.13868 11.137657,11.137657 0 0 0 5.24804,9.4375 l -0.14453,0.18164 a 157.50002,157.50002 0 0 0 99.10156,35.17968 157.50002,157.50002 0 0 0 128.50196,-66.76757 l -0.18164,-0.13086 a 11.066493,11.066493 0 0 0 2.91406,-7.46485 11.066493,11.066493 0 0 0 -11.06641,-11.0664 z"
           transform="scale(0.26458333)"
           id="use5653" />
        <path
           inkscape:connector-curvature="0"
           style="opacity:1;fill:#93db2e;fill-opacity:1;stroke:#93db2e;stroke-width:0.37795275;stroke-miterlimit:4;stroke-dasharray:none;stroke-opacity:1"
           d="m 339.39062,159.39062 a 180.00002,180.00002 0 0 0 -180,180 A 180.00002,180.00002 0 0 0 300.9043,515 l 0.10547,-0.48242 a 10.871672,11.185284 0 0 0 5.16796,1.34765 10.871672,11.185284 0 0 0 10.8711,-11.18359 10.871672,11.185284 0 0 0 -10.8711,-11.18555 10.871672,11.185284 0 0 0 -0.5625,0.0195 l 0.082,-0.37695 a 157.50002,157.50002 0 0 1 -123.80665,-153.74805 157.50002,157.50002 0 0 1 157.5,-157.5 157.50002,157.50002 0 0 1 157.5,157.5 157.50002,157.50002 0 0 1 -38.35546,102.88086 l 0.32812,0.28321 a 11.085582,11.085582 0 0 0 -4.82812,9.13672 11.085582,11.085582 0 0 0 11.08398,11.08593 11.085582,11.085582 0 0 0 9.94922,-6.22851 l 0.39453,0.33984 a 180.00002,180.00002 0 0 0 43.92773,-117.49805 180.00002,180.00002 0 0 0 -180,-180 z"
           transform="scale(0.26458333)"
           id="use5655" />
        <path
           inkscape:connector-curvature="0"
           style="opacity:1;fill:#edcc15;fill-opacity:1;stroke:#edcc15;stroke-width:0.37795275;stroke-miterlimit:4;stroke-dasharray:none;stroke-opacity:1"
           d="m 178.63086,224.80078 a 11.18103,11.18103 0 0 0 -10.40039,7.10547 l -0.25391,-0.1582 a 202.50002,202.50002 0 0 0 -31.08594,107.64257 202.50002,202.50002 0 0 0 202.5,202.5 202.50002,202.50002 0 0 0 202.5,-202.5 202.50002,202.50002 0 0 0 -8.13671,-56.28906 l -0.22852,0.0664 a 11.192823,11.033845 0 0 0 -11.14062,-10.04688 11.192823,11.033845 0 0 0 -11.19141,11.03321 11.192823,11.033845 0 0 0 1.27734,5.11132 l -0.26953,0.0781 a 180.00002,180.00002 0 0 1 7.18945,50.04687 180.00002,180.00002 0 0 1 -180,180 180.00002,180.00002 0 0 1 -180,-180 180.00002,180.00002 0 0 1 27.7461,-95.61132 l -0.32031,-0.20118 a 11.18103,11.18103 0 0 0 2.99414,-7.5957 11.18103,11.18103 0 0 0 -11.17969,-11.18164 z"
           transform="scale(0.26458333)"
           id="use5657" />
        <path
           inkscape:connector-curvature="0"
           style="opacity:1;fill:#93db2e;fill-opacity:1;stroke:#93db2e;stroke-width:0.37795275;stroke-miterlimit:4;stroke-dasharray:none;stroke-opacity:1"
           d="m 339.39062,114.39062 a 225.00002,225.00002 0 0 0 -225,225 225.00002,225.00002 0 0 0 2.60547,32.26563 l 0.36329,-0.0527 a 11.100136,10.878379 0 0 0 -0.0488,0.93945 11.100136,10.878379 0 0 0 11.09961,10.87891 11.100136,10.878379 0 0 0 11.10156,-10.87891 11.100136,10.878379 0 0 0 -0.79883,-4.03711 l 0.47266,-0.0684 a 202.50002,202.50002 0 0 1 -2.29493,-29.04688 202.50002,202.50002 0 0 1 202.5,-202.5 202.50002,202.50002 0 0 1 202.5,202.5 202.50002,202.50002 0 0 1 -202.5,202.5 202.50002,202.50002 0 0 1 -117.89648,-38.07226 l -0.14453,0.20117 a 11.083664,11.083664 0 0 0 -7.84766,-3.26367 11.083664,11.083664 0 0 0 -11.08398,11.08203 11.083664,11.083664 0 0 0 6.20312,9.93555 l -0.17382,0.24218 a 225.00002,225.00002 0 0 0 130.94335,42.375 225.00002,225.00002 0 0 0 225,-225 225.00002,225.00002 0 0 0 -225,-225 z"
           transform="scale(0.26458333)"
           id="use5659" />
        <path
           inkscape:connector-curvature="0"
           style="opacity:1;fill:#edcc15;fill-opacity:1;stroke:#edcc15;stroke-width:0.37795275;stroke-miterlimit:4;stroke-dasharray:none;stroke-opacity:1"
           d="m 185.14648,149.63477 a 11.18103,11.18103 0 0 0 -8.04687,3.43554 l -0.15625,-0.17969 a 247.50003,247.50003 0 0 0 -85.052735,186.5 247.50003,247.50003 0 0 0 247.499995,247.5 247.50003,247.50003 0 0 0 224.41797,-143.82421 l -0.20117,-0.0937 a 11.104672,11.104672 0 0 0 1.70508,-5.88672 11.104672,11.104672 0 0 0 -11.10547,-11.10547 11.104672,11.104672 0 0 0 -10.58594,7.75976 l -0.19921,-0.0918 a 225.00002,225.00002 0 0 1 -204.03126,130.74218 225.00002,225.00002 0 0 1 -225,-225 225.00002,225.00002 0 0 1 77.4004,-169.45117 l -0.0781,-0.0898 a 11.18103,11.18103 0 0 0 4.61523,-9.0332 11.18103,11.18103 0 0 0 -11.18164,-11.18164 z"
           transform="scale(0.26458333)"
           id="use5661" />
        <path
           inkscape:connector-curvature="0"
           style="opacity:1;fill:#edcc15;fill-opacity:1;stroke:#edcc15;stroke-width:0.37795275;stroke-miterlimit:4;stroke-dasharray:none;stroke-opacity:1"
           d="M 339.39062,69.390625 A 270.00003,270.00003 0 0 0 72.195312,302.74805 l 0.259766,0.0352 a 11.158867,10.87375 0 0 0 -0.695312,3.74024 11.158867,10.87375 0 0 0 11.160156,10.87304 11.158867,10.87375 0 0 0 11.158203,-10.87304 11.158867,10.87375 0 0 0 -0.0293,-0.77735 l 0.419922,0.0566 A 247.50003,247.50003 0 0 1 339.39062,91.890625 247.50003,247.50003 0 0 1 537.93945,192.08008 l 0.27539,-0.20508 a 11.142852,11.142852 0 0 0 10.0586,6.37109 11.142852,11.142852 0 0 0 11.14258,-11.14257 11.142852,11.142852 0 0 0 -3.66407,-8.24024 l 0.21875,-0.16211 A 270.00003,270.00003 0 0 0 339.39062,69.390625 Z M 561,461.39062 a 11.18103,11.18103 0 0 0 -9.9043,6.00782 l -0.17187,-0.10352 a 247.50003,247.50003 0 0 1 -115.49414,99.93164 l 0.20312,0.48438 a 11.245644,11.245644 0 0 0 -9.46484,11.09765 11.245644,11.245644 0 0 0 11.24609,11.2461 11.245644,11.245644 0 0 0 6.70117,-2.22852 l 0.14649,0.34961 A 270.00003,270.00003 0 0 0 570.21094,478.95703 l -0.0254,-0.0156 a 11.18103,11.18103 0 0 0 1.99609,-6.36914 A 11.18103,11.18103 0 0 0 561,461.39062 Z M 129.17188,478.8418 a 11.137658,11.137658 0 0 0 -11.13868,11.13867 11.137658,11.137658 0 0 0 3.51368,8.09961 l -0.16407,0.12109 a 270.00003,270.00003 0 0 0 185.66407,108.90625 l 0.043,-0.35742 a 10.87375,11.158867 0 0 0 3.76368,0.70508 10.87375,11.158867 0 0 0 10.875,-11.1582 10.87375,11.158867 0 0 0 -10.875,-11.16016 10.87375,11.158867 0 0 0 -1.16016,0.0781 l 0.0371,-0.30859 A 247.50003,247.50003 0 0 1 139.58398,484.94141 l -0.36132,0.26367 a 11.137658,11.137658 0 0 0 -10.05078,-6.36328 z"
           transform="scale(0.26458333)"
           id="use5663" />
        <path
           inkscape:connector-curvature="0"
           style="opacity:1;fill:#93db2e;fill-opacity:1;stroke:#93db2e;stroke-width:0.37795275;stroke-miterlimit:4;stroke-dasharray:none;stroke-opacity:1"
           d="m 423.57812,60.228516 a 11.085583,11.085583 0 0 0 -11.08398,11.085937 11.085583,11.085583 0 0 0 10.24024,11.044922 l -0.11329,0.345703 A 270.00003,270.00003 0 0 1 609.39062,339.39062 270.00003,270.00003 0 0 1 534.5332,525.5293 l 0.49805,0.47656 a 11.272641,11.272641 0 0 0 -5.64648,9.75 11.272641,11.272641 0 0 0 11.27343,11.27344 11.272641,11.272641 0 0 0 10.00782,-6.10938 l 0.29101,0.27735 A 292.50003,292.50003 0 0 0 631.89062,339.39062 292.50003,292.50003 0 0 0 429.5,61.492188 l -0.12695,0.388671 a 11.085583,11.085583 0 0 0 -5.79493,-1.652343 z M 79.876953,220.5 a 11.100136,10.878379 0 0 0 -10.777344,8.32812 l -0.240234,-0.0977 a 292.50003,292.50003 0 0 0 -21.96875,110.6602 292.50003,292.50003 0 0 0 163.033205,262.11524 l 0.0898,-0.18359 a 11.010863,11.235321 0 0 0 6.3418,2.05859 11.010863,11.235321 0 0 0 11.01172,-11.23438 11.010863,11.235321 0 0 0 -7.55469,-10.6582 l 0.15234,-0.31055 A 270.00003,270.00003 0 0 1 69.390625,339.39062 270.00003,270.00003 0 0 1 89.619141,237.22266 l -0.3125,-0.12891 A 11.100136,10.878379 0 0 0 90.978516,231.37891 11.100136,10.878379 0 0 0 79.876953,220.5 Z"
           transform="scale(0.26458333)"
           id="use5665" />
        <path
           inkscape:connector-curvature="0"
           style="opacity:1;fill:#93db2e;fill-opacity:1;stroke:#93db2e;stroke-width:0.37795275;stroke-miterlimit:4;stroke-dasharray:none;stroke-opacity:1"
           d="m 628.09375,234.89844 a 11.30575,10.862234 0 0 0 -11.30664,10.86328 11.30575,10.862234 0 0 0 1.22851,4.92383 l -0.23632,0.0762 a 292.50003,292.50003 0 0 1 14.11132,88.6289 292.50003,292.50003 0 0 1 -292.5,292.5 292.50003,292.50003 0 0 1 -292.499995,-292.5 292.50003,292.50003 0 0 1 0.662109,-13.23632 l -0.40625,-0.0176 A 11.226825,10.868411 0 0 0 47.460938,323.625 11.226825,10.868411 0 0 0 36.234375,312.75781 11.226825,10.868411 0 0 0 25.007812,323.625 a 11.226825,10.868411 0 0 0 0.121094,1.50977 l -0.232422,-0.01 a 315.00003,315.00003 0 0 0 -0.505859,14.26562 315.00003,315.00003 0 0 0 314.999995,315 315.00003,315.00003 0 0 0 315,-315 315.00003,315.00003 0 0 0 -14.95703,-95.52343 l -0.19726,0.0625 a 11.30575,10.862234 0 0 0 -11.14258,-9.03125 z"
           transform="scale(0.26458333)"
           id="use5667" />
        <path
           style="opacity:1;fill:#edcc15;fill-opacity:1;stroke:#edcc15;stroke-width:0.1;stroke-miterlimit:4;stroke-dasharray:none;stroke-opacity:1"
           d="M 89.796874,0.50000001 A 89.296882,89.296882 0 0 0 0.50000001,89.796873 89.296882,89.296882 0 0 0 28.983533,155.08488 l 0.02894,-0.0315 a 2.8825523,2.8825523 0 0 0 1.962155,0.77618 2.8825523,2.8825523 0 0 0 2.882511,-2.88251 2.8825523,2.8825523 0 0 0 -0.920358,-2.10685 l 0.125058,-0.13384 A 83.343757,83.343757 0 0 1 6.4531249,89.796873 83.343757,83.343757 0 0 1 89.796874,6.4531249 83.343757,83.343757 0 0 1 173.14062,89.796873 83.343757,83.343757 0 0 1 164.07709,127.39561 l 0.0724,0.0367 a 2.973144,2.973144 0 0 0 -0.39946,1.48312 2.973144,2.973144 0 0 0 2.97346,2.97294 2.973144,2.973144 0 0 0 2.71973,-1.77664 l 0.0171,0.009 A 89.296882,89.296882 0 0 0 179.09375,89.796873 89.296882,89.296882 0 0 0 89.796874,0.50000001 Z"
           id="use5669"
           inkscape:connector-curvature="0" />
      </g>
      <g
         transform="translate(82.922399,-83.056462)"
         id="layer1-0"
         inkscape:label="Layer 1">
        <g
           style="opacity:1"
           transform="matrix(0.30092659,0,0,0.30092659,-56.745762,95.179516)"
           id="g5450">
          <path
             style="opacity:1;fill:#d11b2a;fill-opacity:1;stroke:none;stroke-width:0.26458332;stroke-opacity:1"
             d="M 133.34182,89.162638 60.203134,106.80239 v 20.57962 65.93396 a 13.607143,17.575891 65.332318 0 0 -13.181105,1.51102 13.607143,17.575891 65.332318 0 0 -10.292913,19.70112 13.607143,17.575891 65.332318 0 0 21.650875,5.03018 13.607143,17.575891 65.332318 0 0 11.255126,-15.42748 h 0.01757 v -79.02773 l 54.239583,-13.08189 v 63.65503 a 13.607143,17.575891 65.332318 0 0 -13.18111,1.51102 13.607143,17.575891 65.332318 0 0 -10.29291,19.70112 13.607143,17.575891 65.332318 0 0 21.65088,5.02967 13.607143,17.575891 65.332318 0 0 11.25461,-15.42697 h 0.0181 v -76.7488 z"
             id="rect836"
             inkscape:connector-curvature="0" />
          <path
             style="color:#000000;font-style:normal;font-variant:normal;font-weight:normal;font-stretch:normal;font-size:medium;line-height:normal;font-family:sans-serif;font-variant-ligatures:normal;font-variant-position:normal;font-variant-caps:normal;font-variant-numeric:normal;font-variant-alternates:normal;font-feature-settings:normal;text-indent:0;text-align:start;text-decoration:none;text-decoration-line:none;text-decoration-style:solid;text-decoration-color:#000000;letter-spacing:normal;word-spacing:normal;text-transform:none;writing-mode:lr-tb;direction:ltr;text-orientation:mixed;dominant-baseline:auto;baseline-shift:baseline;text-anchor:start;white-space:normal;shape-padding:0;clip-rule:nonzero;display:inline;overflow:visible;visibility:visible;opacity:1;isolation:auto;mix-blend-mode:normal;color-interpolation:sRGB;color-interpolation-filters:linearRGB;solid-color:#000000;solid-opacity:1;vector-effect:none;fill:#ffffff;fill-opacity:1;fill-rule:nonzero;stroke:none;stroke-width:2;stroke-linecap:butt;stroke-linejoin:miter;stroke-miterlimit:4;stroke-dasharray:none;stroke-dashoffset:0;stroke-opacity:1;color-rendering:auto;image-rendering:auto;shape-rendering:auto;text-rendering:auto;enable-background:accumulate"
             d="m 134.34247,88.025784 -1.23438,0.298828 -73.904293,17.824218 v 21.36719 64.77734 c -4.055241,-0.70396 -8.505233,-0.12154 -12.597657,1.75782 -4.600754,2.11294 -8.122936,5.47241 -10.099609,9.25586 -1.976673,3.78344 -2.399584,8.03966 -0.685547,11.77148 1.713849,3.7318 5.219087,6.18634 9.376953,7.15234 4.157867,0.96601 8.99895,0.48203 13.59961,-1.63086 h 0.002 c 6.797737,-3.12739 11.520849,-9.13187 11.853515,-15.33593 v 0 -79.24024 l 52.240188,-12.59961 v 61.23047 c -4.05529,-0.70401 -8.50712,-0.12157 -12.59961,1.75781 -4.60075,2.11295 -8.12294,5.47046 -10.09961,9.25391 -1.976672,3.78345 -2.39763,8.04162 -0.683593,11.77344 1.713983,3.73167 5.217143,6.18449 9.375003,7.15039 4.15785,0.9659 9.00099,0.48204 13.60156,-1.63086 6.7968,-3.12717 11.52201,-9.13072 11.85547,-15.33399 v 0 -77.75 z m -2,2.539062 v 19.310544 75.75 0 l -0.009,1.0254 c 0.14184,5.5317 -4.10721,11.46687 -10.68263,14.49218 -4.21983,1.93761 -8.63479,2.35436 -12.3125,1.5 -3.6782,-0.85447 -6.58909,-2.94173 -8.01172,-6.03906 -1.422667,-3.09745 -1.10801,-6.66474 0.64063,-10.01172 1.74864,-3.34698 4.94158,-6.42496 9.16211,-8.36328 4.1275,-1.89547 8.67008,-2.40271 12.52343,-1.44922 l 1.24024,0.3086 v -66.20313 l -56.240215,13.56445 v 78.81446 0 l -0.0088,1.02539 c 0.14198,5.53192 -4.104875,11.46886 -10.680665,14.49414 -4.220435,1.93826 -8.636246,2.35456 -12.314453,1.5 -3.678207,-0.85457 -6.587253,-2.94163 -8.009766,-6.03906 -1.422669,-3.09745 -1.109968,-6.66474 0.638672,-10.01172 1.748641,-3.34698 4.941587,-6.42496 9.16211,-8.36328 4.127503,-1.89547 8.670085,-2.40272 12.523437,-1.44922 l 1.240235,0.30664 v -67.21094 -19.79297 z"
             id="path895"
             inkscape:connector-curvature="0"
             sodipodi:nodetypes="cccccccccccccccccscscccccccccccscscccccccccccscccccc" />
        </g>
      </g>
    </g>
  </g>
</svg>
